SplineFontDB: 3.2
FontName: YoungSerif-Bold
FullName: Young Serif Bold
FamilyName: Young Serif Bold
Weight: Bold
Copyright: Copyright 2023 The Young Serif Project Authors \\(https://github.com/noirblancrouge/YoungSerif\\)
Version: 005.002
ItalicAngle: 0
UnderlinePosition: -125
UnderlineWidth: 50
Ascent: 800
Descent: 200
InvalidEm: 0
sfntRevision: 0x00050083
LayerCount: 2
Layer: 0 0 "Back" 1
Layer: 1 0 "Fore" 0
XUID: [1021 735 254010608 10831]
StyleMap: 0x0040
FSType: 0
OS2Version: 4
OS2_WeightWidthSlopeOnly: 0
OS2_UseTypoMetrics: 1
CreationTime: 1750244485
ModificationTime: 1752514986
PfmFamily: 17
TTFWeight: 700
TTFWidth: 5
LineGap: 0
VLineGap: 0
Panose: 2 2 7 4 4 4 6 0 2 3
OS2TypoAscent: 930
OS2TypoAOffset: 0
OS2TypoDescent: -275
OS2TypoDOffset: 0
OS2TypoLinegap: 0
OS2WinAscent: 1150
OS2WinAOffset: 0
OS2WinDescent: 275
OS2WinDOffset: 0
HheadAscent: 930
HheadAOffset: 0
HheadDescent: -275
HheadDOffset: 0
OS2SubXSize: 650
OS2SubYSize: 600
OS2SubXOff: 0
OS2SubYOff: 75
OS2SupXSize: 650
OS2SupYSize: 600
OS2SupXOff: 0
OS2SupYOff: 350
OS2StrikeYSize: 44
OS2StrikeYPos: 300
OS2CapHeight: 660
OS2XHeight: 440
OS2Vendor: 'NBR '
OS2CodePages: 00000001.00000000
OS2UnicodeRanges: 00000003.00000000.00000000.00000000
Lookup: 3 0 0 "'aalt' Access All Alternates in Latin lookup 0" { "'aalt' Access All Alternates in Latin lookup 0 subtable"  } ['aalt' ('DFLT' <'dflt' > 'latn' <'AZE ' 'CAT ' 'CRT ' 'KAZ ' 'MAH ' 'MOL ' 'NLD ' 'ROM ' 'TAT ' 'TRK ' 'dflt' > ) ]
Lookup: 1 0 0 "'smcp' Lowercase to Small Capitals in Latin lookup 1" { "'smcp' Lowercase to Small Capitals in Latin lookup 1 subtable"  } ['smcp' ('DFLT' <'dflt' > 'latn' <'AZE ' 'CAT ' 'CRT ' 'KAZ ' 'MAH ' 'MOL ' 'NLD ' 'ROM ' 'TAT ' 'TRK ' 'dflt' > ) ]
Lookup: 1 0 0 "'sinf' Scientific Inferiors in Latin lookup 2" { "'sinf' Scientific Inferiors in Latin lookup 2 subtable"  } ['sinf' ('DFLT' <'dflt' > 'latn' <'AZE ' 'CAT ' 'CRT ' 'KAZ ' 'MAH ' 'MOL ' 'NLD ' 'ROM ' 'TAT ' 'TRK ' 'dflt' > ) ]

StartChar: .notdef
Encoding: 1114112 -1 0
Width: 440
GlyphClass: 1
Flags: MW
HStem: 0 44<102 338 338 345.5 102 427> 0 134 256 103 482 134 572 44<94.5 102 102 338>
VStem: 0 44<146 157 157 460> 0 85 355 85 396 44<157 459 459 470>
LayerCount: 2
Fore
SplineSet
0 603 m 2x8c80
 0 610 6 616 13 616 c 2
 427 616 l 2
 434 616 440 610 440 603 c 2
 440 13 l 2
 440 6 434 0 427 0 c 2
 13 0 l 2
 6 0 0 6 0 13 c 2
 0 603 l 2x8c80
352 546 m 2xab
 360 558 353 572 338 572 c 2
 102 572 l 2
 87 572 80 558 88 546 c 2
 207 367 l 2
 213 357 227 357 233 367 c 2
 352 546 l 2xab
356 144 m 2x5480
 368 125 396 135 396 157 c 2
 396 459 l 2
 396 481 368 491 356 472 c 2
 251 315 l 2
 248 312 248 304 251 301 c 2
 356 144 l 2x5480
338 44 m 2xab
 353 44 360 58 352 70 c 2
 233 249 l 2
 227 259 213 259 207 249 c 2
 88 70 l 2
 80 58 87 44 102 44 c 2
 338 44 l 2xab
44 157 m 2x5480
 44 135 72 125 84 144 c 2
 189 301 l 2
 192 304 192 312 189 315 c 2
 84 472 l 2
 72 491 44 482 44 460 c 2
 44 157 l 2x5480
EndSplineSet
EndChar

StartChar: A
Encoding: 65 65 4
Width: 692
GlyphClass: 2
Flags: MW
HStem: 640 20G<289 395 395 398.5>
AnchorPoint: "Anchor-6" 673 0 basechar 0
AnchorPoint: "Anchor-5" 341 660 basechar 0
AnchorPoint: "Anchor-4" 320 0 basechar 0
LayerCount: 2
Fore
SplineSet
608 136 m 2
 627 88 641 53 673 53 c 0
 685 53 686 48 686 40 c 2
 686 13 l 2
 686 4 682 0 673 0 c 2
 403 0 l 2
 395 0 390 4 390 13 c 2
 390 40 l 2
 390 48 391 53 403 53 c 0
 457 53 483 91 467 136 c 2
 440.280273438 211 l 1
 198.790039062 211 l 1
 172 136 l 2
 157 95 184 53 238 53 c 0
 250 53 251 48 251 40 c 2
 251 13 l 2
 251 4 246 0 238 0 c 2
 18 0 l 2
 10 0 5 4 5 13 c 2
 5 40 l 2
 5 48 6 53 18 53 c 0
 54 53 68 91 84 136 c 2
 274 649 l 2
 276 656 281 660 289 660 c 2
 395 660 l 2
 402 660 407 656 410 649 c 2
 608 136 l 2
225.620117188 288 m 1
 412.16015625 288 l 1
 317.129882812 544.73046875 l 1
 225.620117188 288 l 1
EndSplineSet
Substitution2: "Single Substitution lookup 36 subtable" ordfeminine
Substitution2: "'ss04' Style Set 4 in Latin lookup 33 subtable" u1F150
Substitution2: "'ss03' Style Set 3 in Latin lookup 31 subtable" uni24B6
Substitution2: "'c2sc' Capitals to Small Capitals in Latin lookup 11 subtable" A.sc
AlternateSubs2: "'aalt' Access All Alternates in Latin lookup 0 subtable" ordfeminine A.sc uni24B6 u1F150
Position2: "'cpsp' Capital Spacing in Latin lookup 0 subtable" dx=5 dy=0 dh=10 dv=0
EndChar

StartChar: Aacute
Encoding: 193 193 5
Width: 692
GlyphClass: 2
Flags: MW
HStem: 640 20G<289 395 395 398.5> 710 189
VStem: 279 188
AnchorPoint: "Anchor-6" 673 0 basechar 0
AnchorPoint: "Anchor-5" 373 899 basechar 0
AnchorPoint: "Anchor-4" 320 0 basechar 0
LayerCount: 2
Fore
SplineSet
608 136 m 2
 627 88 641 53 673 53 c 0
 685 53 686 48 686 40 c 2
 686 13 l 2
 686 4 682 0 673 0 c 2
 403 0 l 2
 395 0 390 4 390 13 c 2
 390 40 l 2
 390 48 391 53 403 53 c 0
 457 53 483 91 467 136 c 2
 440.280273438 211 l 1
 198.790039062 211 l 1
 172 136 l 2
 157 95 184 53 238 53 c 0
 250 53 251 48 251 40 c 2
 251 13 l 2
 251 4 246 0 238 0 c 2
 18 0 l 2
 10 0 5 4 5 13 c 2
 5 40 l 2
 5 48 6 53 18 53 c 0
 54 53 68 91 84 136 c 2
 274 649 l 2
 276 656 281 660 289 660 c 2
 395 660 l 2
 402 660 407 656 410 649 c 2
 608 136 l 2
279 729 m 1
 335 800 350 830 373 887 c 0
 378 898 394 899 406 899 c 0
 439 899 467 885 467 854 c 0
 467 788 391 739 336 715 c 0
 331 713 326 710.379882812 321.080078125 710.379882812 c 0
 318 710.379882812 315.240234375 711.4296875 312 713 c 2
 279 729 l 1
225.620117188 288 m 1
 412.16015625 288 l 1
 317.129882812 544.73046875 l 1
 225.620117188 288 l 1
EndSplineSet
Substitution2: "'c2sc' Capitals to Small Capitals in Latin lookup 11 subtable" Aacute.sc
AlternateSubs2: "'aalt' Access All Alternates in Latin lookup 0 subtable" Aacute.sc
Position2: "'cpsp' Capital Spacing in Latin lookup 0 subtable" dx=5 dy=0 dh=10 dv=0
EndChar

StartChar: Abreve
Encoding: 258 258 6
Width: 692
GlyphClass: 2
Flags: MW
HStem: 640 20G<289 395 395 398.5> 711 72<322 360.5 322 386.5>
VStem: 195 292<809.5 837>
AnchorPoint: "Anchor-6" 673 0 basechar 0
AnchorPoint: "Anchor-5" 341 837 basechar 0
AnchorPoint: "Anchor-4" 320 0 basechar 0
LayerCount: 2
Fore
SplineSet
608 136 m 2
 627 88 641 53 673 53 c 0
 685 53 686 48 686 40 c 2
 686 13 l 2
 686 4 682 0 673 0 c 2
 403 0 l 2
 395 0 390 4 390 13 c 2
 390 40 l 2
 390 48 391 53 403 53 c 0
 457 53 483 91 467 136 c 2
 440.280273438 211 l 1
 198.790039062 211 l 1
 172 136 l 2
 157 95 184 53 238 53 c 0
 250 53 251 48 251 40 c 2
 251 13 l 2
 251 4 246 0 238 0 c 2
 18 0 l 2
 10 0 5 4 5 13 c 2
 5 40 l 2
 5 48 6 53 18 53 c 0
 54 53 68 91 84 136 c 2
 274 649 l 2
 276 656 281 660 289 660 c 2
 395 660 l 2
 402 660 407 656 410 649 c 2
 608 136 l 2
341 711 m 0
 251 711 195 787 195 832 c 0
 195 842 202 846 210 847 c 0
 228 849 255 853 265 853 c 0
 273 853 277 849 279 840 c 0
 287 803 303 783 341 783 c 0
 380 783 396 803 404 840 c 0
 405 849 410 853 418 853 c 0
 427 853 455 849 472 847 c 0
 480 846 487 842 487 832 c 0
 487 787 432 711 341 711 c 0
225.620117188 288 m 1
 412.16015625 288 l 1
 317.129882812 544.73046875 l 1
 225.620117188 288 l 1
EndSplineSet
Substitution2: "'c2sc' Capitals to Small Capitals in Latin lookup 11 subtable" Abreve.sc
AlternateSubs2: "'aalt' Access All Alternates in Latin lookup 0 subtable" Abreve.sc
Position2: "'cpsp' Capital Spacing in Latin lookup 0 subtable" dx=5 dy=0 dh=10 dv=0
EndChar

StartChar: uni1EAE
Encoding: 7854 7854 7
Width: 692
GlyphClass: 2
Flags: MW
HStem: 640 20G<289 395 395 398.5> 711 72<322 360.5 322 386.5> 887 189
VStem: 195 292<809.5 837> 279 188
AnchorPoint: "Anchor-6" 673 0 basechar 0
AnchorPoint: "Anchor-5" 373 1076 basechar 0
AnchorPoint: "Anchor-4" 320 0 basechar 0
LayerCount: 2
Fore
SplineSet
608 136 m 2xe8
 627 88 641 53 673 53 c 0
 685 53 686 48 686 40 c 2
 686 13 l 2
 686 4 682 0 673 0 c 2
 403 0 l 2
 395 0 390 4 390 13 c 2
 390 40 l 2
 390 48 391 53 403 53 c 0
 457 53 483 91 467 136 c 2
 440.280273438 211 l 1
 198.790039062 211 l 1
 172 136 l 2
 157 95 184 53 238 53 c 0
 250 53 251 48 251 40 c 2
 251 13 l 2
 251 4 246 0 238 0 c 2
 18 0 l 2
 10 0 5 4 5 13 c 2
 5 40 l 2
 5 48 6 53 18 53 c 0
 54 53 68 91 84 136 c 2
 274 649 l 2
 276 656 281 660 289 660 c 2
 395 660 l 2
 402 660 407 656 410 649 c 2
 608 136 l 2xe8
341 711 m 0
 251 711 195 787 195 832 c 0xf0
 195 842 202 846 210 847 c 0
 228 849 255 853 265 853 c 0
 273 853 277 849 279 840 c 0xe8
 287 803 303 783 341 783 c 0
 380 783 396 803 404 840 c 0
 405 849 410 853 418 853 c 0
 427 853 455 849 472 847 c 0
 480 846 487 842 487 832 c 0xf0
 487 787 432 711 341 711 c 0
279 906.120117188 m 1xe8
 335 977.120117188 350 1007.12011719 373 1064.12011719 c 0
 378 1075.12011719 394 1076.12011719 406 1076.12011719 c 0
 439 1076.12011719 467 1062.12011719 467 1031.12011719 c 0
 467 965.120117188 391 916.120117188 336 892.120117188 c 0
 331 890.120117188 326 887.509765625 321.080078125 887.509765625 c 0
 318 887.509765625 315.240234375 888.549804688 312 890.120117188 c 2
 279 906.120117188 l 1xe8
225.620117188 288 m 1
 412.16015625 288 l 1
 317.129882812 544.73046875 l 1
 225.620117188 288 l 1
EndSplineSet
Substitution2: "'c2sc' Capitals to Small Capitals in Latin lookup 11 subtable" uni1EAE.sc
AlternateSubs2: "'aalt' Access All Alternates in Latin lookup 0 subtable" uni1EAE.sc
Position2: "'cpsp' Capital Spacing in Latin lookup 0 subtable" dx=5 dy=0 dh=10 dv=0
EndChar

StartChar: uni1EB6
Encoding: 7862 7862 8
Width: 692
GlyphClass: 2
Flags: MW
HStem: -209 160 640 20G<289 395 395 398.5> 711 72<322 360.5 322 386.5>
VStem: 195 292<809.5 837> 240 161
AnchorPoint: "Anchor-6" 673 0 basechar 0
AnchorPoint: "Anchor-5" 341 837 basechar 0
AnchorPoint: "Anchor-4" 320 0 basechar 0
LayerCount: 2
Fore
SplineSet
608 136 m 2xf0
 627 88 641 53 673 53 c 0
 685 53 686 48 686 40 c 2
 686 13 l 2
 686 4 682 0 673 0 c 2
 403 0 l 2
 395 0 390 4 390 13 c 2
 390 40 l 2
 390 48 391 53 403 53 c 0
 457 53 483 91 467 136 c 2
 440.280273438 211 l 1
 198.790039062 211 l 1
 172 136 l 2
 157 95 184 53 238 53 c 0
 250 53 251 48 251 40 c 2
 251 13 l 2
 251 4 246 0 238 0 c 2
 18 0 l 2
 10 0 5 4 5 13 c 2
 5 40 l 2
 5 48 6 53 18 53 c 0
 54 53 68 91 84 136 c 2
 274 649 l 2
 276 656 281 660 289 660 c 2
 395 660 l 2
 402 660 407 656 410 649 c 2
 608 136 l 2xf0
319.900390625 -49.1904296875 m 0
 339.270507812 -49.1904296875 355.010742188 -56.4501953125 374.380859375 -75.830078125 c 0
 393.760742188 -95.2001953125 401.020507812 -109.73046875 401.020507812 -129.100585938 c 0
 401.020507812 -148.48046875 392.55078125 -164.220703125 374.380859375 -182.380859375 c 0
 355.010742188 -201.760742188 339.270507812 -209.020507812 319.900390625 -209.020507812 c 0
 301.73046875 -209.020507812 287.200195312 -201.760742188 266.620117188 -182.380859375 c 0
 247.240234375 -164.220703125 239.98046875 -148.48046875 239.98046875 -129.100585938 c 0xe8
 239.98046875 -109.73046875 247.240234375 -95.2001953125 266.620117188 -75.830078125 c 0
 285.990234375 -56.4501953125 301.73046875 -49.1904296875 319.900390625 -49.1904296875 c 0
341 711 m 0
 251 711 195 787 195 832 c 0
 195 842 202 846 210 847 c 0
 228 849 255 853 265 853 c 0
 273 853 277 849 279 840 c 0
 287 803 303 783 341 783 c 0
 380 783 396 803 404 840 c 0
 405 849 410 853 418 853 c 0
 427 853 455 849 472 847 c 0
 480 846 487 842 487 832 c 0xf0
 487 787 432 711 341 711 c 0
225.620117188 288 m 1
 412.16015625 288 l 1
 317.129882812 544.73046875 l 1
 225.620117188 288 l 1
EndSplineSet
Substitution2: "'c2sc' Capitals to Small Capitals in Latin lookup 11 subtable" uni1EB6.sc
AlternateSubs2: "'aalt' Access All Alternates in Latin lookup 0 subtable" uni1EB6.sc
Position2: "'cpsp' Capital Spacing in Latin lookup 0 subtable" dx=5 dy=0 dh=10 dv=0
EndChar

StartChar: uni1EB0
Encoding: 7856 7856 9
Width: 692
GlyphClass: 2
Flags: MW
HStem: 640 20G<289 395 395 398.5> 711 72<322 360.5 322 386.5> 887 189
VStem: 195 292<809.5 837> 222 188
AnchorPoint: "Anchor-6" 673 0 basechar 0
AnchorPoint: "Anchor-5" 316 1076 basechar 0
AnchorPoint: "Anchor-4" 320 0 basechar 0
LayerCount: 2
Fore
SplineSet
608 136 m 2xf0
 627 88 641 53 673 53 c 0
 685 53 686 48 686 40 c 2
 686 13 l 2
 686 4 682 0 673 0 c 2
 403 0 l 2
 395 0 390 4 390 13 c 2
 390 40 l 2
 390 48 391 53 403 53 c 0
 457 53 483 91 467 136 c 2
 440.280273438 211 l 1
 198.790039062 211 l 1
 172 136 l 2
 157 95 184 53 238 53 c 0
 250 53 251 48 251 40 c 2
 251 13 l 2
 251 4 246 0 238 0 c 2
 18 0 l 2
 10 0 5 4 5 13 c 2
 5 40 l 2
 5 48 6 53 18 53 c 0
 54 53 68 91 84 136 c 2
 274 649 l 2
 276 656 281 660 289 660 c 2
 395 660 l 2
 402 660 407 656 410 649 c 2xe8
 608 136 l 2xf0
341 711 m 0
 251 711 195 787 195 832 c 0
 195 842 202 846 210 847 c 0
 228 849 255 853 265 853 c 0
 273 853 277 849 279 840 c 0
 287 803 303 783 341 783 c 0
 380 783 396 803 404 840 c 0
 405 849 410 853 418 853 c 0
 427 853 455 849 472 847 c 0
 480 846 487 842 487 832 c 0xf0
 487 787 432 711 341 711 c 0
377 890.120117188 m 2
 373.759765625 888.549804688 371 887.509765625 367.919921875 887.509765625 c 0
 363 887.509765625 358 890.120117188 353 892.120117188 c 0
 298 916.120117188 222 965.120117188 222 1031.12011719 c 0
 222 1062.12011719 250 1076.12011719 283 1076.12011719 c 0
 295 1076.12011719 311 1075.12011719 316 1064.12011719 c 0
 339 1007.12011719 354 977.120117188 410 906.120117188 c 1xe8
 377 890.120117188 l 2
225.620117188 288 m 1
 412.16015625 288 l 1
 317.129882812 544.73046875 l 1
 225.620117188 288 l 1
EndSplineSet
Substitution2: "'c2sc' Capitals to Small Capitals in Latin lookup 11 subtable" uni1EB0.sc
AlternateSubs2: "'aalt' Access All Alternates in Latin lookup 0 subtable" uni1EB0.sc
Position2: "'cpsp' Capital Spacing in Latin lookup 0 subtable" dx=5 dy=0 dh=10 dv=0
EndChar

StartChar: uni1EB2
Encoding: 7858 7858 10
Width: 692
GlyphClass: 2
Flags: MW
HStem: 640 20G<289 395 395 398.5> 711 72<322 360.5 322 386.5> 996 97 1013 80
VStem: 195 292<809.5 837> 347 72<980.62 990.16>
AnchorPoint: "Anchor-6" 673 0 basechar 0
AnchorPoint: "Anchor-5" 341 1123 basechar 0
AnchorPoint: "Anchor-4" 320 0 basechar 0
LayerCount: 2
Fore
SplineSet
608 136 m 2xe4
 627 88 641 53 673 53 c 0
 685 53 686 48 686 40 c 2
 686 13 l 2
 686 4 682 0 673 0 c 2
 403 0 l 2
 395 0 390 4 390 13 c 2
 390 40 l 2
 390 48 391 53 403 53 c 0
 457 53 483 91 467 136 c 2
 440.280273438 211 l 1
 198.790039062 211 l 1
 172 136 l 2
 157 95 184 53 238 53 c 0
 250 53 251 48 251 40 c 2
 251 13 l 2
 251 4 246 0 238 0 c 2
 18 0 l 2
 10 0 5 4 5 13 c 2
 5 40 l 2
 5 48 6 53 18 53 c 0
 54 53 68 91 84 136 c 2
 274 649 l 2
 276 656 281 660 289 660 c 2
 395 660 l 2
 402 660 407 656 410 649 c 2
 608 136 l 2xe4
341 711 m 0
 251 711 195 787 195 832 c 0xe8
 195 842 202 846 210 847 c 0
 228 849 255 853 265 853 c 0
 273 853 277 849 279 840 c 0
 287 803 303 783 341 783 c 0
 380 783 396 803 404 840 c 0
 405 849 410 853 418 853 c 0xe4
 427 853 455 849 472 847 c 0
 480 846 487 842 487 832 c 0xe8
 487 787 432 711 341 711 c 0
380 891.120117188 m 0
 367 874.120117188 313.33984375 901.440429688 325.33984375 917.440429688 c 0
 338.33984375 934.440429688 347 948.130859375 347 972.400390625 c 0
 347 1007.91992188 329.900390625 1013.19042969 316.740234375 1013.19042969 c 0xd4
 293.060546875 1013.19042969 275.190429688 986.630859375 266.740234375 1000.03125 c 0
 255.950195312 1017.13085938 250.83984375 1030.890625 249.83984375 1049.890625 c 0
 249.049804688 1064.890625 299 1093.12011719 335 1093.12011719 c 0
 398 1093.12011719 419 1043.12011719 419 999.120117188 c 0xe4
 419 962.120117188 405 923.120117188 380 891.120117188 c 0
225.620117188 288.010742188 m 1
 412.16015625 288.009765625 l 1
 317.129882812 544.740234375 l 1
 225.620117188 288.010742188 l 1
EndSplineSet
Substitution2: "'c2sc' Capitals to Small Capitals in Latin lookup 11 subtable" uni1EB2.sc
AlternateSubs2: "'aalt' Access All Alternates in Latin lookup 0 subtable" uni1EB2.sc
Position2: "'cpsp' Capital Spacing in Latin lookup 0 subtable" dx=5 dy=0 dh=10 dv=0
EndChar

StartChar: uni1EB4
Encoding: 7860 7860 11
Width: 692
GlyphClass: 2
Flags: MW
HStem: 640 20G<289 395 395 398.5> 711 72<322 360.5 322 386.5> 889 76 973 75
VStem: 187 80<946.12 956.62 946.12 984.12> 195 292<809.5 837> 415 80<980.12 991.12>
AnchorPoint: "Anchor-6" 673 0 basechar 0
AnchorPoint: "Anchor-5" 341 1022 basechar 0
AnchorPoint: "Anchor-4" 320 0 basechar 0
LayerCount: 2
Fore
SplineSet
608 136 m 2xf4
 627 88 641 53 673 53 c 0
 685 53 686 48 686 40 c 2
 686 13 l 2
 686 4 682 0 673 0 c 2
 403 0 l 2
 395 0 390 4 390 13 c 2
 390 40 l 2
 390 48 391 53 403 53 c 0
 457 53 483 91 467 136 c 2
 440.280273438 211 l 1
 198.790039062 211 l 1
 172 136 l 2
 157 95 184 53 238 53 c 0
 250 53 251 48 251 40 c 2
 251 13 l 2
 251 4 246 0 238 0 c 2
 18 0 l 2
 10 0 5 4 5 13 c 2
 5 40 l 2
 5 48 6 53 18 53 c 0
 54 53 68 91 84 136 c 2
 274 649 l 2
 276 656 281 660 289 660 c 2
 395 660 l 2
 402 660 407 656 410 649 c 2
 608 136 l 2xf4
341 711 m 0
 251 711 195 787 195 832 c 0
 195 842 202 846 210 847 c 0
 228 849 255 853 265 853 c 0
 273 853 277 849 279 840 c 0
 287 803 303 783 341 783 c 0
 380 783 396 803 404 840 c 0
 405 849 410 853 418 853 c 0
 427 853 455 849 472 847 c 0
 480 846 487 842 487 832 c 0
 487 787 432 711 341 711 c 0
370 989.120117188 m 0
 381 972.120117188 389 965.120117188 399 965.120117188 c 0
 411 965.120117188 415 975.120117188 415 985.120117188 c 0
 415 997.120117188 412 1009.12011719 402 1022.12011719 c 1
 412 1033.12011719 432 1049.12011719 451 1049.12011719 c 0
 466 1049.12011719 495 1017.12011719 495 981.120117188 c 0xf2
 495 924.120117188 453 889.120117188 409 889.120117188 c 0
 348 889.120117188 326 924.120117188 312 948.120117188 c 0
 302 966.120117188 294 973.120117188 284 973.120117188 c 0
 272 973.120117188 267 961.120117188 267 952.120117188 c 0
 267 940.120117188 271 928.120117188 281 915.120117188 c 1
 271 904.120117188 251 888.120117188 231 888.120117188 c 0
 216 888.120117188 187 921.120117188 187 955.120117188 c 0xf8
 187 1013.12011719 230 1048.12011719 274 1048.12011719 c 0
 334 1048.12011719 357 1011.12011719 370 989.120117188 c 0
225.620117188 288 m 1
 412.16015625 288 l 1
 317.129882812 544.73046875 l 1
 225.620117188 288 l 1
EndSplineSet
Substitution2: "'c2sc' Capitals to Small Capitals in Latin lookup 11 subtable" uni1EB4.sc
AlternateSubs2: "'aalt' Access All Alternates in Latin lookup 0 subtable" uni1EB4.sc
Position2: "'cpsp' Capital Spacing in Latin lookup 0 subtable" dx=5 dy=0 dh=10 dv=0
EndChar

StartChar: uni01CD
Encoding: 461 461 12
Width: 692
GlyphClass: 2
Flags: MW
HStem: 640 20G<289 395 395 398.5> 708 189
VStem: 170 342<827.5 851.5>
AnchorPoint: "Anchor-6" 673 0 basechar 0
AnchorPoint: "Anchor-5" 341 845 basechar 0
AnchorPoint: "Anchor-4" 320 0 basechar 0
LayerCount: 2
Fore
SplineSet
608 136 m 2
 627 88 641 53 673 53 c 0
 685 53 686 48 686 40 c 2
 686 13 l 2
 686 4 682 0 673 0 c 2
 403 0 l 2
 395 0 390 4 390 13 c 2
 390 40 l 2
 390 48 391 53 403 53 c 0
 457 53 483 91 467 136 c 2
 440.280273438 211 l 1
 198.790039062 211 l 1
 172 136 l 2
 157 95 184 53 238 53 c 0
 250 53 251 48 251 40 c 2
 251 13 l 2
 251 4 246 0 238 0 c 2
 18 0 l 2
 10 0 5 4 5 13 c 2
 5 40 l 2
 5 48 6 53 18 53 c 0
 54 53 68 91 84 136 c 2
 274 649 l 2
 276 656 281 660 289 660 c 2
 395 660 l 2
 402 660 407 656 410 649 c 2
 608 136 l 2
341 793 m 1
 367 842 411 897 468 897 c 0
 498 897 512 868 512 835 c 0
 512 820 511 807 500 802 c 0
 442 780 412 765 341 708 c 1
 270 765 240 780 182 802 c 0
 171 807 170 820 170 835 c 0
 170 868 184 897 214 897 c 0
 271 897 315 842 341 793 c 1
225.620117188 288 m 1
 412.16015625 288 l 1
 317.129882812 544.73046875 l 1
 225.620117188 288 l 1
EndSplineSet
Substitution2: "'c2sc' Capitals to Small Capitals in Latin lookup 11 subtable" uni01CD.sc
AlternateSubs2: "'aalt' Access All Alternates in Latin lookup 0 subtable" uni01CD.sc
Position2: "'cpsp' Capital Spacing in Latin lookup 0 subtable" dx=5 dy=0 dh=10 dv=0
EndChar

StartChar: Acircumflex
Encoding: 194 194 13
Width: 692
GlyphClass: 2
Flags: MW
HStem: 640 20G<289 395 395 398.5> 708 189
VStem: 170 342<753.5 777.5>
AnchorPoint: "Anchor-7" 341 812 basechar 0
AnchorPoint: "Anchor-6" 673 0 basechar 0
AnchorPoint: "Anchor-5" 341 867 basechar 0
AnchorPoint: "Anchor-4" 320 0 basechar 0
LayerCount: 2
Fore
SplineSet
608 136 m 2
 627 88 641 53 673 53 c 0
 685 53 686 48 686 40 c 2
 686 13 l 2
 686 4 682 0 673 0 c 2
 403 0 l 2
 395 0 390 4 390 13 c 2
 390 40 l 2
 390 48 391 53 403 53 c 0
 457 53 483 91 467 136 c 2
 440.280273438 211 l 1
 198.790039062 211 l 1
 172 136 l 2
 157 95 184 53 238 53 c 0
 250 53 251 48 251 40 c 2
 251 13 l 2
 251 4 246 0 238 0 c 2
 18 0 l 2
 10 0 5 4 5 13 c 2
 5 40 l 2
 5 48 6 53 18 53 c 0
 54 53 68 91 84 136 c 2
 274 649 l 2
 276 656 281 660 289 660 c 2
 395 660 l 2
 402 660 407 656 410 649 c 2
 608 136 l 2
341 812 m 1
 315 763 271 708 214 708 c 0
 184 708 170 737 170 770 c 0
 170 785 171 798 182 803 c 0
 240 825 270 840 341 897 c 1
 412 840 442 825 500 803 c 0
 511 798 512 785 512 770 c 0
 512 737 498 708 468 708 c 0
 411 708 367 763 341 812 c 1
225.620117188 288 m 1
 412.16015625 288 l 1
 317.129882812 544.73046875 l 1
 225.620117188 288 l 1
EndSplineSet
Substitution2: "'c2sc' Capitals to Small Capitals in Latin lookup 11 subtable" Acircumflex.sc
AlternateSubs2: "'aalt' Access All Alternates in Latin lookup 0 subtable" Acircumflex.sc
Position2: "'cpsp' Capital Spacing in Latin lookup 0 subtable" dx=5 dy=0 dh=10 dv=0
EndChar

StartChar: uni1EA4
Encoding: 7844 7844 14
Width: 692
GlyphClass: 2
Flags: MW
HStem: 640 20G<289 395 395 398.5> 708 189 862 189
VStem: 170 342<753.5 777.5> 427 188<881 1021.5>
AnchorPoint: "Anchor-7" 521 1051 basechar 0
AnchorPoint: "Anchor-6" 673 0 basechar 0
AnchorPoint: "Anchor-5" 341 867 basechar 0
AnchorPoint: "Anchor-4" 320 0 basechar 0
LayerCount: 2
Fore
SplineSet
608 136 m 2xc8
 627 88 641 53 673 53 c 0
 685 53 686 48 686 40 c 2
 686 13 l 2
 686 4 682 0 673 0 c 2
 403 0 l 2
 395 0 390 4 390 13 c 2
 390 40 l 2
 390 48 391 53 403 53 c 0
 457 53 483 91 467 136 c 2
 440.280273438 211 l 1
 198.790039062 211 l 1
 172 136 l 2
 157 95 184 53 238 53 c 0
 250 53 251 48 251 40 c 2
 251 13 l 2
 251 4 246 0 238 0 c 2
 18 0 l 2
 10 0 5 4 5 13 c 2
 5 40 l 2
 5 48 6 53 18 53 c 0
 54 53 68 91 84 136 c 2
 274 649 l 2
 276 656 281 660 289 660 c 2
 395 660 l 2
 402 660 407 656 410 649 c 2
 608 136 l 2xc8
341 812 m 1
 315 763 271 708 214 708 c 0
 184 708 170 737 170 770 c 0
 170 785 171 798 182 803 c 0
 240 825 270 840 341 897 c 1
 412 840 442 825 500 803 c 0
 511 798 512 785 512 770 c 0xd0
 512 737 498 708 468 708 c 0
 411 708 367 763 341 812 c 1
427 881 m 1xc8
 483 952 498 982 521 1039 c 0
 526 1050 542 1051 554 1051 c 0
 587 1051 615 1037 615 1006 c 0
 615 940 539 891 484 867 c 0
 479 865 474 862.379882812 469.080078125 862.379882812 c 0xa8
 466 862.379882812 463.240234375 863.4296875 460 865 c 2
 427 881 l 1xc8
225.620117188 288 m 1
 412.16015625 288 l 1
 317.129882812 544.73046875 l 1
 225.620117188 288 l 1
EndSplineSet
Substitution2: "'c2sc' Capitals to Small Capitals in Latin lookup 11 subtable" uni1EA4.sc
AlternateSubs2: "'aalt' Access All Alternates in Latin lookup 0 subtable" uni1EA4.sc
Position2: "'cpsp' Capital Spacing in Latin lookup 0 subtable" dx=5 dy=0 dh=10 dv=0
EndChar

StartChar: uni1EAC
Encoding: 7852 7852 15
Width: 692
GlyphClass: 2
Flags: MW
HStem: -209 160 640 20G<289 395 395 398.5> 708 189
VStem: 170 342<753.5 777.5> 240 161
AnchorPoint: "Anchor-7" 341 812 basechar 0
AnchorPoint: "Anchor-6" 673 0 basechar 0
AnchorPoint: "Anchor-5" 341 867 basechar 0
AnchorPoint: "Anchor-4" 320 0 basechar 0
LayerCount: 2
Fore
SplineSet
608 136 m 2xf0
 627 88 641 53 673 53 c 0
 685 53 686 48 686 40 c 2
 686 13 l 2
 686 4 682 0 673 0 c 2
 403 0 l 2
 395 0 390 4 390 13 c 2
 390 40 l 2
 390 48 391 53 403 53 c 0
 457 53 483 91 467 136 c 2
 440.280273438 211 l 1
 198.790039062 211 l 1
 172 136 l 2
 157 95 184 53 238 53 c 0
 250 53 251 48 251 40 c 2
 251 13 l 2
 251 4 246 0 238 0 c 2
 18 0 l 2
 10 0 5 4 5 13 c 2
 5 40 l 2
 5 48 6 53 18 53 c 0
 54 53 68 91 84 136 c 2
 274 649 l 2
 276 656 281 660 289 660 c 2
 395 660 l 2
 402 660 407 656 410 649 c 2
 608 136 l 2xf0
319.900390625 -49.1904296875 m 0
 339.270507812 -49.1904296875 355.010742188 -56.4501953125 374.380859375 -75.830078125 c 0
 393.760742188 -95.2001953125 401.020507812 -109.73046875 401.020507812 -129.100585938 c 0
 401.020507812 -148.48046875 392.55078125 -164.220703125 374.380859375 -182.380859375 c 0
 355.010742188 -201.760742188 339.270507812 -209.020507812 319.900390625 -209.020507812 c 0
 301.73046875 -209.020507812 287.200195312 -201.760742188 266.620117188 -182.380859375 c 0
 247.240234375 -164.220703125 239.98046875 -148.48046875 239.98046875 -129.100585938 c 0xe8
 239.98046875 -109.73046875 247.240234375 -95.2001953125 266.620117188 -75.830078125 c 0
 285.990234375 -56.4501953125 301.73046875 -49.1904296875 319.900390625 -49.1904296875 c 0
341 812 m 1
 315 763 271 708 214 708 c 0
 184 708 170 737 170 770 c 0
 170 785 171 798 182 803 c 0
 240 825 270 840 341 897 c 1
 412 840 442 825 500 803 c 0
 511 798 512 785 512 770 c 0xf0
 512 737 498 708 468 708 c 0
 411 708 367 763 341 812 c 1
225.620117188 288 m 1
 412.16015625 288 l 1
 317.129882812 544.73046875 l 1
 225.620117188 288 l 1
EndSplineSet
Substitution2: "'c2sc' Capitals to Small Capitals in Latin lookup 11 subtable" uni1EAC.sc
AlternateSubs2: "'aalt' Access All Alternates in Latin lookup 0 subtable" uni1EAC.sc
Position2: "'cpsp' Capital Spacing in Latin lookup 0 subtable" dx=5 dy=0 dh=10 dv=0
EndChar

StartChar: uni1EA6
Encoding: 7846 7846 16
Width: 692
GlyphClass: 2
Flags: MW
HStem: 640 20G<289 395 395 398.5> 708 189 862 189
VStem: 79 188<881 1021.5> 170 342<753.5 777.5>
AnchorPoint: "Anchor-7" 173 1051 basechar 0
AnchorPoint: "Anchor-6" 673 0 basechar 0
AnchorPoint: "Anchor-5" 341 867 basechar 0
AnchorPoint: "Anchor-4" 320 0 basechar 0
LayerCount: 2
Fore
SplineSet
608 136 m 2xa8
 627 88 641 53 673 53 c 0
 685 53 686 48 686 40 c 2
 686 13 l 2
 686 4 682 0 673 0 c 2
 403 0 l 2
 395 0 390 4 390 13 c 2
 390 40 l 2
 390 48 391 53 403 53 c 0
 457 53 483 91 467 136 c 2
 440.280273438 211 l 1
 198.790039062 211 l 1
 172 136 l 2
 157 95 184 53 238 53 c 0
 250 53 251 48 251 40 c 2
 251 13 l 2
 251 4 246 0 238 0 c 2
 18 0 l 2
 10 0 5 4 5 13 c 2
 5 40 l 2
 5 48 6 53 18 53 c 0
 54 53 68 91 84 136 c 2
 274 649 l 2
 276 656 281 660 289 660 c 2
 395 660 l 2
 402 660 407 656 410 649 c 2
 608 136 l 2xa8
341 812 m 1
 315 763 271 708 214 708 c 0
 184 708 170 737 170 770 c 0
 170 785 171 798 182 803 c 0
 240 825 270 840 341 897 c 1
 412 840 442 825 500 803 c 0
 511 798 512 785 512 770 c 0
 512 737 498 708 468 708 c 0xc8
 411 708 367 763 341 812 c 1
234 865 m 2
 230.759765625 863.4296875 228 862.379882812 224.919921875 862.379882812 c 0
 220 862.379882812 215 865 210 867 c 0
 155 891 79 940 79 1006 c 0
 79 1037 107 1051 140 1051 c 0xb0
 152 1051 168 1050 173 1039 c 0
 196 982 211 952 267 881 c 1xd0
 234 865 l 2
225.620117188 288 m 1
 412.16015625 288 l 1
 317.129882812 544.73046875 l 1
 225.620117188 288 l 1
EndSplineSet
Substitution2: "'c2sc' Capitals to Small Capitals in Latin lookup 11 subtable" uni1EA6.sc
AlternateSubs2: "'aalt' Access All Alternates in Latin lookup 0 subtable" uni1EA6.sc
Position2: "'cpsp' Capital Spacing in Latin lookup 0 subtable" dx=5 dy=0 dh=10 dv=0
EndChar

StartChar: uni1EA8
Encoding: 7848 7848 17
Width: 692
GlyphClass: 2
Flags: MW
HStem: 640 20G<289 395 395 398.5> 708 189 988 80
VStem: 170 342<753.5 777.5> 463 72<955.5 965.04>
AnchorPoint: "Anchor-7" 457 1098 basechar 0
AnchorPoint: "Anchor-6" 673 0 basechar 0
AnchorPoint: "Anchor-5" 341 867 basechar 0
AnchorPoint: "Anchor-4" 320 0 basechar 0
LayerCount: 2
Fore
SplineSet
608 136 m 2xf0
 627 88 641 53 673 53 c 0
 685 53 686 48 686 40 c 2
 686 13 l 2
 686 4 682 0 673 0 c 2
 403 0 l 2
 395 0 390 4 390 13 c 2
 390 40 l 2
 390 48 391 53 403 53 c 0
 457 53 483 91 467 136 c 2
 440.280273438 211 l 1
 198.790039062 211 l 1
 172 136 l 2
 157 95 184 53 238 53 c 0
 250 53 251 48 251 40 c 2
 251 13 l 2
 251 4 246 0 238 0 c 2
 18 0 l 2
 10 0 5 4 5 13 c 2
 5 40 l 2
 5 48 6 53 18 53 c 0
 54 53 68 91 84 136 c 2
 274 649 l 2
 276 656 281 660 289 660 c 2
 395 660 l 2
 402 660 407 656 410 649 c 2
 608 136 l 2xf0
341 812 m 1
 315 763 271 708 214 708 c 0
 184 708 170 737 170 770 c 0
 170 785 171 798 182 803 c 0
 240 825 270 840 341 897 c 1
 412 840 442 825 500 803 c 0
 511 798 512 785 512 770 c 0
 512 737 498 708 468 708 c 0
 411 708 367 763 341 812 c 1
496 866 m 0
 483 849 429.33984375 876.319335938 441.33984375 892.319335938 c 0
 454.33984375 909.319335938 463 923.009765625 463 947.280273438 c 0
 463 982.799804688 445.900390625 988.059570312 432.740234375 988.059570312 c 0
 409.060546875 988.059570312 391.190429688 961.509765625 382.740234375 974.91015625 c 0
 371.950195312 992.009765625 366.83984375 1005.76953125 365.83984375 1024.76953125 c 0
 365.049804688 1039.76953125 415 1068 451 1068 c 0
 514 1068 535 1018 535 974 c 0xe8
 535 937 521 898 496 866 c 0
225.620117188 288.009765625 m 1
 412.16015625 288.009765625 l 1
 317.129882812 544.740234375 l 1
 225.620117188 288.009765625 l 1
EndSplineSet
Substitution2: "'c2sc' Capitals to Small Capitals in Latin lookup 11 subtable" uni1EA8.sc
AlternateSubs2: "'aalt' Access All Alternates in Latin lookup 0 subtable" uni1EA8.sc
Position2: "'cpsp' Capital Spacing in Latin lookup 0 subtable" dx=5 dy=0 dh=10 dv=0
EndChar

StartChar: uni1EAA
Encoding: 7850 7850 18
Width: 692
GlyphClass: 2
Flags: MW
HStem: 640 20G<289 395 395 398.5> 708 189 919 76<394 405 394 431> 1003 75<278 289>
VStem: 170 342<753.5 777.5> 187 80<976 986.5 976 1014> 415 80<1010 1021>
AnchorPoint: "Anchor-7" 341 812 basechar 0
AnchorPoint: "Anchor-6" 673 0 basechar 0
AnchorPoint: "Anchor-5" 341 1052 basechar 0
AnchorPoint: "Anchor-4" 320 0 basechar 0
LayerCount: 2
Fore
SplineSet
608 136 m 2xf6
 627 88 641 53 673 53 c 0
 685 53 686 48 686 40 c 2
 686 13 l 2
 686 4 682 0 673 0 c 2
 403 0 l 2
 395 0 390 4 390 13 c 2
 390 40 l 2
 390 48 391 53 403 53 c 0
 457 53 483 91 467 136 c 2
 440.280273438 211 l 1
 198.790039062 211 l 1
 172 136 l 2
 157 95 184 53 238 53 c 0
 250 53 251 48 251 40 c 2
 251 13 l 2
 251 4 246 0 238 0 c 2
 18 0 l 2
 10 0 5 4 5 13 c 2
 5 40 l 2
 5 48 6 53 18 53 c 0
 54 53 68 91 84 136 c 2
 274 649 l 2
 276 656 281 660 289 660 c 2
 395 660 l 2
 402 660 407 656 410 649 c 2
 608 136 l 2xf6
341 812 m 1
 315 763 271 708 214 708 c 0
 184 708 170 737 170 770 c 0
 170 785 171 798 182 803 c 0
 240 825 270 840 341 897 c 1
 412 840 442 825 500 803 c 0
 511 798 512 785 512 770 c 0xf8
 512 737 498 708 468 708 c 0
 411 708 367 763 341 812 c 1
370 1019 m 0
 381 1002 389 995 399 995 c 0
 411 995 415 1005 415 1015 c 0
 415 1027 412 1039 402 1052 c 1
 412 1063 432 1079 451 1079 c 0
 466 1079 495 1047 495 1011 c 0
 495 954 453 919 409 919 c 0
 348 919 326 954 312 978 c 0
 302 996 294 1003 284 1003 c 0
 272 1003 267 991 267 982 c 0
 267 970 271 958 281 945 c 1
 271 934 251 918 231 918 c 0
 216 918 187 951 187 985 c 0xf6
 187 1043 230 1078 274 1078 c 0
 334 1078 357 1041 370 1019 c 0
225.620117188 288 m 1
 412.16015625 288 l 1
 317.129882812 544.73046875 l 1
 225.620117188 288 l 1
EndSplineSet
Substitution2: "'c2sc' Capitals to Small Capitals in Latin lookup 11 subtable" uni1EAA.sc
AlternateSubs2: "'aalt' Access All Alternates in Latin lookup 0 subtable" uni1EAA.sc
Position2: "'cpsp' Capital Spacing in Latin lookup 0 subtable" dx=5 dy=0 dh=10 dv=0
EndChar

StartChar: uni0200
Encoding: 512 512 19
Width: 692
GlyphClass: 2
Flags: MW
HStem: 640 20G<289 395 395 398.5> 710 189
VStem: 161 188 333 188
AnchorPoint: "Anchor-6" 673 0 basechar 0
AnchorPoint: "Anchor-5" 341 899 basechar 0
AnchorPoint: "Anchor-4" 320 0 basechar 0
LayerCount: 2
Fore
SplineSet
608 136 m 2xd0
 627 88 641 53 673 53 c 0
 685 53 686 48 686 40 c 2
 686 13 l 2
 686 4 682 0 673 0 c 2
 403 0 l 2
 395 0 390 4 390 13 c 2
 390 40 l 2
 390 48 391 53 403 53 c 0
 457 53 483 91 467 136 c 2
 440.280273438 211 l 1
 198.790039062 211 l 1
 172 136 l 2
 157 95 184 53 238 53 c 0
 250 53 251 48 251 40 c 2
 251 13 l 2
 251 4 246 0 238 0 c 2
 18 0 l 2
 10 0 5 4 5 13 c 2
 5 40 l 2
 5 48 6 53 18 53 c 0
 54 53 68 91 84 136 c 2
 274 649 l 2
 276 656 281 660 289 660 c 2
 395 660 l 2
 402 660 407 656 410 649 c 2
 608 136 l 2xd0
488.349609375 713 m 2
 485.109375 711.4296875 482.349609375 710.379882812 479.26953125 710.379882812 c 0
 474.349609375 710.379882812 469.349609375 713 464.349609375 715 c 0
 409.349609375 739 333.349609375 788 333.349609375 854 c 0
 333.349609375 885 361.349609375 899 394.349609375 899 c 0
 406.349609375 899 422.349609375 898 427.349609375 887 c 0
 450.349609375 830 465.349609375 800 521.349609375 729 c 1
 488.349609375 713 l 2
315.729492188 713 m 2
 312.489257812 711.4296875 309.729492188 710.379882812 306.649414062 710.379882812 c 0
 301.729492188 710.379882812 296.729492188 713 291.729492188 715 c 0
 236.729492188 739 160.729492188 788 160.729492188 854 c 0
 160.729492188 885 188.729492188 899 221.729492188 899 c 0
 233.729492188 899 249.729492188 898 254.729492188 887 c 0
 277.729492188 830 292.729492188 800 348.729492188 729 c 1xe0
 315.729492188 713 l 2
225.619140625 288 m 1
 412.159179688 288 l 1
 317.12890625 544.73046875 l 1
 225.619140625 288 l 1
EndSplineSet
Substitution2: "'c2sc' Capitals to Small Capitals in Latin lookup 11 subtable" uni0200.sc
AlternateSubs2: "'aalt' Access All Alternates in Latin lookup 0 subtable" uni0200.sc
Position2: "'cpsp' Capital Spacing in Latin lookup 0 subtable" dx=5 dy=0 dh=10 dv=0
EndChar

StartChar: Adieresis
Encoding: 196 196 20
Width: 692
GlyphClass: 2
Flags: MW
HStem: 640 20G<289 395 395 398.5> 705 160
VStem: 158 161 363 161
AnchorPoint: "Anchor-6" 673 0 basechar 0
AnchorPoint: "Anchor-5" 341 845 basechar 0
AnchorPoint: "Anchor-4" 320 0 basechar 0
LayerCount: 2
Fore
SplineSet
608 136 m 2
 627 88 641 53 673 53 c 0
 685 53 686 48 686 40 c 2
 686 13 l 2
 686 4 682 0 673 0 c 2
 403 0 l 2
 395 0 390 4 390 13 c 2
 390 40 l 2
 390 48 391 53 403 53 c 0
 457 53 483 91 467 136 c 2
 440.280273438 211 l 1
 198.790039062 211 l 1
 172 136 l 2
 157 95 184 53 238 53 c 0
 250 53 251 48 251 40 c 2
 251 13 l 2
 251 4 246 0 238 0 c 2
 18 0 l 2
 10 0 5 4 5 13 c 2
 5 40 l 2
 5 48 6 53 18 53 c 0
 54 53 68 91 84 136 c 2
 274 649 l 2
 276 656 281 660 289 660 c 2
 395 660 l 2
 402 660 407 656 410 649 c 2
 608 136 l 2
238.299804688 864.919921875 m 0
 257.669921875 864.919921875 273.41015625 857.650390625 292.780273438 838.280273438 c 0
 312.16015625 818.900390625 319.419921875 804.370117188 319.419921875 785 c 0
 319.419921875 765.629882812 310.950195312 749.889648438 292.780273438 731.719726562 c 0
 273.41015625 712.349609375 257.669921875 705.080078125 238.299804688 705.080078125 c 0
 220.129882812 705.080078125 205.599609375 712.349609375 185.01953125 731.719726562 c 0
 165.639648438 749.889648438 158.379882812 765.629882812 158.379882812 785 c 0
 158.379882812 804.370117188 165.639648438 818.900390625 185.01953125 838.280273438 c 0
 204.389648438 857.650390625 220.129882812 864.919921875 238.299804688 864.919921875 c 0
443.299804688 864.919921875 m 0
 462.669921875 864.919921875 478.41015625 857.650390625 497.780273438 838.280273438 c 0
 517.16015625 818.900390625 524.419921875 804.370117188 524.419921875 785 c 0
 524.419921875 765.629882812 515.950195312 749.889648438 497.780273438 731.719726562 c 0
 478.41015625 712.349609375 462.669921875 705.080078125 443.299804688 705.080078125 c 0
 425.129882812 705.080078125 410.599609375 712.349609375 390.01953125 731.719726562 c 0
 370.639648438 749.889648438 363.379882812 765.629882812 363.379882812 785 c 0
 363.379882812 804.370117188 370.639648438 818.900390625 390.01953125 838.280273438 c 0
 409.389648438 857.650390625 425.129882812 864.919921875 443.299804688 864.919921875 c 0
225.620117188 288 m 1
 412.16015625 288 l 1
 317.129882812 544.73046875 l 1
 225.620117188 288 l 1
EndSplineSet
Substitution2: "'c2sc' Capitals to Small Capitals in Latin lookup 11 subtable" Adieresis.sc
AlternateSubs2: "'aalt' Access All Alternates in Latin lookup 0 subtable" Adieresis.sc
Position2: "'cpsp' Capital Spacing in Latin lookup 0 subtable" dx=5 dy=0 dh=10 dv=0
EndChar

StartChar: uni1EA0
Encoding: 7840 7840 21
Width: 692
GlyphClass: 2
Flags: MW
HStem: -209 160 640 20G<289 395 395 398.5>
VStem: 240 161
AnchorPoint: "Anchor-6" 673 0 basechar 0
AnchorPoint: "Anchor-5" 341 660 basechar 0
AnchorPoint: "Anchor-4" 320 0 basechar 0
LayerCount: 2
Fore
SplineSet
608 136 m 2
 627 88 641 53 673 53 c 0
 685 53 686 48 686 40 c 2
 686 13 l 2
 686 4 682 0 673 0 c 2
 403 0 l 2
 395 0 390 4 390 13 c 2
 390 40 l 2
 390 48 391 53 403 53 c 0
 457 53 483 91 467 136 c 2
 440.280273438 211 l 1
 198.790039062 211 l 1
 172 136 l 2
 157 95 184 53 238 53 c 0
 250 53 251 48 251 40 c 2
 251 13 l 2
 251 4 246 0 238 0 c 2
 18 0 l 2
 10 0 5 4 5 13 c 2
 5 40 l 2
 5 48 6 53 18 53 c 0
 54 53 68 91 84 136 c 2
 274 649 l 2
 276 656 281 660 289 660 c 2
 395 660 l 2
 402 660 407 656 410 649 c 2
 608 136 l 2
319.900390625 -49.1904296875 m 0
 339.270507812 -49.1904296875 355.010742188 -56.4501953125 374.380859375 -75.830078125 c 0
 393.760742188 -95.2001953125 401.020507812 -109.73046875 401.020507812 -129.100585938 c 0
 401.020507812 -148.48046875 392.55078125 -164.220703125 374.380859375 -182.380859375 c 0
 355.010742188 -201.760742188 339.270507812 -209.020507812 319.900390625 -209.020507812 c 0
 301.73046875 -209.020507812 287.200195312 -201.760742188 266.620117188 -182.380859375 c 0
 247.240234375 -164.220703125 239.98046875 -148.48046875 239.98046875 -129.100585938 c 0
 239.98046875 -109.73046875 247.240234375 -95.2001953125 266.620117188 -75.830078125 c 0
 285.990234375 -56.4501953125 301.73046875 -49.1904296875 319.900390625 -49.1904296875 c 0
225.620117188 288 m 1
 412.16015625 288 l 1
 317.129882812 544.73046875 l 1
 225.620117188 288 l 1
EndSplineSet
Substitution2: "'c2sc' Capitals to Small Capitals in Latin lookup 11 subtable" uni1EA0.sc
AlternateSubs2: "'aalt' Access All Alternates in Latin lookup 0 subtable" uni1EA0.sc
Position2: "'cpsp' Capital Spacing in Latin lookup 0 subtable" dx=5 dy=0 dh=10 dv=0
EndChar

StartChar: Agrave
Encoding: 192 192 22
Width: 692
GlyphClass: 2
Flags: MW
HStem: 640 20G<289 395 395 398.5> 710 189
VStem: 222 188<649 869.5>
AnchorPoint: "Anchor-6" 673 0 basechar 0
AnchorPoint: "Anchor-5" 316 899 basechar 0
AnchorPoint: "Anchor-4" 320 0 basechar 0
LayerCount: 2
Fore
SplineSet
608 136 m 2
 627 88 641 53 673 53 c 0
 685 53 686 48 686 40 c 2
 686 13 l 2
 686 4 682 0 673 0 c 2
 403 0 l 2
 395 0 390 4 390 13 c 2
 390 40 l 2
 390 48 391 53 403 53 c 0
 457 53 483 91 467 136 c 2
 440.280273438 211 l 1
 198.790039062 211 l 1
 172 136 l 2
 157 95 184 53 238 53 c 0
 250 53 251 48 251 40 c 2
 251 13 l 2
 251 4 246 0 238 0 c 2
 18 0 l 2
 10 0 5 4 5 13 c 2
 5 40 l 2
 5 48 6 53 18 53 c 0
 54 53 68 91 84 136 c 2
 274 649 l 2
 276 656 281 660 289 660 c 2
 395 660 l 2
 402 660 407 656 410 649 c 2
 608 136 l 2
377 713 m 2
 373.759765625 711.4296875 371 710.379882812 367.919921875 710.379882812 c 0
 363 710.379882812 358 713 353 715 c 0
 298 739 222 788 222 854 c 0
 222 885 250 899 283 899 c 0
 295 899 311 898 316 887 c 0
 339 830 354 800 410 729 c 1
 377 713 l 2
225.620117188 288 m 1
 412.16015625 288 l 1
 317.129882812 544.73046875 l 1
 225.620117188 288 l 1
EndSplineSet
Substitution2: "'c2sc' Capitals to Small Capitals in Latin lookup 11 subtable" Agrave.sc
AlternateSubs2: "'aalt' Access All Alternates in Latin lookup 0 subtable" Agrave.sc
Position2: "'cpsp' Capital Spacing in Latin lookup 0 subtable" dx=5 dy=0 dh=10 dv=0
EndChar

StartChar: uni1EA2
Encoding: 7842 7842 23
Width: 692
GlyphClass: 2
Flags: MW
HStem: 640 20G<289 395 395 398.5> 836 80
VStem: 347 72<803.5 813.04>
AnchorPoint: "Anchor-6" 673 0 basechar 0
AnchorPoint: "Anchor-5" 341 946 basechar 0
AnchorPoint: "Anchor-4" 320 0 basechar 0
LayerCount: 2
Fore
SplineSet
608 136 m 2
 627 88 641 53 673 53 c 0
 685 53 686 48 686 40 c 2
 686 13 l 2
 686 4 682 0 673 0 c 2
 403 0 l 2
 395 0 390 4 390 13 c 2
 390 40 l 2
 390 48 391 53 403 53 c 0
 457 53 483 91 467 136 c 2
 440.280273438 211 l 1
 198.790039062 211 l 1
 172 136 l 2
 157 95 184 53 238 53 c 0
 250 53 251 48 251 40 c 2
 251 13 l 2
 251 4 246 0 238 0 c 2
 18 0 l 2
 10 0 5 4 5 13 c 2
 5 40 l 2
 5 48 6 53 18 53 c 0
 54 53 68 91 84 136 c 2
 274 649 l 2
 276 656 281 660 289 660 c 2
 395 660 l 2
 402 660 407 656 410 649 c 2
 608 136 l 2
380 714 m 0
 367 697 313.33984375 724.319335938 325.33984375 740.319335938 c 0
 338.33984375 757.319335938 347 771.009765625 347 795.280273438 c 0
 347 830.799804688 329.900390625 836.059570312 316.740234375 836.059570312 c 0
 293.060546875 836.059570312 275.190429688 809.509765625 266.740234375 822.91015625 c 0
 255.950195312 840.009765625 250.83984375 853.76953125 249.83984375 872.76953125 c 0
 249.049804688 887.76953125 299 916 335 916 c 0
 398 916 419 866 419 822 c 0
 419 785 405 746 380 714 c 0
225.620117188 288.009765625 m 1
 412.16015625 288.009765625 l 1
 317.129882812 544.740234375 l 1
 225.620117188 288.009765625 l 1
EndSplineSet
Substitution2: "'c2sc' Capitals to Small Capitals in Latin lookup 11 subtable" uni1EA2.sc
AlternateSubs2: "'aalt' Access All Alternates in Latin lookup 0 subtable" uni1EA2.sc
Position2: "'cpsp' Capital Spacing in Latin lookup 0 subtable" dx=5 dy=0 dh=10 dv=0
EndChar

StartChar: uni0202
Encoding: 514 514 24
Width: 692
GlyphClass: 2
Flags: MW
HStem: 640 20G<289 395 395 398.5> 801 72<324 362.5>
VStem: 197 292<747 774.5>
AnchorPoint: "Anchor-6" 673 0 basechar 0
AnchorPoint: "Anchor-5" 341 899 basechar 0
AnchorPoint: "Anchor-4" 320 0 basechar 0
LayerCount: 2
Fore
SplineSet
608 136 m 2
 627 88 641 53 673 53 c 0
 685 53 686 48 686 40 c 2
 686 13 l 2
 686 4 682 0 673 0 c 2
 403 0 l 2
 395 0 390 4 390 13 c 2
 390 40 l 2
 390 48 391 53 403 53 c 0
 457 53 483 91 467 136 c 2
 440.280273438 211 l 1
 198.790039062 211 l 1
 172 136 l 2
 157 95 184 53 238 53 c 0
 250 53 251 48 251 40 c 2
 251 13 l 2
 251 4 246 0 238 0 c 2
 18 0 l 2
 10 0 5 4 5 13 c 2
 5 40 l 2
 5 48 6 53 18 53 c 0
 54 53 68 91 84 136 c 2
 274 649 l 2
 276 656 281 660 289 660 c 2
 395 660 l 2
 402 660 407 656 410 649 c 2
 608 136 l 2
343 873 m 0
 434 873 489 797 489 752 c 0
 489 742 482 738 474 737 c 0
 457 735 429 731 420 731 c 0
 412 731 407 735 406 744 c 0
 398 781 382 801 343 801 c 0
 305 801 289 781 281 744 c 0
 279 735 275 731 267 731 c 0
 257 731 230 735 212 737 c 0
 204 738 197 742 197 752 c 0
 197 797 253 873 343 873 c 0
225.620117188 288 m 1
 412.16015625 288 l 1
 317.129882812 544.73046875 l 1
 225.620117188 288 l 1
EndSplineSet
Substitution2: "'c2sc' Capitals to Small Capitals in Latin lookup 11 subtable" uni0202.sc
AlternateSubs2: "'aalt' Access All Alternates in Latin lookup 0 subtable" uni0202.sc
Position2: "'cpsp' Capital Spacing in Latin lookup 0 subtable" dx=5 dy=0 dh=10 dv=0
EndChar

StartChar: Amacron
Encoding: 256 256 25
Width: 692
GlyphClass: 2
Flags: MW
HStem: 640 20G<289 395 395 398.5> 721 79<218.5 459 223 459>
VStem: 210 262<734 787 730 791.5>
AnchorPoint: "Anchor-6" 673 0 basechar 0
AnchorPoint: "Anchor-5" 341 792 basechar 0
AnchorPoint: "Anchor-4" 320 0 basechar 0
LayerCount: 2
Fore
SplineSet
608 136 m 2
 627 88 641 53 673 53 c 0
 685 53 686 48 686 40 c 2
 686 13 l 2
 686 4 682 0 673 0 c 2
 403 0 l 2
 395 0 390 4 390 13 c 2
 390 40 l 2
 390 48 391 53 403 53 c 0
 457 53 483 91 467 136 c 2
 440.280273438 211 l 1
 198.790039062 211 l 1
 172 136 l 2
 157 95 184 53 238 53 c 0
 250 53 251 48 251 40 c 2
 251 13 l 2
 251 4 246 0 238 0 c 2
 18 0 l 2
 10 0 5 4 5 13 c 2
 5 40 l 2
 5 48 6 53 18 53 c 0
 54 53 68 91 84 136 c 2
 274 649 l 2
 276 656 281 660 289 660 c 2
 395 660 l 2
 402 660 407 656 410 649 c 2
 608 136 l 2
472 734 m 2
 472 726 468 721 459 721 c 2
 223 721 l 2
 214 721 210 726 210 734 c 2
 210 787 l 2
 210 796 214 800 223 800 c 2
 459 800 l 2
 468 800 472 796 472 787 c 2
 472 734 l 2
225.620117188 288 m 1
 412.16015625 288 l 1
 317.129882812 544.73046875 l 1
 225.620117188 288 l 1
EndSplineSet
Substitution2: "'c2sc' Capitals to Small Capitals in Latin lookup 11 subtable" Amacron.sc
AlternateSubs2: "'aalt' Access All Alternates in Latin lookup 0 subtable" Amacron.sc
Position2: "'cpsp' Capital Spacing in Latin lookup 0 subtable" dx=5 dy=0 dh=10 dv=0
EndChar

StartChar: Aogonek
Encoding: 260 260 26
Width: 692
GlyphClass: 2
Flags: MW
HStem: -223 68<635.5 655> 0 44 640 20G<289 395 395 398.5>
VStem: 501 87<-103.5 -71.2998>
AnchorPoint: "Anchor-6" 673 0 basechar 0
AnchorPoint: "Anchor-5" 341 660 basechar 0
AnchorPoint: "Anchor-4" 320 0 basechar 0
LayerCount: 2
Fore
SplineSet
608 136 m 2
 627 88 641.000976562 53 673.000976562 53 c 0
 685.000976562 53 686.000976562 48 686.000976562 40 c 2
 686.000976562 13 l 2
 686.000976562 8.7099609375 685.090820312 5.5595703125 683.170898438 3.4296875 c 0
 682.170898438 2.0595703125 680.340820312 1.099609375 678.060546875 0.5498046875 c 0
 676.600585938 0.1796875 674.91015625 0 673 0 c 0
 662 0 588 -18 588 -83 c 0
 588 -124 613 -155 658 -155 c 0
 690 -155 726 -132 735 -132 c 0
 739 -132 743 -136 743 -143 c 2
 743 -178 l 2
 743 -184 741 -189 736 -192 c 0
 703 -212 670 -223 640 -223 c 0
 544 -223 501 -146 501 -92 c 0
 501 -50.599609375 519.41015625 -20.8798828125 543.490234375 0 c 1
 403 0 l 2
 395 0 390 4 390 13 c 2
 390 40 l 2
 390 48 391 53 403 53 c 0
 457 53 483 91 467 136 c 2
 440.280273438 211 l 1
 198.790039062 211 l 1
 172 136 l 2
 157 95 184 53 238 53 c 0
 250 53 251 48 251 40 c 2
 251 13 l 2
 251 4 246 0 238 0 c 2
 18 0 l 2
 10 0 5 4 5 13 c 2
 5 40 l 2
 5 48 6 53 18 53 c 0
 54 53 68 91 84 136 c 2
 274 649 l 2
 276 656 281 660 289 660 c 2
 395 660 l 2
 402 660 407 656 410 649 c 2
 608 136 l 2
225.62109375 288 m 1
 412.161132812 288 l 1
 317.130859375 544.73046875 l 1
 225.62109375 288 l 1
EndSplineSet
Substitution2: "'c2sc' Capitals to Small Capitals in Latin lookup 11 subtable" Aogonek.sc
AlternateSubs2: "'aalt' Access All Alternates in Latin lookup 0 subtable" Aogonek.sc
Position2: "'cpsp' Capital Spacing in Latin lookup 0 subtable" dx=5 dy=0 dh=10 dv=0
EndChar

StartChar: Aring
Encoding: 197 197 27
Width: 692
GlyphClass: 2
Flags: MW
HStem: 630 62 640 20G 687 20G 797 62<326.5 359>
VStem: 221 68<728.5 760 728.5 776> 396 68<728.5 760>
AnchorPoint: "Anchor-6" 673 0 basechar 0
AnchorPoint: "Anchor-5" 341 832 basechar 0
AnchorPoint: "Anchor-4" 320 0 basechar 0
LayerCount: 2
Fore
SplineSet
608 136 m 2x7c
 627 88 641 53 673 53 c 0
 685 53 686 48 686 40 c 2
 686 13 l 2
 686 4 682 0 673 0 c 2
 403 0 l 2
 395 0 390 4 390 13 c 2
 390 40 l 2
 390 48 391 53 403 53 c 0
 457 53 483 91 467 136 c 2
 440.280273438 211 l 1
 198.790039062 211 l 1
 172 136 l 2
 157 95 184 53 238 53 c 0
 250 53 251 48 251 40 c 2
 251 13 l 2
 251 4 246 0 238 0 c 2
 18 0 l 2
 10 0 5 4 5 13 c 2
 5 40 l 2
 5 48 6 53 18 53 c 0
 54 53 68 91 84 136 c 2
 274 649 l 1
 274.200195312 649.66015625 l 1
 241.959960938 670.16015625 221 704.75 221 744 c 0
 221 808 275 859 343 859 c 0
 410 859 464 808 464 744 c 0
 464 704.330078125 442.58984375 669.419921875 410 649 c 1
 608 136 l 2x7c
289 744 m 0
 289 713 310 692 343 692 c 0x9c
 375 692 396 713 396 744 c 0
 396 776 375 797 343 797 c 0
 310 797 289 776 289 744 c 0
225.620117188 288 m 1
 412.16015625 288 l 1
 317.129882812 544.73046875 l 1
 225.620117188 288 l 1
EndSplineSet
Substitution2: "'c2sc' Capitals to Small Capitals in Latin lookup 11 subtable" Aring.sc
AlternateSubs2: "'aalt' Access All Alternates in Latin lookup 0 subtable" Aring.sc
Position2: "'cpsp' Capital Spacing in Latin lookup 0 subtable" dx=5 dy=0 dh=10 dv=0
EndChar

StartChar: Aringacute
Encoding: 506 506 28
Width: 692
GlyphClass: 2
Flags: MW
HStem: 630 62 797 62<326.5 359> 882 189
VStem: 221 68<728.5 760 728.5 776> 279 188 396 68<728.5 760>
AnchorPoint: "Anchor-6" 673 0 basechar 0
AnchorPoint: "Anchor-5" 373 1071 basechar 0
AnchorPoint: "Anchor-4" 320 0 basechar 0
LayerCount: 2
Fore
SplineSet
608 136 m 2xf0
 627 88 641 53 673 53 c 0
 685 53 686 48 686 40 c 2
 686 13 l 2
 686 4 682 0 673 0 c 2
 403 0 l 2
 395 0 390 4 390 13 c 2
 390 40 l 2
 390 48 391 53 403 53 c 0
 457 53 483 91 467 136 c 2xe8
 440.280273438 211 l 1
 198.790039062 211 l 1
 172 136 l 2
 157 95 184 53 238 53 c 0
 250 53 251 48 251 40 c 2
 251 13 l 2
 251 4 246 0 238 0 c 2
 18 0 l 2
 10 0 5 4 5 13 c 2
 5 40 l 2
 5 48 6 53 18 53 c 0
 54 53 68 91 84 136 c 2
 274 649 l 1
 274.200195312 649.66015625 l 1
 241.959960938 670.16015625 221 704.75 221 744 c 0
 221 808 275 859 343 859 c 0
 410 859 464 808 464 744 c 0xf4
 464 704.330078125 442.58984375 669.419921875 410 649 c 1
 608 136 l 2xf0
289 744 m 0xf0
 289 713 310 692 343 692 c 0
 375 692 396 713 396 744 c 0xf4
 396 776 375 797 343 797 c 0
 310 797 289 776 289 744 c 0xf0
279 901 m 1xe8
 335 972 350 1002 373 1059 c 0
 378 1070 394 1071 406 1071 c 0
 439 1071 467 1057 467 1026 c 0
 467 960 391 911 336 887 c 0
 331 885 326 882.379882812 321.080078125 882.379882812 c 0
 318 882.379882812 315.240234375 883.4296875 312 885 c 2
 279 901 l 1xe8
225.620117188 288 m 1
 412.16015625 288 l 1
 317.129882812 544.73046875 l 1
 225.620117188 288 l 1
EndSplineSet
Substitution2: "'c2sc' Capitals to Small Capitals in Latin lookup 11 subtable" Aringacute.sc
AlternateSubs2: "'aalt' Access All Alternates in Latin lookup 0 subtable" Aringacute.sc
Position2: "'cpsp' Capital Spacing in Latin lookup 0 subtable" dx=5 dy=0 dh=10 dv=0
EndChar

StartChar: Atilde
Encoding: 195 195 29
Width: 692
GlyphClass: 2
Flags: MW
HStem: 640 20G<289 395 395 398.5> 712 76<394 405 394 431> 796 75<278 289>
VStem: 187 80<769 779.5 769 807> 415 80<803 814>
AnchorPoint: "Anchor-6" 673 0 basechar 0
AnchorPoint: "Anchor-5" 341 845 basechar 0
AnchorPoint: "Anchor-4" 320 0 basechar 0
LayerCount: 2
Fore
SplineSet
608 136 m 2
 627 88 641 53 673 53 c 0
 685 53 686 48 686 40 c 2
 686 13 l 2
 686 4 682 0 673 0 c 2
 403 0 l 2
 395 0 390 4 390 13 c 2
 390 40 l 2
 390 48 391 53 403 53 c 0
 457 53 483 91 467 136 c 2
 440.280273438 211 l 1
 198.790039062 211 l 1
 172 136 l 2
 157 95 184 53 238 53 c 0
 250 53 251 48 251 40 c 2
 251 13 l 2
 251 4 246 0 238 0 c 2
 18 0 l 2
 10 0 5 4 5 13 c 2
 5 40 l 2
 5 48 6 53 18 53 c 0
 54 53 68 91 84 136 c 2
 274 649 l 2
 276 656 281 660 289 660 c 2
 395 660 l 2
 402 660 407 656 410 649 c 2
 608 136 l 2
370 812 m 0
 381 795 389 788 399 788 c 0
 411 788 415 798 415 808 c 0
 415 820 412 832 402 845 c 1
 412 856 432 872 451 872 c 0
 466 872 495 840 495 804 c 0
 495 747 453 712 409 712 c 0
 348 712 326 747 312 771 c 0
 302 789 294 796 284 796 c 0
 272 796 267 784 267 775 c 0
 267 763 271 751 281 738 c 1
 271 727 251 711 231 711 c 0
 216 711 187 744 187 778 c 0
 187 836 230 871 274 871 c 0
 334 871 357 834 370 812 c 0
225.620117188 288 m 1
 412.16015625 288 l 1
 317.129882812 544.73046875 l 1
 225.620117188 288 l 1
EndSplineSet
Substitution2: "'c2sc' Capitals to Small Capitals in Latin lookup 11 subtable" Atilde.sc
AlternateSubs2: "'aalt' Access All Alternates in Latin lookup 0 subtable" Atilde.sc
Position2: "'cpsp' Capital Spacing in Latin lookup 0 subtable" dx=5 dy=0 dh=10 dv=0
EndChar

StartChar: AE
Encoding: 198 198 30
Width: 1026
GlyphClass: 2
Flags: MW
HStem: -12 21G<911.47 914.97> 0 57 0 60 0 62 210 77 320 71 598 62 606 54 651 20G
VStem: 5 197 467 139.98 767.98 52
AnchorPoint: "Anchor-6" 883 0 basechar 0
AnchorPoint: "Anchor-5" 646 660 basechar 0
AnchorPoint: "Anchor-4" 691 0 basechar 0
LayerCount: 2
Fore
SplineSet
912.969726562 -12 m 0x8e30
 909.969726562 -12 907.189453125 -11.8486328125 904.939453125 -9.0390625 c 2
 900.939453125 -4.0390625 l 2
 897.829101562 -0.138671875 893.94921875 -0.048828125 882.94921875 -0.048828125 c 2
 402.979492188 -0.048828125 l 2
 394.979492188 -0.048828125 389.979492188 3.951171875 389.979492188 12.951171875 c 2x1e30
 389.979492188 46.951171875 l 2
 389.979492188 54.951171875 392.979492188 59.951171875 402.979492188 59.951171875 c 0
 437.979492188 59.951171875 466.979492188 85.951171875 466.979492188 135.951171875 c 2x2e30
 466.979492188 209.951171875 l 1
 257.979492188 209.951171875 l 1
 216.979492188 135.951171875 l 2
 193.939453125 96.791015625 193.359375 56.9609375 237.989257812 56.9609375 c 0
 250.989257812 56.9609375 250.989257812 51.9609375 250.989257812 43.9609375 c 2x4e70
 250.989257812 12.9609375 l 2
 250.989257812 3.9609375 245.989257812 -0.0390625 237.989257812 -0.0390625 c 2
 18.9892578125 -0.0390625 l 2
 9.9892578125 -0.0390625 4.9892578125 3.9609375 4.9892578125 12.9609375 c 2x1e70
 4.9892578125 43.9609375 l 2
 4.9892578125 51.9609375 7.9892578125 56.9609375 18.9892578125 56.9609375 c 0
 68.9892578125 56.9609375 103.989257812 93.9609375 128.989257812 135.9609375 c 2
 368.989257812 552.9609375 l 2
 391.338867188 592.090820312 387.05859375 605.951171875 341.98828125 605.951171875 c 0
 332.98828125 605.951171875 327.98828125 611.951171875 327.98828125 619.951171875 c 2x4d70
 327.98828125 645.951171875 l 2
 327.98828125 654.951171875 332.98828125 659.951171875 341.98828125 659.951171875 c 2
 841.958007812 659.951171875 l 2x1e30
 850.958007812 659.951171875 855.41796875 660.401367188 858.948242188 663.94140625 c 2
 863.948242188 668.94140625 l 2
 865.948242188 670.94140625 868.948242188 670.94140625 871.948242188 670.94140625 c 0
 875.948242188 670.94140625 880.018554688 668.981445312 882.938476562 663.951171875 c 2x1cb0
 951.938476562 544.951171875 l 2
 953.748046875 541.831054688 954.927734375 538.9609375 954.927734375 536.9609375 c 0
 954.927734375 531.9609375 952.328125 528.350585938 947.938476562 525.970703125 c 2
 912.938476562 506.970703125 l 2
 907.818359375 504.190429688 905.948242188 502.98046875 902.948242188 502.98046875 c 0
 898.948242188 502.98046875 895.728515625 506.350585938 892.958984375 510.970703125 c 2
 889.958984375 515.970703125 l 2
 853.958984375 575.970703125 816.958984375 597.970703125 748.958984375 597.970703125 c 2
 606.958984375 597.970703125 l 1
 606.958984375 390.970703125 l 1
 683.958984375 390.970703125 l 2
 736.958984375 390.970703125 767.958984375 410.970703125 767.958984375 449.970703125 c 2
 767.958984375 455.970703125 l 2
 767.958984375 464.970703125 771.958984375 468.970703125 780.958984375 468.970703125 c 2
 806.958984375 468.970703125 l 2
 815.958984375 468.970703125 819.958984375 464.970703125 819.958984375 455.970703125 c 2
 819.958984375 255.970703125 l 2
 819.958984375 246.970703125 815.958984375 242.970703125 806.958984375 242.970703125 c 2
 780.958984375 242.970703125 l 2
 771.958984375 242.970703125 767.958984375 246.970703125 767.958984375 255.970703125 c 2
 767.958984375 260.970703125 l 2
 767.958984375 300.970703125 737.958984375 319.970703125 683.958984375 319.970703125 c 2
 606.958984375 319.970703125 l 1
 606.958984375 145.970703125 l 2
 606.958984375 91.970703125 627.958984375 61.970703125 666.958984375 61.970703125 c 2
 724.958984375 61.970703125 l 2x1e30
 853.958984375 61.970703125 902.958984375 95.970703125 951.958984375 193.970703125 c 2
 954.958984375 199.970703125 l 2
 957.958984375 205.970703125 965.958984375 208.970703125 972.958984375 204.970703125 c 2
 1000.95898438 188.970703125 l 2
 1009.89941406 183.860351562 1010.01953125 178.5 1005.95996094 169.990234375 c 2
 922.959960938 -4.009765625 l 2
 920.25 -9.7099609375 916.969726562 -12 912.969726562 -12 c 0x8e30
300.969726562 286.971679688 m 1x1e30
 466.969726562 286.971679688 l 1
 466.969726562 581.971679688 l 1
 300.969726562 286.971679688 l 1x1e30
EndSplineSet
Substitution2: "'c2sc' Capitals to Small Capitals in Latin lookup 11 subtable" AE.sc
AlternateSubs2: "'aalt' Access All Alternates in Latin lookup 0 subtable" AE.sc
Position2: "'cpsp' Capital Spacing in Latin lookup 0 subtable" dx=5 dy=0 dh=10 dv=0
EndChar

StartChar: AEacute
Encoding: 508 508 31
Width: 1026
GlyphClass: 2
Flags: MW
HStem: -12 21G<911.47 914.97> 0 57 0 60 0 62 210 77 320 71 598 62 606 54 651 20G
VStem: 5 197 467 139.98 767.98 52
AnchorPoint: "Anchor-6" 883 0 basechar 0
AnchorPoint: "Anchor-5" 678 899 basechar 0
AnchorPoint: "Anchor-4" 691 0 basechar 0
LayerCount: 2
Fore
SplineSet
912.969726562 -12 m 0x8e30
 909.969726562 -12 907.189453125 -11.8486328125 904.939453125 -9.0390625 c 2
 900.939453125 -4.0390625 l 2
 897.829101562 -0.138671875 893.94921875 -0.048828125 882.94921875 -0.048828125 c 2
 402.979492188 -0.048828125 l 2
 394.979492188 -0.048828125 389.979492188 3.951171875 389.979492188 12.951171875 c 2x1e30
 389.979492188 46.951171875 l 2
 389.979492188 54.951171875 392.979492188 59.951171875 402.979492188 59.951171875 c 0
 437.979492188 59.951171875 466.979492188 85.951171875 466.979492188 135.951171875 c 2x2e30
 466.979492188 209.951171875 l 1
 257.979492188 209.951171875 l 1
 216.979492188 135.951171875 l 2
 193.939453125 96.791015625 193.359375 56.9609375 237.989257812 56.9609375 c 0
 250.989257812 56.9609375 250.989257812 51.9609375 250.989257812 43.9609375 c 2x4e70
 250.989257812 12.9609375 l 2
 250.989257812 3.9609375 245.989257812 -0.0390625 237.989257812 -0.0390625 c 2
 18.9892578125 -0.0390625 l 2
 9.9892578125 -0.0390625 4.9892578125 3.9609375 4.9892578125 12.9609375 c 2x1e70
 4.9892578125 43.9609375 l 2
 4.9892578125 51.9609375 7.9892578125 56.9609375 18.9892578125 56.9609375 c 0
 68.9892578125 56.9609375 103.989257812 93.9609375 128.989257812 135.9609375 c 2
 368.989257812 552.9609375 l 2
 391.338867188 592.090820312 387.05859375 605.951171875 341.98828125 605.951171875 c 0
 332.98828125 605.951171875 327.98828125 611.951171875 327.98828125 619.951171875 c 2x4d70
 327.98828125 645.951171875 l 2
 327.98828125 654.951171875 332.98828125 659.951171875 341.98828125 659.951171875 c 2
 841.958007812 659.951171875 l 2x1e30
 850.958007812 659.951171875 855.41796875 660.401367188 858.948242188 663.94140625 c 2
 863.948242188 668.94140625 l 2
 865.948242188 670.94140625 868.948242188 670.94140625 871.948242188 670.94140625 c 0
 875.948242188 670.94140625 880.018554688 668.981445312 882.938476562 663.951171875 c 2x1cb0
 951.938476562 544.951171875 l 2
 953.748046875 541.831054688 954.927734375 538.9609375 954.927734375 536.9609375 c 0
 954.927734375 531.9609375 952.328125 528.350585938 947.938476562 525.970703125 c 2
 912.938476562 506.970703125 l 2
 907.818359375 504.190429688 905.948242188 502.98046875 902.948242188 502.98046875 c 0
 898.948242188 502.98046875 895.728515625 506.350585938 892.958984375 510.970703125 c 2
 889.958984375 515.970703125 l 2
 853.958984375 575.970703125 816.958984375 597.970703125 748.958984375 597.970703125 c 2
 606.958984375 597.970703125 l 1
 606.958984375 390.970703125 l 1
 683.958984375 390.970703125 l 2
 736.958984375 390.970703125 767.958984375 410.970703125 767.958984375 449.970703125 c 2
 767.958984375 455.970703125 l 2
 767.958984375 464.970703125 771.958984375 468.970703125 780.958984375 468.970703125 c 2
 806.958984375 468.970703125 l 2
 815.958984375 468.970703125 819.958984375 464.970703125 819.958984375 455.970703125 c 2
 819.958984375 255.970703125 l 2
 819.958984375 246.970703125 815.958984375 242.970703125 806.958984375 242.970703125 c 2
 780.958984375 242.970703125 l 2
 771.958984375 242.970703125 767.958984375 246.970703125 767.958984375 255.970703125 c 2
 767.958984375 260.970703125 l 2
 767.958984375 300.970703125 737.958984375 319.970703125 683.958984375 319.970703125 c 2
 606.958984375 319.970703125 l 1
 606.958984375 145.970703125 l 2
 606.958984375 91.970703125 627.958984375 61.970703125 666.958984375 61.970703125 c 2
 724.958984375 61.970703125 l 2x1e30
 853.958984375 61.970703125 902.958984375 95.970703125 951.958984375 193.970703125 c 2
 954.958984375 199.970703125 l 2
 957.958984375 205.970703125 965.958984375 208.970703125 972.958984375 204.970703125 c 2
 1000.95898438 188.970703125 l 2
 1009.89941406 183.860351562 1010.01953125 178.5 1005.95996094 169.990234375 c 2
 922.959960938 -4.009765625 l 2
 920.25 -9.7099609375 916.969726562 -12 912.969726562 -12 c 0x8e30
300.969726562 286.971679688 m 1x1e30
 466.969726562 286.971679688 l 1
 466.969726562 581.971679688 l 1
 300.969726562 286.971679688 l 1x1e30
583.969726562 728.971679688 m 1
 639.969726562 799.971679688 654.950195312 829.971679688 677.950195312 886.971679688 c 0
 682.950195312 897.971679688 698.950195312 898.971679688 710.950195312 898.971679688 c 0
 743.950195312 898.971679688 771.950195312 884.971679688 771.950195312 853.971679688 c 0
 771.950195312 787.971679688 695.950195312 738.971679688 640.950195312 714.971679688 c 0
 635.950195312 712.971679688 630.950195312 710.3515625 626.030273438 710.3515625 c 0
 622.959960938 710.3515625 620.200195312 711.401367188 616.969726562 712.971679688 c 2
 583.969726562 728.971679688 l 1
EndSplineSet
Substitution2: "'c2sc' Capitals to Small Capitals in Latin lookup 11 subtable" AEacute.sc
AlternateSubs2: "'aalt' Access All Alternates in Latin lookup 0 subtable" AEacute.sc
Position2: "'cpsp' Capital Spacing in Latin lookup 0 subtable" dx=5 dy=0 dh=10 dv=0
EndChar

StartChar: B
Encoding: 66 66 32
Width: 633
GlyphClass: 2
Flags: MW
HStem: 0 53<35.5 40 40 61.5 303 325 325 363> 332 62 607 53<40 61.5>
VStem: 105 140<136 331.99 393.99 524 524 551.5> 408 132<475.5 534.49> 466 132<149.99 238 137 240.49>
AnchorPoint: "Anchor-5" 317 660 basechar 0
AnchorPoint: "Anchor-4" 317 0 basechar 0
LayerCount: 2
Fore
SplineSet
40 0 m 2xf4
 31 0 26 4 26 13 c 2
 26 40 l 2
 26 48 31 53 40 53 c 0
 83 53 105 81 105 136 c 2
 105 524 l 2
 105 579 83 607 40 607 c 0
 31 607 26 612 26 620 c 2
 26 647 l 2
 26 656 31 660 40 660 c 2
 323 660 l 2
 445 660 540 590 540 501 c 0xf8
 540 450 509 407 451 378 c 1
 543 351 598 282 598 194 c 0
 598 80 501 0 363 0 c 2
 40 0 l 2xf4
325 53 m 2
 414 53 466 105.990234375 466 193.990234375 c 0
 466 286.990234375 410 331.990234375 296 331.990234375 c 2
 245 331.990234375 l 1
 245 126.41015625 l 2
 245 73.41015625 265 53 303 53 c 2
 325 53 l 2
295 393.990234375 m 2xf8
 367 393.990234375 408 433.990234375 408 500.990234375 c 0
 408 567.990234375 368 606.990234375 298 606.990234375 c 2
 245 606.990234375 l 1
 245 393.990234375 l 1
 295 393.990234375 l 2xf8
EndSplineSet
Substitution2: "'ss04' Style Set 4 in Latin lookup 33 subtable" u1F151
Substitution2: "'ss03' Style Set 3 in Latin lookup 31 subtable" uni24B7
Substitution2: "'c2sc' Capitals to Small Capitals in Latin lookup 11 subtable" B.sc
AlternateSubs2: "'aalt' Access All Alternates in Latin lookup 0 subtable" B.sc uni24B7 u1F151
Position2: "'cpsp' Capital Spacing in Latin lookup 0 subtable" dx=5 dy=0 dh=10 dv=0
EndChar

StartChar: uni1E04
Encoding: 7684 7684 33
Width: 633
GlyphClass: 2
Flags: MW
HStem: -209.01 159.83 0 53<35.5 40 40 61.5 303 325 325 363> 332 62 607 53<40 61.5>
VStem: 105 140<136 331.99 393.99 524 524 551.5> 236.98 161.04 408 132 466 132
AnchorPoint: "Anchor-5" 317 660 basechar 0
AnchorPoint: "Anchor-4" 317 0 basechar 0
LayerCount: 2
Fore
SplineSet
40 0 m 2x79
 31 0 26 4 26 13 c 2
 26 40 l 2
 26 48 31 53 40 53 c 0
 83 53 105 81 105 136 c 2
 105 524 l 2
 105 579 83 607 40 607 c 0
 31 607 26 612 26 620 c 2
 26 647 l 2
 26 656 31 660 40 660 c 2
 323 660 l 2
 445 660 540 590 540 501 c 0x7a
 540 450 509 407 451 378 c 1
 543 351 598 282 598 194 c 0
 598 80 501 0 363 0 c 2
 40 0 l 2x79
325 53 m 2
 414 53 466 105.990234375 466 193.990234375 c 0
 466 286.990234375 410 331.990234375 296 331.990234375 c 2
 245 331.990234375 l 1
 245 126.41015625 l 2
 245 73.41015625 265 53 303 53 c 2
 325 53 l 2
295 393.990234375 m 2x7a
 367 393.990234375 408 433.990234375 408 500.990234375 c 0
 408 567.990234375 368 606.990234375 298 606.990234375 c 2
 245 606.990234375 l 1
 245 393.990234375 l 1
 295 393.990234375 l 2x7a
316.879882812 -49.189453125 m 0xf5
 336.259765625 -49.189453125 351.98828125 -56.44921875 371.358398438 -75.8193359375 c 0
 390.728515625 -95.189453125 397.98828125 -109.708984375 397.98828125 -129.088867188 c 0
 397.98828125 -148.44921875 389.518554688 -164.189453125 371.358398438 -182.349609375 c 0
 351.98828125 -201.719726562 336.258789062 -208.979492188 316.87890625 -208.979492188 c 0
 298.71875 -208.979492188 284.19921875 -201.719726562 263.619140625 -182.349609375 c 0
 244.249023438 -164.189453125 236.989257812 -148.44921875 236.989257812 -129.088867188 c 0
 236.989257812 -109.708984375 244.249023438 -95.189453125 263.619140625 -75.8193359375 c 0
 282.989257812 -56.44921875 298.719726562 -49.189453125 316.879882812 -49.189453125 c 0xf5
EndSplineSet
Substitution2: "'c2sc' Capitals to Small Capitals in Latin lookup 11 subtable" uni1E04.sc
AlternateSubs2: "'aalt' Access All Alternates in Latin lookup 0 subtable" uni1E04.sc
Position2: "'cpsp' Capital Spacing in Latin lookup 0 subtable" dx=5 dy=0 dh=10 dv=0
EndChar

StartChar: C
Encoding: 67 67 34
Width: 659
GlyphClass: 2
Flags: MW
HStem: -11 85<306.5 437 306.5 443> 601 70<285.5 398.5>
VStem: 31 150<276.5 396.5> 478 147<475 496.5>
AnchorPoint: "Anchor-5" 353 660 basechar 0
AnchorPoint: "Anchor-4" 358 0 basechar 0
LayerCount: 2
Fore
SplineSet
642 211 m 2
 653 206 658 203 653 193 c 0
 615 101 528 -11 358 -11 c 0
 147 -11 31 134 31 323 c 0
 31 470 102 671 356 671 c 0
 566 671 625 519 625 480 c 0
 625 470 620 466 610 463 c 2
 496 423 l 2
 484 419 476 419 476 430 c 0
 476 440 478 453 478 471 c 0
 478 522 449 601 348 601 c 0
 223 601 181 460 181 362 c 0
 181 191 241 74 372 74 c 0
 502 74 557 154 585 217 c 0
 592 231 598 232 612 225 c 2
 642 211 l 2
EndSplineSet
Substitution2: "'ss04' Style Set 4 in Latin lookup 33 subtable" u1F152
Substitution2: "'ss03' Style Set 3 in Latin lookup 31 subtable" uni24B8
Substitution2: "'c2sc' Capitals to Small Capitals in Latin lookup 11 subtable" C.sc
AlternateSubs2: "'aalt' Access All Alternates in Latin lookup 0 subtable" C.sc uni24B8 u1F152
Position2: "'cpsp' Capital Spacing in Latin lookup 0 subtable" dx=5 dy=0 dh=10 dv=0
EndChar

StartChar: Cacute
Encoding: 262 262 35
Width: 659
GlyphClass: 2
Flags: MW
HStem: -11 85<306.5 437 306.5 443> 601 70<285.5 398.5>
VStem: 31 150<276.5 396.5> 478 147<475 496.5>
AnchorPoint: "Anchor-5" 385 899 basechar 0
AnchorPoint: "Anchor-4" 358 0 basechar 0
LayerCount: 2
Fore
SplineSet
642 211 m 2
 653 206 658 203 653 193 c 0
 615 101 528 -11 358 -11 c 0
 147 -11 31 134 31 323 c 0
 31 470 102 671 356 671 c 0
 566 671 625 519 625 480 c 0
 625 470 620 466 610 463 c 2
 496 423 l 2
 484 419 476 419 476 430 c 0
 476 440 478 453 478 471 c 0
 478 522 449 601 348 601 c 0
 223 601 181 460 181 362 c 0
 181 191 241 74 372 74 c 0
 502 74 557 154 585 217 c 0
 592 231 598 232 612 225 c 2
 642 211 l 2
291 729 m 1
 347 800 361.98046875 830 384.98046875 887 c 0
 389.98046875 898 405.98046875 899 417.98046875 899 c 0
 450.98046875 899 478.98046875 885 478.98046875 854 c 0
 478.98046875 788 402.98046875 739 347.98046875 715 c 0
 342.98046875 713 337.98046875 710.379882812 333.060546875 710.379882812 c 0
 329.990234375 710.379882812 327.23046875 711.4296875 324 713 c 2
 291 729 l 1
EndSplineSet
Substitution2: "'c2sc' Capitals to Small Capitals in Latin lookup 11 subtable" Cacute.sc
AlternateSubs2: "'aalt' Access All Alternates in Latin lookup 0 subtable" Cacute.sc
Position2: "'cpsp' Capital Spacing in Latin lookup 0 subtable" dx=5 dy=0 dh=10 dv=0
EndChar

StartChar: Ccaron
Encoding: 268 268 36
Width: 659
GlyphClass: 2
Flags: MW
HStem: -11 85<306.5 437 306.5 443> 601 70<285.5 398.5>
VStem: 31 150<276.5 396.5> 478 147<475 496.5>
AnchorPoint: "Anchor-5" 353 845 basechar 0
AnchorPoint: "Anchor-4" 358 0 basechar 0
LayerCount: 2
Fore
SplineSet
642 211 m 2
 653 206 658 203 653 193 c 0
 615 101 528 -11 358 -11 c 0
 147 -11 31 134 31 323 c 0
 31 470 102 671 356 671 c 0
 566 671 625 519 625 480 c 0
 625 470 620 466 610 463 c 2
 496 423 l 2
 484 419 476 419 476 430 c 0
 476 440 478 453 478 471 c 0
 478 522 449 601 348 601 c 0
 223 601 181 460 181 362 c 0
 181 191 241 74 372 74 c 0
 502 74 557 154 585 217 c 0
 592 231 598 232 612 225 c 2
 642 211 l 2
353 793 m 1
 379 842 423 897 480 897 c 0
 510 897 524 868 524 835 c 0
 524 820 523 807 512 802 c 0
 454 780 424 765 353 708 c 1
 282 765 252 780 194 802 c 0
 183 807 182 820 182 835 c 0
 182 868 196 897 226 897 c 0
 283 897 327 842 353 793 c 1
EndSplineSet
Substitution2: "'c2sc' Capitals to Small Capitals in Latin lookup 11 subtable" Ccaron.sc
AlternateSubs2: "'aalt' Access All Alternates in Latin lookup 0 subtable" Ccaron.sc
Position2: "'cpsp' Capital Spacing in Latin lookup 0 subtable" dx=5 dy=0 dh=10 dv=0
EndChar

StartChar: Ccedilla
Encoding: 199 199 37
Width: 659
GlyphClass: 2
Flags: MW
HStem: -6 21G
AnchorPoint: "Anchor-5" 353 660 basechar 0
AnchorPoint: "Anchor-4" 358 0 basechar 0
LayerCount: 2
Fore
SplineSet
642 211 m 2
 653 206 658.000976562 203 653.000976562 193 c 0
 615.80078125 102.940429688 531.640625 -6.2998046875 368.620117188 -10.849609375 c 1
 333 -53 l 1
 346 -48 360 -46 374 -46 c 0
 420 -46 473 -72 473 -135 c 0
 473 -187 427 -225 359 -225 c 0
 332 -225 302 -220 271 -207 c 0
 254 -200 253 -174 253 -157 c 0
 253 -151 255 -147 259 -147 c 0
 262 -147 265 -148 267 -149 c 0
 288 -156 317 -163 342 -163 c 0
 366 -163 384 -156 384 -135 c 0
 384 -105 356 -93 317 -93 c 0
 299 -93 282 -96 266 -96 c 0
 261 -96 258 -93 258 -89 c 0
 258 -86 258 -84 260 -81 c 2
 303.889648438 -7.6201171875 l 1
 127.25 15.1796875 31 150.83984375 31 323 c 0
 31 470 102 671 356 671 c 0
 566 671 625 519 625 480 c 0
 625 470 620 466 610 463 c 2
 496 423 l 2
 484 419 476 419 476 430 c 0
 476 440 478 453 478 471 c 0
 478 522 449 601 348 601 c 0
 223 601 181 460 181 362 c 0
 181 191 241 74 372 74 c 0
 502 74 557 154 585 217 c 0
 592 231 598 232 612 225 c 2
 642 211 l 2
EndSplineSet
Substitution2: "'c2sc' Capitals to Small Capitals in Latin lookup 11 subtable" Ccedilla.sc
AlternateSubs2: "'aalt' Access All Alternates in Latin lookup 0 subtable" Ccedilla.sc
Position2: "'cpsp' Capital Spacing in Latin lookup 0 subtable" dx=5 dy=0 dh=10 dv=0
EndChar

StartChar: uni1E08
Encoding: 7688 7688 38
Width: 659
GlyphClass: 2
Flags: MW
HStem: -225 62 -93 47 -7.62001 21G -7.61 81.62 601 70
VStem: 31 150<276.5 396.5> 384 89 478 147<475 496.5>
AnchorPoint: "Anchor-5" 385 899 basechar 0
AnchorPoint: "Anchor-4" 358 0 basechar 0
LayerCount: 2
Fore
SplineSet
642 211 m 2xee
 653 206 657.970703125 203 652.970703125 193 c 0
 615.770507812 102.940429688 531.610351562 -6.2900390625 368.600585938 -10.83984375 c 1
 332.990234375 -52.990234375 l 1
 345.990234375 -47.990234375 359.990234375 -45.990234375 373.990234375 -45.990234375 c 0
 419.990234375 -45.990234375 472.990234375 -71.990234375 472.990234375 -134.990234375 c 0
 472.990234375 -186.990234375 426.990234375 -224.990234375 358.990234375 -224.990234375 c 0
 331.990234375 -224.990234375 301.990234375 -219.990234375 270.990234375 -206.990234375 c 0
 253.990234375 -199.990234375 252.990234375 -173.990234375 252.990234375 -156.990234375 c 0
 252.990234375 -150.990234375 254.990234375 -146.990234375 258.990234375 -146.990234375 c 0
 261.990234375 -146.990234375 264.990234375 -147.990234375 266.990234375 -148.990234375 c 0
 287.990234375 -155.990234375 316.990234375 -162.990234375 341.990234375 -162.990234375 c 0
 365.990234375 -162.990234375 383.990234375 -155.990234375 383.990234375 -134.990234375 c 0
 383.990234375 -104.990234375 355.990234375 -92.990234375 316.990234375 -92.990234375 c 0xee
 298.990234375 -92.990234375 281.990234375 -95.990234375 265.990234375 -95.990234375 c 0
 260.990234375 -95.990234375 257.990234375 -92.990234375 257.990234375 -88.990234375 c 0
 257.990234375 -85.990234375 257.990234375 -83.990234375 259.990234375 -80.990234375 c 2
 303.870117188 -7.6103515625 l 1
 127.25 15.1796875 31 150.83984375 31 323 c 0
 31 470 102 671 356 671 c 0
 566 671 625 519 625 480 c 0
 625 470 620 466 610 463 c 2
 496 423 l 2
 484 419 476 419 476 430 c 0
 476 440 478 453 478 471 c 0
 478 522 449 601 348 601 c 0
 223 601 181 460 181 362 c 0
 181 191 241 74 372 74 c 0xdd
 502 74 557 154 585 217 c 0
 592 231 598 232 612 225 c 2
 642 211 l 2xee
290.970703125 729 m 1
 346.970703125 800 361.951171875 830 384.951171875 887 c 0
 389.951171875 898 405.951171875 899 417.951171875 899 c 0
 450.951171875 899 478.951171875 885 478.951171875 854 c 0
 478.951171875 788 402.951171875 739 347.951171875 715 c 0
 342.951171875 713 337.951171875 710.379882812 333.03125 710.379882812 c 0
 329.9609375 710.379882812 327.201171875 711.4296875 323.970703125 713 c 2
 290.970703125 729 l 1
EndSplineSet
Substitution2: "'c2sc' Capitals to Small Capitals in Latin lookup 11 subtable" uni1E08.sc
AlternateSubs2: "'aalt' Access All Alternates in Latin lookup 0 subtable" uni1E08.sc
Position2: "'cpsp' Capital Spacing in Latin lookup 0 subtable" dx=5 dy=0 dh=10 dv=0
EndChar

StartChar: Ccircumflex
Encoding: 264 264 39
Width: 659
GlyphClass: 2
Flags: MW
HStem: -11 85<306.5 437 306.5 443> 601 70<285.5 398.5>
VStem: 31 150<276.5 396.5> 478 147<475 496.5>
AnchorPoint: "Anchor-7" 353 812 basechar 0
AnchorPoint: "Anchor-5" 353 867 basechar 0
AnchorPoint: "Anchor-4" 358 0 basechar 0
LayerCount: 2
Fore
SplineSet
642 211 m 2
 653 206 658 203 653 193 c 0
 615 101 528 -11 358 -11 c 0
 147 -11 31 134 31 323 c 0
 31 470 102 671 356 671 c 0
 566 671 625 519 625 480 c 0
 625 470 620 466 610 463 c 2
 496 423 l 2
 484 419 476 419 476 430 c 0
 476 440 478 453 478 471 c 0
 478 522 449 601 348 601 c 0
 223 601 181 460 181 362 c 0
 181 191 241 74 372 74 c 0
 502 74 557 154 585 217 c 0
 592 231 598 232 612 225 c 2
 642 211 l 2
353 812 m 1
 327 763 283 708 226 708 c 0
 196 708 182 737 182 770 c 0
 182 785 183 798 194 803 c 0
 252 825 282 840 353 897 c 1
 424 840 454 825 512 803 c 0
 523 798 524 785 524 770 c 0
 524 737 510 708 480 708 c 0
 423 708 379 763 353 812 c 1
EndSplineSet
Substitution2: "'c2sc' Capitals to Small Capitals in Latin lookup 11 subtable" Ccircumflex.sc
AlternateSubs2: "'aalt' Access All Alternates in Latin lookup 0 subtable" Ccircumflex.sc
Position2: "'cpsp' Capital Spacing in Latin lookup 0 subtable" dx=5 dy=0 dh=10 dv=0
EndChar

StartChar: Cdotaccent
Encoding: 266 266 40
Width: 659
GlyphClass: 2
Flags: MW
HStem: -11 85<306.5 437 306.5 443> 601 70<285.5 398.5> 705.08 159.84
VStem: 31 150<276.5 396.5> 272.98 161.04 478 147
AnchorPoint: "Anchor-5" 353 845 basechar 0
AnchorPoint: "Anchor-4" 358 0 basechar 0
LayerCount: 2
Fore
SplineSet
642 211 m 2
 653 206 658 203 653 193 c 0
 615 101 528 -11 358 -11 c 0
 147 -11 31 134 31 323 c 0
 31 470 102 671 356 671 c 0
 566 671 625 519 625 480 c 0
 625 470 620 466 610 463 c 2
 496 423 l 2
 484 419 476 419 476 430 c 0
 476 440 478 453 478 471 c 0
 478 522 449 601 348 601 c 0
 223 601 181 460 181 362 c 0
 181 191 241 74 372 74 c 0
 502 74 557 154 585 217 c 0
 592 231 598 232 612 225 c 2
 642 211 l 2
352.900390625 864.91015625 m 0
 372.270507812 864.91015625 388.000976562 857.650390625 407.37109375 838.280273438 c 0
 426.741210938 818.91015625 434.000976562 804.379882812 434.000976562 785.01953125 c 0
 434.000976562 765.649414062 425.53125 749.909179688 407.37109375 731.749023438 c 0
 388.000976562 712.37890625 372.270507812 705.119140625 352.900390625 705.119140625 c 0
 334.73046875 705.119140625 320.209960938 712.37890625 299.629882812 731.749023438 c 0
 280.259765625 749.909179688 273 765.649414062 273 785.01953125 c 0
 273 804.379882812 280.259765625 818.91015625 299.629882812 838.280273438 c 0
 319 857.650390625 334.73046875 864.91015625 352.900390625 864.91015625 c 0
EndSplineSet
Substitution2: "'c2sc' Capitals to Small Capitals in Latin lookup 11 subtable" Cdotaccent.sc
AlternateSubs2: "'aalt' Access All Alternates in Latin lookup 0 subtable" Cdotaccent.sc
Position2: "'cpsp' Capital Spacing in Latin lookup 0 subtable" dx=5 dy=0 dh=10 dv=0
EndChar

StartChar: D
Encoding: 68 68 41
Width: 695
GlyphClass: 2
Flags: MW
HStem: 0 53<35.5 46 40 46 46 65 40 335> 0 57<281.5 335> 607 53<40 61.5 245 245 245 286>
VStem: 105 140<136 524 524 551.5> 531 133<235.5 416>
AnchorPoint: "Anchor-5" 309 660 basechar 0
AnchorPoint: "Anchor-4" 321 0 basechar 0
LayerCount: 2
Fore
SplineSet
311 660 m 2x78
 521 660 664 535 664 331 c 0
 664 121 536 0 335 0 c 2
 40 0 l 2
 31 0 26 4 26 13 c 2x78
 26 40 l 2
 26 48 31 53 40 53 c 2
 46 53 l 2
 84 53 105 84 105 136 c 2xb8
 105 524 l 2
 105 579 83 607 40 607 c 0
 31 607 26 612 26 620 c 2
 26 647 l 2
 26 656 31 660 40 660 c 2
 311 660 l 2x78
245 132 m 2
 245 86 253 57 310 57 c 0
 450 57 531 140 531 331 c 0
 531 501 452 607 286 607 c 2
 245 607 l 1
 245 132 l 2
EndSplineSet
Substitution2: "'ss04' Style Set 4 in Latin lookup 33 subtable" u1F153
Substitution2: "'ss03' Style Set 3 in Latin lookup 31 subtable" uni24B9
Substitution2: "'c2sc' Capitals to Small Capitals in Latin lookup 11 subtable" D.sc
AlternateSubs2: "'aalt' Access All Alternates in Latin lookup 0 subtable" D.sc uni24B9 u1F153
Position2: "'cpsp' Capital Spacing in Latin lookup 0 subtable" dx=5 dy=0 dh=10 dv=0
EndChar

StartChar: uni01C4
Encoding: 452 452 42
Width: 1342
GlyphClass: 2
Flags: MW
HStem: -12 21G 0 53<35.5 46 40 46 46 65 40 335> 0 57<281.5 335> 607 53<40 61.5 245 245 245 286> 708 189
VStem: 105 140<136 524 524 551.5> 531 133<235.5 416> 883 342<827.5 851.5>
AnchorPoint: "Anchor-5" 1054 845 basechar 0
AnchorPoint: "Anchor-4" 986 0 basechar 0
LayerCount: 2
Fore
SplineSet
311 660 m 2x9f
 521 660 664 535 664 331 c 0
 664 121 536 0 335 0 c 2
 40 0 l 2
 31 0 26 4 26 13 c 2
 26 40 l 2
 26 48 31 53 40 53 c 2
 46 53 l 2x5f
 84 53 105 84 105 136 c 2
 105 524 l 2
 105 579 83 607 40 607 c 0
 31 607 26 612 26 620 c 2
 26 647 l 2
 26 656 31 660 40 660 c 2
 311 660 l 2x9f
245 132 m 2
 245 86 253 57 310 57 c 0x3f
 450 57 531 140 531 331 c 0
 531 501 452 607 286 607 c 2
 245 607 l 1
 245 132 l 2
1318 151 m 2
 1324 148 1325 144 1325 141 c 0
 1325 138 1324 136 1322 133 c 2
 1252 -4 l 2
 1249 -9 1246 -11 1241 -11 c 0x9f
 1239 -11 1236 -11 1233 -9 c 2
 1229 -4 l 2
 1225 0 1218 0 1212 0 c 2
 712 0 l 2x5f
 704 0 699 4 699 13 c 2
 699 62 l 2
 699 68 702 74 705 79 c 2
 1101 589 l 1
 952 589 l 2
 872 589 836 549 794 498 c 2
 791 494 l 2
 787 489 784 486 780 486 c 0
 778 486 775 487 772 488 c 2
 735 509 l 2
 731 511 728 515 728 519 c 0
 728 522 729 524 731 527 c 2
 800 664 l 2
 803 670 807 671 812 671 c 0
 815 671 817 671 824 664 c 0
 829 660 835 660 841 660 c 2
 1312 660 l 2
 1316 660 1317 658 1317 656 c 2
 1317 651 l 2
 1317 648 1314 644 1312 641 c 2
 880 80 l 1
 998 80 l 2
 1162 80 1223 106 1259 161 c 2
 1262 166 l 2
 1265 171 1269 174 1273 174 c 0
 1276 174 1278 173 1281 172 c 2
 1318 151 l 2
1054 793 m 1
 1080 842 1124 897 1181 897 c 0
 1211 897 1225 868 1225 835 c 0
 1225 820 1224 807 1213 802 c 0
 1155 780 1125 765 1054 708 c 1
 983 765 953 780 895 802 c 0
 884 807 883 820 883 835 c 0
 883 868 897 897 927 897 c 0
 984 897 1028 842 1054 793 c 1
EndSplineSet
Substitution2: "'c2sc' Capitals to Small Capitals in Latin lookup 11 subtable" uni01C4.sc
AlternateSubs2: "'aalt' Access All Alternates in Latin lookup 0 subtable" uni01C4.sc
Position2: "'cpsp' Capital Spacing in Latin lookup 0 subtable" dx=5 dy=0 dh=10 dv=0
EndChar

StartChar: Dcaron
Encoding: 270 270 43
Width: 695
GlyphClass: 2
Flags: MW
HStem: 0 53<35.5 46 40 46 46 65 40 335> 0 57<281.5 335> 607 53<40 61.5 245 245 245 286>
VStem: 105 140<136 524 524 551.5> 531 133<235.5 416>
AnchorPoint: "Anchor-5" 309 845 basechar 0
AnchorPoint: "Anchor-4" 321 0 basechar 0
LayerCount: 2
Fore
SplineSet
311 660 m 2x78
 521 660 664 535 664 331 c 0
 664 121 536 0 335 0 c 2
 40 0 l 2
 31 0 26 4 26 13 c 2x78
 26 40 l 2
 26 48 31 53 40 53 c 2
 46 53 l 2
 84 53 105 84 105 136 c 2xb8
 105 524 l 2
 105 579 83 607 40 607 c 0
 31 607 26 612 26 620 c 2
 26 647 l 2
 26 656 31 660 40 660 c 2
 311 660 l 2x78
245 132 m 2
 245 86 253 57 310 57 c 0
 450 57 531 140 531 331 c 0
 531 501 452 607 286 607 c 2
 245 607 l 1
 245 132 l 2
309 793 m 1
 335 842 379 897 436 897 c 0
 466 897 480 868 480 835 c 0
 480 820 479 807 468 802 c 0
 410 780 380 765 309 708 c 1
 238 765 208 780 150 802 c 0
 139 807 138 820 138 835 c 0
 138 868 152 897 182 897 c 0
 239 897 283 842 309 793 c 1
EndSplineSet
Substitution2: "'c2sc' Capitals to Small Capitals in Latin lookup 11 subtable" Dcaron.sc
AlternateSubs2: "'aalt' Access All Alternates in Latin lookup 0 subtable" Dcaron.sc
Position2: "'cpsp' Capital Spacing in Latin lookup 0 subtable" dx=5 dy=0 dh=10 dv=0
EndChar

StartChar: Dcroat
Encoding: 272 272 44
Width: 695
GlyphClass: 2
Flags: MW
HStem: 0 53<35.5 46 40 46 46 65 40 335> 0 57<281.5 335> 267 103<35.5 105 40 105 245 411> 607 53<40 61.5 245 245 245 286>
VStem: 105 140<136 267 109 267 370 524 524 551.5> 531 133<235.5 416>
AnchorPoint: "Anchor-5" 309 660 basechar 0
AnchorPoint: "Anchor-4" 321 0 basechar 0
LayerCount: 2
Fore
SplineSet
40 267 m 2x7c
 31 267 26 272 26 280 c 2
 26 356 l 2
 26 365 31 370 40 370 c 2
 105 370 l 1
 105 524 l 2
 105 579 83 607 40 607 c 0
 31 607 26 612 26 620 c 2
 26 647 l 2
 26 656 31 660 40 660 c 2
 311 660 l 2
 521 660 664 535 664 331 c 0
 664 121 536 0 335 0 c 2
 40 0 l 2
 31 0 26 4 26 13 c 2x7c
 26 40 l 2
 26 48 31 53 40 53 c 2
 46 53 l 2
 84 53 105 84 105 136 c 2xbc
 105 267 l 1
 40 267 l 2x7c
245 132 m 2
 245 86 253 57 310 57 c 0
 450 57 531 140 531 331 c 0
 531 501 452 607 286 607 c 2
 245 607 l 1
 245 370 l 1
 411 370 l 2
 420 370 424 365 424 356 c 2
 424 280 l 2
 424 272 420 267 411 267 c 2
 245 267 l 1
 245 132 l 2
EndSplineSet
Substitution2: "'c2sc' Capitals to Small Capitals in Latin lookup 11 subtable" Dcroat.sc
AlternateSubs2: "'aalt' Access All Alternates in Latin lookup 0 subtable" Dcroat.sc
Position2: "'cpsp' Capital Spacing in Latin lookup 0 subtable" dx=5 dy=0 dh=10 dv=0
EndChar

StartChar: uni1E0C
Encoding: 7692 7692 45
Width: 695
GlyphClass: 2
Flags: MW
HStem: -209.01 159.83 0 53<35.5 46 40 46 46 65 40 335> 0 57<281.5 335> 607 53<40 61.5 245 245 245 286>
VStem: 105 140<136 524 524 551.5> 240.98 161.04 531 133
AnchorPoint: "Anchor-5" 309 660 basechar 0
AnchorPoint: "Anchor-4" 321 0 basechar 0
LayerCount: 2
Fore
SplineSet
311 660 m 2x3a
 521 660 664 535 664 331 c 0
 664 121 536 0 335 0 c 2
 40 0 l 2
 31 0 26 4 26 13 c 2x3a
 26 40 l 2
 26 48 31 53 40 53 c 2
 46 53 l 2
 84 53 105 84 105 136 c 2x5a
 105 524 l 2
 105 579 83 607 40 607 c 0
 31 607 26 612 26 620 c 2
 26 647 l 2
 26 656 31 660 40 660 c 2
 311 660 l 2x3a
245 132 m 2
 245 86 253 57 310 57 c 0
 450 57 531 140 531 331 c 0
 531 501 452 607 286 607 c 2
 245 607 l 1
 245 132 l 2
320.879882812 -49.1796875 m 0xb6
 340.259765625 -49.1796875 355.98828125 -56.439453125 375.358398438 -75.8095703125 c 0
 394.728515625 -95.1796875 401.98828125 -109.69921875 401.98828125 -129.079101562 c 0
 401.98828125 -148.439453125 393.518554688 -164.1796875 375.358398438 -182.33984375 c 0
 355.98828125 -201.709960938 340.258789062 -208.969726562 320.87890625 -208.969726562 c 0
 302.71875 -208.969726562 288.19921875 -201.709960938 267.619140625 -182.33984375 c 0
 248.249023438 -164.1796875 240.989257812 -148.439453125 240.989257812 -129.079101562 c 0
 240.989257812 -109.69921875 248.249023438 -95.1796875 267.619140625 -75.8095703125 c 0
 286.989257812 -56.439453125 302.719726562 -49.1796875 320.879882812 -49.1796875 c 0xb6
EndSplineSet
Substitution2: "'c2sc' Capitals to Small Capitals in Latin lookup 11 subtable" uni1E0C.sc
AlternateSubs2: "'aalt' Access All Alternates in Latin lookup 0 subtable" uni1E0C.sc
Position2: "'cpsp' Capital Spacing in Latin lookup 0 subtable" dx=5 dy=0 dh=10 dv=0
EndChar

StartChar: uni1E0E
Encoding: 7694 7694 46
Width: 695
GlyphClass: 2
Flags: MW
HStem: -153 79<198.5 439 203 439> 0 53<35.5 46 40 46 46 65 40 335> 0 57<281.5 335> 607 53<40 61.5 245 245 245 286>
VStem: 105 140<136 524 524 551.5> 531 133<235.5 416>
AnchorPoint: "Anchor-5" 309 660 basechar 0
AnchorPoint: "Anchor-4" 321 0 basechar 0
LayerCount: 2
Fore
SplineSet
311 660 m 2xbc
 521 660 664 535 664 331 c 0
 664 121 536 0 335 0 c 2
 40 0 l 2
 31 0 26 4 26 13 c 2xbc
 26 40 l 2
 26 48 31 53 40 53 c 2
 46 53 l 2
 84 53 105 84 105 136 c 2xdc
 105 524 l 2
 105 579 83 607 40 607 c 0
 31 607 26 612 26 620 c 2
 26 647 l 2
 26 656 31 660 40 660 c 2
 311 660 l 2xbc
245 132 m 2
 245 86 253 57 310 57 c 0
 450 57 531 140 531 331 c 0
 531 501 452 607 286 607 c 2
 245 607 l 1
 245 132 l 2
452 -140 m 2
 452 -148 448 -153 439 -153 c 2
 203 -153 l 2
 194 -153 190 -148 190 -140 c 2
 190 -87 l 2
 190 -78 194 -74 203 -74 c 2
 439 -74 l 2
 448 -74 452 -78 452 -87 c 2
 452 -140 l 2
EndSplineSet
Substitution2: "'c2sc' Capitals to Small Capitals in Latin lookup 11 subtable" uni1E0E.sc
AlternateSubs2: "'aalt' Access All Alternates in Latin lookup 0 subtable" uni1E0E.sc
Position2: "'cpsp' Capital Spacing in Latin lookup 0 subtable" dx=5 dy=0 dh=10 dv=0
EndChar

StartChar: uni01C5
Encoding: 453 453 47
Width: 1165
GlyphClass: 2
Flags: MW
HStem: -12 21G 0 53<35.5 46 40 46 46 65 40 335> 0 57<281.5 335> 431 20G 488 189 607 53<40 61.5 245 245 245 286>
VStem: 105 140<136 524 524 551.5> 531 133<235.5 416> 768 342<607.512 631.512>
AnchorPoint: "Anchor-5" 939 625 basechar 0
AnchorPoint: "Anchor-4" 920 0 basechar 0
LayerCount: 2
Fore
SplineSet
311 660 m 2x9780
 521 660 664 535 664 331 c 0
 664 121 536 0 335 0 c 2
 40 0 l 2x3780
 31 0 26 4 26 13 c 2
 26 40 l 2
 26 48 31 53 40 53 c 2
 46 53 l 2x5780
 84 53 105 84 105 136 c 2
 105 524 l 2
 105 579 83 607 40 607 c 0
 31 607 26 612 26 620 c 2
 26 647 l 2
 26 656 31 660 40 660 c 2
 311 660 l 2x9780
245 132 m 2
 245 86 253 57 310 57 c 0
 450 57 531 140 531 331 c 0
 531 501 452 607 286 607 c 2
 245 607 l 1
 245 132 l 2
1149 130 m 2
 1156.20996094 125.83984375 1158.20996094 119.201171875 1154 112.010742188 c 2
 1086 -3.9892578125 l 2
 1083.04980469 -9.01953125 1079 -10.9892578125 1075 -10.9892578125 c 0x9780
 1071 -10.9892578125 1071.12011719 -10.859375 1063 -3.9892578125 c 0
 1058.11035156 0.150390625 1053 0.0107421875 1047 0.0107421875 c 2
 708 0.0107421875 l 2
 699 0.0107421875 695 4.0107421875 695 13.0107421875 c 2
 695 51.0107421875 l 2
 695 55.0107421875 694.919921875 58.630859375 697 61.0107421875 c 2
 975 379.010742188 l 1
 890 379.010742188 l 2
 830 379.010742188 787.790039062 356.130859375 758 304.010742188 c 2
 754 297.010742188 l 2
 748.330078125 287.090820312 745.799804688 286.130859375 736 292.010742188 c 2
 706 310.010742188 l 2
 697.830078125 314.911132812 696.98046875 319.911132812 702 328.000976562 c 2
 774 444.000976562 l 2
 776.639648438 448.250976562 780 451.000976562 785 451.000976562 c 0
 788 451.000976562 789.799804688 450.821289062 796 444.000976562 c 0
 799.809570312 439.810546875 806 440.000976562 812 440.000976562 c 2
 1143.06054688 440.000976562 l 2
 1148.20996094 440.000976562 1149 437.130859375 1149 433.130859375 c 0
 1149 430.130859375 1147.75 427.23046875 1145 424 c 2
 836 61 l 1
 903 61 l 2
 964 61 1057.15039062 62.91015625 1101 136 c 2
 1104 141 l 2
 1111.56054688 153.599609375 1120.66015625 146.349609375 1123 145 c 2
 1149 130 l 2
939 573.01171875 m 1
 965 622.01171875 1009 677.01171875 1066 677.01171875 c 0
 1096 677.01171875 1110 648.01171875 1110 615.01171875 c 0
 1110 600.01171875 1109 587.01171875 1098 582.01171875 c 0
 1040 560.01171875 1010 545.01171875 939 488.01171875 c 1
 868 545.01171875 838 560.01171875 780 582.01171875 c 0
 769 587.01171875 768 600.01171875 768 615.01171875 c 0
 768 648.01171875 782 677.01171875 812 677.01171875 c 0x9b80
 869 677.01171875 913 622.01171875 939 573.01171875 c 1
EndSplineSet
Substitution2: "'c2sc' Capitals to Small Capitals in Latin lookup 11 subtable" uni01C5.sc
AlternateSubs2: "'aalt' Access All Alternates in Latin lookup 0 subtable" uni01C5.sc
Position2: "'cpsp' Capital Spacing in Latin lookup 0 subtable" dx=5 dy=0 dh=10 dv=0
EndChar

StartChar: Eth
Encoding: 208 208 48
Width: 695
GlyphClass: 2
Flags: MW
HStem: 0 53<35.5 46 40 46 46 65 40 335> 0 57<281.5 335> 267 103<35.5 105 40 105 245 411> 607 53<40 61.5 245 245 245 286>
VStem: 105 140<136 267 109 267 370 524 524 551.5> 531 133<235.5 416>
AnchorPoint: "Anchor-5" 309 660 basechar 0
AnchorPoint: "Anchor-4" 321 0 basechar 0
LayerCount: 2
Fore
SplineSet
40 267 m 2x7c
 31 267 26 272 26 280 c 2
 26 356 l 2
 26 365 31 370 40 370 c 2
 105 370 l 1
 105 524 l 2
 105 579 83 607 40 607 c 0
 31 607 26 612 26 620 c 2
 26 647 l 2
 26 656 31 660 40 660 c 2
 311 660 l 2
 521 660 664 535 664 331 c 0
 664 121 536 0 335 0 c 2
 40 0 l 2
 31 0 26 4 26 13 c 2x7c
 26 40 l 2
 26 48 31 53 40 53 c 2
 46 53 l 2
 84 53 105 84 105 136 c 2xbc
 105 267 l 1
 40 267 l 2x7c
245 132 m 2
 245 86 253 57 310 57 c 0
 450 57 531 140 531 331 c 0
 531 501 452 607 286 607 c 2
 245 607 l 1
 245 370 l 1
 411 370 l 2
 420 370 424 365 424 356 c 2
 424 280 l 2
 424 272 420 267 411 267 c 2
 245 267 l 1
 245 132 l 2
EndSplineSet
Substitution2: "'c2sc' Capitals to Small Capitals in Latin lookup 11 subtable" Eth.sc
AlternateSubs2: "'aalt' Access All Alternates in Latin lookup 0 subtable" Eth.sc
Position2: "'cpsp' Capital Spacing in Latin lookup 0 subtable" dx=5 dy=0 dh=10 dv=0
EndChar

StartChar: E
Encoding: 69 69 49
Width: 664
GlyphClass: 2
Flags: MW
HStem: 0 53<35.5 41 40 41 41 62.5 40 521> 0 62<305 363 363 427.5> 320 71<245 322 245 322> 598 62<245 387 245 245> 606 54<40 62> 651 20G<508.5 512>
VStem: 105 140<136 146 146 320 391 523 523 550.5> 406 52<256 261 261 281 450 456>
AnchorPoint: "Anchor-6" 521 0 basechar 0
AnchorPoint: "Anchor-5" 321 660 basechar 0
AnchorPoint: "Anchor-4" 329 0 basechar 0
LayerCount: 2
Fore
SplineSet
639 189 m 2x73
 648 184 648 179 644 170 c 2
 561 -4 l 2
 558 -10 555 -12 551 -12 c 0
 548 -12 545 -12 543 -9 c 2
 539 -4 l 2
 536 0 532 0 521 0 c 2
 40 0 l 2
 31 0 26 4 26 13 c 2x73
 26 40 l 2
 26 48 32 53 40 53 c 2
 41 53 l 2
 84 53 105 80 105 136 c 2
 105 523 l 2
 105 578 84 606 40 606 c 0
 32 606 26 612 26 620 c 2xab
 26 646 l 2
 26 655 31 660 40 660 c 2
 480 660 l 2x73
 489 660 493 660 497 664 c 2
 502 669 l 2
 504 671 507 671 510 671 c 0
 514 671 518 669 521 664 c 2x67
 590 545 l 2
 592 542 593 539 593 537 c 0
 593 532 590 528 586 526 c 2
 551 507 l 2
 546 504 544 503 541 503 c 0
 537 503 534 506 531 511 c 2
 528 516 l 2
 492 576 455 598 387 598 c 2
 245 598 l 1
 245 391 l 1
 322 391 l 2
 375 391 406 411 406 450 c 2
 406 456 l 2
 406 465 410 469 419 469 c 2
 445 469 l 2
 454 469 458 465 458 456 c 2
 458 256 l 2
 458 247 454 243 445 243 c 2
 419 243 l 2
 410 243 406 247 406 256 c 2
 406 261 l 2
 406 301 376 320 322 320 c 2
 245 320 l 1
 245 146 l 2
 245 92 266 62 305 62 c 2
 363 62 l 2
 492 62 541 96 590 194 c 2
 593 200 l 2
 596 206 604 209 611 205 c 2
 639 189 l 2x73
EndSplineSet
Substitution2: "'ss04' Style Set 4 in Latin lookup 33 subtable" u1F154
Substitution2: "'ss03' Style Set 3 in Latin lookup 31 subtable" uni24BA
Substitution2: "'c2sc' Capitals to Small Capitals in Latin lookup 11 subtable" E.sc
AlternateSubs2: "'aalt' Access All Alternates in Latin lookup 0 subtable" E.sc uni24BA u1F154
Position2: "'cpsp' Capital Spacing in Latin lookup 0 subtable" dx=5 dy=0 dh=10 dv=0
EndChar

StartChar: Eacute
Encoding: 201 201 50
Width: 664
GlyphClass: 2
Flags: MW
HStem: 0 53<35.5 41 40 41 41 62.5 40 521> 0 62<305 363 363 427.5> 320 71<245 322 245 322> 598 62<245 387 245 245> 606 54<40 62> 651 20G<508.5 512>
VStem: 105 140<136 146 146 320 391 523 523 550.5> 406 52<256 261 261 281 450 456>
AnchorPoint: "Anchor-6" 521 0 basechar 0
AnchorPoint: "Anchor-5" 353 899 basechar 0
AnchorPoint: "Anchor-4" 329 0 basechar 0
LayerCount: 2
Fore
SplineSet
639 189 m 2x73
 648 184 648 179 644 170 c 2
 561 -4 l 2
 558 -10 555 -12 551 -12 c 0
 548 -12 545 -12 543 -9 c 2
 539 -4 l 2
 536 0 532 0 521 0 c 2
 40 0 l 2
 31 0 26 4 26 13 c 2x73
 26 40 l 2
 26 48 32 53 40 53 c 2
 41 53 l 2
 84 53 105 80 105 136 c 2
 105 523 l 2
 105 578 84 606 40 606 c 0
 32 606 26 612 26 620 c 2xab
 26 646 l 2
 26 655 31 660 40 660 c 2
 480 660 l 2x73
 489 660 493 660 497 664 c 2
 502 669 l 2
 504 671 507 671 510 671 c 0
 514 671 518 669 521 664 c 2x67
 590 545 l 2
 592 542 593 539 593 537 c 0
 593 532 590 528 586 526 c 2
 551 507 l 2
 546 504 544 503 541 503 c 0
 537 503 534 506 531 511 c 2
 528 516 l 2
 492 576 455 598 387 598 c 2
 245 598 l 1
 245 391 l 1
 322 391 l 2
 375 391 406 411 406 450 c 2
 406 456 l 2
 406 465 410 469 419 469 c 2
 445 469 l 2
 454 469 458 465 458 456 c 2
 458 256 l 2
 458 247 454 243 445 243 c 2
 419 243 l 2
 410 243 406 247 406 256 c 2
 406 261 l 2
 406 301 376 320 322 320 c 2
 245 320 l 1
 245 146 l 2
 245 92 266 62 305 62 c 2
 363 62 l 2
 492 62 541 96 590 194 c 2
 593 200 l 2
 596 206 604 209 611 205 c 2
 639 189 l 2x73
259 729 m 1
 315 800 329.98046875 830 352.98046875 887 c 0
 357.98046875 898 373.98046875 899 385.98046875 899 c 0
 418.98046875 899 446.98046875 885 446.98046875 854 c 0
 446.98046875 788 370.98046875 739 315.98046875 715 c 0
 310.98046875 713 305.98046875 710.379882812 301.060546875 710.379882812 c 0
 297.990234375 710.379882812 295.23046875 711.4296875 292 713 c 2
 259 729 l 1
EndSplineSet
Substitution2: "'c2sc' Capitals to Small Capitals in Latin lookup 11 subtable" Eacute.sc
AlternateSubs2: "'aalt' Access All Alternates in Latin lookup 0 subtable" Eacute.sc
Position2: "'cpsp' Capital Spacing in Latin lookup 0 subtable" dx=5 dy=0 dh=10 dv=0
EndChar

StartChar: Ebreve
Encoding: 276 276 51
Width: 664
GlyphClass: 2
Flags: MW
HStem: 0 53<35.5 41 40 41 41 62.5 40 521> 0 62<305 363 363 427.5> 320 71<245 322 245 322> 598 62<245 387 245 245> 606 54<40 62> 651 20G<508.5 512> 711 72<302 340.5 302 366.5>
VStem: 105 140<136 146 146 320 391 523 523 550.5> 406 52<256 261 261 281 450 456>
AnchorPoint: "Anchor-6" 521 0 basechar 0
AnchorPoint: "Anchor-5" 321 837 basechar 0
AnchorPoint: "Anchor-4" 329 0 basechar 0
LayerCount: 2
Fore
SplineSet
639 189 m 2x7380
 648 184 648 179 644 170 c 2
 561 -4 l 2
 558 -10 555 -12 551 -12 c 0
 548 -12 545 -12 543 -9 c 2
 539 -4 l 2
 536 0 532 0 521 0 c 2
 40 0 l 2
 31 0 26 4 26 13 c 2x7380
 26 40 l 2
 26 48 32 53 40 53 c 2
 41 53 l 2
 84 53 105 80 105 136 c 2
 105 523 l 2
 105 578 84 606 40 606 c 0
 32 606 26 612 26 620 c 2xab80
 26 646 l 2
 26 655 31 660 40 660 c 2
 480 660 l 2x7380
 489 660 493 660 497 664 c 2
 502 669 l 2
 504 671 507 671 510 671 c 0
 514 671 518 669 521 664 c 2x6780
 590 545 l 2
 592 542 593 539 593 537 c 0
 593 532 590 528 586 526 c 2
 551 507 l 2
 546 504 544 503 541 503 c 0
 537 503 534 506 531 511 c 2
 528 516 l 2
 492 576 455 598 387 598 c 2
 245 598 l 1
 245 391 l 1
 322 391 l 2
 375 391 406 411 406 450 c 2
 406 456 l 2
 406 465 410 469 419 469 c 2
 445 469 l 2
 454 469 458 465 458 456 c 2
 458 256 l 2
 458 247 454 243 445 243 c 2
 419 243 l 2
 410 243 406 247 406 256 c 2
 406 261 l 2
 406 301 376 320 322 320 c 2
 245 320 l 1
 245 146 l 2
 245 92 266 62 305 62 c 2
 363 62 l 2
 492 62 541 96 590 194 c 2
 593 200 l 2
 596 206 604 209 611 205 c 2
 639 189 l 2x7380
321 711 m 0
 231 711 175 787 175 832 c 0
 175 842 182 846 190 847 c 0
 208 849 235 853 245 853 c 0
 253 853 257 849 259 840 c 0
 267 803 283 783 321 783 c 0
 360 783 376 803 384 840 c 0
 385 849 390 853 398 853 c 0
 407 853 435 849 452 847 c 0
 460 846 467 842 467 832 c 0
 467 787 412 711 321 711 c 0
EndSplineSet
Substitution2: "'c2sc' Capitals to Small Capitals in Latin lookup 11 subtable" Ebreve.sc
AlternateSubs2: "'aalt' Access All Alternates in Latin lookup 0 subtable" Ebreve.sc
Position2: "'cpsp' Capital Spacing in Latin lookup 0 subtable" dx=5 dy=0 dh=10 dv=0
EndChar

StartChar: Ecaron
Encoding: 282 282 52
Width: 664
GlyphClass: 2
Flags: MW
HStem: 0 53<35.5 41 40 41 41 62.5 40 521> 0 62<305 363 363 427.5> 320 71<245 322 245 322> 598 62<245 387 245 245> 606 54<40 62> 651 20G<508.5 512>
VStem: 105 140<136 146 146 320 391 523 523 550.5> 406 52<256 261 261 281 450 456>
AnchorPoint: "Anchor-6" 521 0 basechar 0
AnchorPoint: "Anchor-5" 321 845 basechar 0
AnchorPoint: "Anchor-4" 329 0 basechar 0
LayerCount: 2
Fore
SplineSet
639 189 m 2x73
 648 184 648 179 644 170 c 2
 561 -4 l 2
 558 -10 555 -12 551 -12 c 0
 548 -12 545 -12 543 -9 c 2
 539 -4 l 2
 536 0 532 0 521 0 c 2
 40 0 l 2
 31 0 26 4 26 13 c 2x73
 26 40 l 2
 26 48 32 53 40 53 c 2
 41 53 l 2
 84 53 105 80 105 136 c 2
 105 523 l 2
 105 578 84 606 40 606 c 0
 32 606 26 612 26 620 c 2xab
 26 646 l 2
 26 655 31 660 40 660 c 2
 480 660 l 2x73
 489 660 493 660 497 664 c 2
 502 669 l 2
 504 671 507 671 510 671 c 0
 514 671 518 669 521 664 c 2x67
 590 545 l 2
 592 542 593 539 593 537 c 0
 593 532 590 528 586 526 c 2
 551 507 l 2
 546 504 544 503 541 503 c 0
 537 503 534 506 531 511 c 2
 528 516 l 2
 492 576 455 598 387 598 c 2
 245 598 l 1
 245 391 l 1
 322 391 l 2
 375 391 406 411 406 450 c 2
 406 456 l 2
 406 465 410 469 419 469 c 2
 445 469 l 2
 454 469 458 465 458 456 c 2
 458 256 l 2
 458 247 454 243 445 243 c 2
 419 243 l 2
 410 243 406 247 406 256 c 2
 406 261 l 2
 406 301 376 320 322 320 c 2
 245 320 l 1
 245 146 l 2
 245 92 266 62 305 62 c 2
 363 62 l 2
 492 62 541 96 590 194 c 2
 593 200 l 2
 596 206 604 209 611 205 c 2
 639 189 l 2x73
321 793 m 1
 347 842 391 897 448 897 c 0
 478 897 492 868 492 835 c 0
 492 820 491 807 480 802 c 0
 422 780 392 765 321 708 c 1
 250 765 220 780 162 802 c 0
 151 807 150 820 150 835 c 0
 150 868 164 897 194 897 c 0
 251 897 295 842 321 793 c 1
EndSplineSet
Substitution2: "'c2sc' Capitals to Small Capitals in Latin lookup 11 subtable" Ecaron.sc
AlternateSubs2: "'aalt' Access All Alternates in Latin lookup 0 subtable" Ecaron.sc
Position2: "'cpsp' Capital Spacing in Latin lookup 0 subtable" dx=5 dy=0 dh=10 dv=0
EndChar

StartChar: uni1E1C
Encoding: 7708 7708 53
Width: 664
GlyphClass: 2
Flags: MW
HStem: -225 62<316.5 325 300.5 364> -93 47<279 368> 0 53<35.5 41 40 41 41 62.5 40 279.44> 0 62<40 363 348.78 363 363 427.5 348.78 348.78> 320 71<245 322 245 322> 598 62<245 387 245 245> 606 54<40 62> 651 20G<508.5 512> 711 72<301.99 340.49 301.99 366.49>
VStem: 105 140<136 146 146 320 391 523 523 550.5> 355 89<-145.5 -120> 406 52<256 261 261 281 450 456>
AnchorPoint: "Anchor-6" 521 0 basechar 0
AnchorPoint: "Anchor-5" 321 837 basechar 0
AnchorPoint: "Anchor-4" 329 0 basechar 0
LayerCount: 2
Fore
SplineSet
639 189 m 2xdcd0
 648 184 647.990234375 179 643.990234375 170 c 2
 560.990234375 -4 l 2
 557.990234375 -10 554.990234375 -12 550.990234375 -12 c 0
 547.990234375 -12 544.990234375 -12 542.990234375 -9 c 2
 538.990234375 -4 l 2
 535.990234375 0 531.990234375 0 520.990234375 0 c 2
 348.780273438 0 l 1
 304 -53 l 1
 317 -48 331 -46 345 -46 c 0
 391 -46 444 -72 444 -135 c 0
 444 -187 398 -225 330 -225 c 0
 303 -225 273 -220 242 -207 c 0
 225 -200 224 -174 224 -157 c 0
 224 -151 226 -147 230 -147 c 0
 233 -147 236 -148 238 -149 c 0
 259 -156 288 -163 313 -163 c 0
 337 -163 355 -156 355 -135 c 0
 355 -105 327 -93 288 -93 c 0
 270 -93 253 -96 237 -96 c 0
 232 -96 229 -93 229 -89 c 0
 229 -86 229 -84 231 -81 c 2
 279.440429688 0 l 1
 40 0 l 2
 31 0 26 4 26 13 c 2xdce0
 26 40 l 2
 26 48 32 53 40 53 c 2
 41 53 l 2
 84 53 105 80 105 136 c 2
 105 523 l 2
 105 578 84 606 40 606 c 0
 32 606 26 612 26 620 c 2xead0
 26 646 l 2
 26 655 31 660 40 660 c 2
 480 660 l 2xdcd0
 489 660 493 660 497 664 c 2
 502 669 l 2
 504 671 507 671 510 671 c 0
 514 671 518 669 521 664 c 2xd9d0
 590 545 l 2
 592 542 593 539 593 537 c 0
 593 532 590 528 586 526 c 2
 551 507 l 2
 546 504 544 503 541 503 c 0
 537 503 534 506 531 511 c 2
 528 516 l 2
 492 576 455 598 387 598 c 2
 245 598 l 1
 245 391 l 1
 322 391 l 2
 375 391 406 411 406 450 c 2
 406 456 l 2
 406 465 410 469 419 469 c 2
 445 469 l 2
 454 469 458 465 458 456 c 2
 458 256 l 2
 458 247 454 243 445 243 c 2
 419 243 l 2
 410 243 406 247 406 256 c 2
 406 261 l 2
 406 301 376 320 322 320 c 2
 245 320 l 1
 245 146 l 2
 245 92 266 62 305 62 c 2
 363 62 l 2
 492 62 541 96 590 194 c 2
 593 200 l 2
 596 206 604 209 611 205 c 2
 639 189 l 2xdcd0
320.990234375 711 m 0
 230.990234375 711 174.990234375 787 174.990234375 832 c 0
 174.990234375 842 181.990234375 846 189.990234375 847 c 0
 207.990234375 849 234.990234375 853 244.990234375 853 c 0
 252.990234375 853 256.990234375 849 258.990234375 840 c 0
 266.990234375 803 282.990234375 783 320.990234375 783 c 0
 359.990234375 783 375.990234375 803 383.990234375 840 c 0
 384.990234375 849 389.990234375 853 397.990234375 853 c 0
 406.990234375 853 434.990234375 849 451.990234375 847 c 0
 459.990234375 846 466.990234375 842 466.990234375 832 c 0
 466.990234375 787 411.990234375 711 320.990234375 711 c 0
EndSplineSet
Substitution2: "'c2sc' Capitals to Small Capitals in Latin lookup 11 subtable" uni1E1C.sc
AlternateSubs2: "'aalt' Access All Alternates in Latin lookup 0 subtable" uni1E1C.sc
Position2: "'cpsp' Capital Spacing in Latin lookup 0 subtable" dx=5 dy=0 dh=10 dv=0
EndChar

StartChar: Ecircumflex
Encoding: 202 202 54
Width: 664
GlyphClass: 2
Flags: MW
HStem: 0 53<35.5 41 40 41 41 62.5 40 521> 0 62<305 363 363 427.5> 320 71<245 322 245 322> 598 62<245 387 245 245> 606 54<40 62> 651 20G<508.5 512>
VStem: 105 140<136 146 146 320 391 523 523 550.5> 406 52<256 261 261 281 450 456>
AnchorPoint: "Anchor-7" 321 812 basechar 0
AnchorPoint: "Anchor-6" 521 0 basechar 0
AnchorPoint: "Anchor-5" 321 867 basechar 0
AnchorPoint: "Anchor-4" 329 0 basechar 0
LayerCount: 2
Fore
SplineSet
639 189 m 2x73
 648 184 648 179 644 170 c 2
 561 -4 l 2
 558 -10 555 -12 551 -12 c 0
 548 -12 545 -12 543 -9 c 2
 539 -4 l 2
 536 0 532 0 521 0 c 2
 40 0 l 2
 31 0 26 4 26 13 c 2x73
 26 40 l 2
 26 48 32 53 40 53 c 2
 41 53 l 2
 84 53 105 80 105 136 c 2
 105 523 l 2
 105 578 84 606 40 606 c 0
 32 606 26 612 26 620 c 2xab
 26 646 l 2
 26 655 31 660 40 660 c 2
 480 660 l 2x73
 489 660 493 660 497 664 c 2
 502 669 l 2
 504 671 507 671 510 671 c 0
 514 671 518 669 521 664 c 2x67
 590 545 l 2
 592 542 593 539 593 537 c 0
 593 532 590 528 586 526 c 2
 551 507 l 2
 546 504 544 503 541 503 c 0
 537 503 534 506 531 511 c 2
 528 516 l 2
 492 576 455 598 387 598 c 2
 245 598 l 1
 245 391 l 1
 322 391 l 2
 375 391 406 411 406 450 c 2
 406 456 l 2
 406 465 410 469 419 469 c 2
 445 469 l 2
 454 469 458 465 458 456 c 2
 458 256 l 2
 458 247 454 243 445 243 c 2
 419 243 l 2
 410 243 406 247 406 256 c 2
 406 261 l 2
 406 301 376 320 322 320 c 2
 245 320 l 1
 245 146 l 2
 245 92 266 62 305 62 c 2
 363 62 l 2
 492 62 541 96 590 194 c 2
 593 200 l 2
 596 206 604 209 611 205 c 2
 639 189 l 2x73
321 812 m 1
 295 763 251 708 194 708 c 0
 164 708 150 737 150 770 c 0
 150 785 151 798 162 803 c 0
 220 825 250 840 321 897 c 1
 392 840 422 825 480 803 c 0
 491 798 492 785 492 770 c 0
 492 737 478 708 448 708 c 0
 391 708 347 763 321 812 c 1
EndSplineSet
Substitution2: "'c2sc' Capitals to Small Capitals in Latin lookup 11 subtable" Ecircumflex.sc
AlternateSubs2: "'aalt' Access All Alternates in Latin lookup 0 subtable" Ecircumflex.sc
Position2: "'cpsp' Capital Spacing in Latin lookup 0 subtable" dx=5 dy=0 dh=10 dv=0
EndChar

StartChar: uni1EBE
Encoding: 7870 7870 55
Width: 664
GlyphClass: 2
Flags: MW
HStem: 0 53<35.5 41 40 41 41 62.5 40 521> 0 62<305 363 363 427.5> 320 71<245 322 245 322> 598 62<245 387 245 245> 606 54<40 62> 651 20G<508.5 512>
VStem: 105 140<136 146 146 320 391 523 523 550.5> 406 52<256 261 261 281 450 456>
AnchorPoint: "Anchor-7" 501 1051 basechar 0
AnchorPoint: "Anchor-6" 521 0 basechar 0
AnchorPoint: "Anchor-5" 321 867 basechar 0
AnchorPoint: "Anchor-4" 329 0 basechar 0
LayerCount: 2
Fore
SplineSet
639 189 m 2x73
 648 184 648 179 644 170 c 2
 561 -4 l 2
 558 -10 555 -12 551 -12 c 0
 548 -12 545 -12 543 -9 c 2
 539 -4 l 2
 536 0 532 0 521 0 c 2
 40 0 l 2
 31 0 26 4 26 13 c 2x73
 26 40 l 2
 26 48 32 53 40 53 c 2
 41 53 l 2
 84 53 105 80 105 136 c 2
 105 523 l 2
 105 578 84 606 40 606 c 0
 32 606 26 612 26 620 c 2xab
 26 646 l 2
 26 655 31 660 40 660 c 2
 480 660 l 2x73
 489 660 493 660 497 664 c 2
 502 669 l 2
 504 671 507 671 510 671 c 0
 514 671 518 669 521 664 c 2x67
 590 545 l 2
 592 542 593 539 593 537 c 0
 593 532 590 528 586 526 c 2
 551 507 l 2
 546 504 544 503 541 503 c 0
 537 503 534 506 531 511 c 2
 528 516 l 2
 492 576 455 598 387 598 c 2
 245 598 l 1
 245 391 l 1
 322 391 l 2
 375 391 406 411 406 450 c 2
 406 456 l 2
 406 465 410 469 419 469 c 2
 445 469 l 2
 454 469 458 465 458 456 c 2
 458 256 l 2
 458 247 454 243 445 243 c 2
 419 243 l 2
 410 243 406 247 406 256 c 2
 406 261 l 2
 406 301 376 320 322 320 c 2
 245 320 l 1
 245 146 l 2
 245 92 266 62 305 62 c 2
 363 62 l 2
 492 62 541 96 590 194 c 2
 593 200 l 2
 596 206 604 209 611 205 c 2
 639 189 l 2x73
321 812 m 1
 295 763 251 708 194 708 c 0
 164 708 150 737 150 770 c 0
 150 785 151 798 162 803 c 0
 220 825 250 840 321 897 c 1
 392 840 422 825 480 803 c 0
 491 798 492 785 492 770 c 0
 492 737 478 708 448 708 c 0
 391 708 347 763 321 812 c 1
407 881 m 1
 463 952 477.98046875 982 500.98046875 1039 c 0
 505.98046875 1050 521.98046875 1051 533.98046875 1051 c 0
 566.98046875 1051 594.98046875 1037 594.98046875 1006 c 0
 594.98046875 940 518.98046875 891 463.98046875 867 c 0
 458.98046875 865 453.98046875 862.379882812 449.060546875 862.379882812 c 0
 445.990234375 862.379882812 443.23046875 863.4296875 440 865 c 2
 407 881 l 1
EndSplineSet
Substitution2: "'c2sc' Capitals to Small Capitals in Latin lookup 11 subtable" uni1EBE.sc
AlternateSubs2: "'aalt' Access All Alternates in Latin lookup 0 subtable" uni1EBE.sc
Position2: "'cpsp' Capital Spacing in Latin lookup 0 subtable" dx=5 dy=0 dh=10 dv=0
EndChar

StartChar: uni1EC6
Encoding: 7878 7878 56
Width: 664
GlyphClass: 2
Flags: MW
HStem: -209.01 159.83 0 53<35.5 41 40 41 41 62.5 40 521> 0 62<305 363 363 427.5> 320 71<245 322 245 322> 598 62<245 387 245 245> 606 54<40 62> 651 20G<508.5 512>
VStem: 105 140<136 146 146 320 391 523 523 550.5> 248.98 161.04 406 52
AnchorPoint: "Anchor-7" 321 812 basechar 0
AnchorPoint: "Anchor-6" 521 0 basechar 0
AnchorPoint: "Anchor-5" 321 867 basechar 0
AnchorPoint: "Anchor-4" 329 0 basechar 0
LayerCount: 2
Fore
SplineSet
639 189 m 2x3940
 648 184 648 179 644 170 c 2
 561 -4 l 2
 558 -10 555 -12 551 -12 c 0
 548 -12 545 -12 543 -9 c 2
 539 -4 l 2
 536 0 532 0 521 0 c 2
 40 0 l 2
 31 0 26 4 26 13 c 2x3940
 26 40 l 2
 26 48 32 53 40 53 c 2
 41 53 l 2
 84 53 105 80 105 136 c 2
 105 523 l 2
 105 578 84 606 40 606 c 0
 32 606 26 612 26 620 c 2x5540
 26 646 l 2
 26 655 31 660 40 660 c 2
 480 660 l 2x3940
 489 660 493 660 497 664 c 2
 502 669 l 2
 504 671 507 671 510 671 c 0
 514 671 518 669 521 664 c 2x3340
 590 545 l 2
 592 542 593 539 593 537 c 0
 593 532 590 528 586 526 c 2
 551 507 l 2
 546 504 544 503 541 503 c 0
 537 503 534 506 531 511 c 2
 528 516 l 2
 492 576 455 598 387 598 c 2
 245 598 l 1
 245 391 l 1
 322 391 l 2
 375 391 406 411 406 450 c 2
 406 456 l 2
 406 465 410 469 419 469 c 2
 445 469 l 2
 454 469 458 465 458 456 c 2
 458 256 l 2
 458 247 454 243 445 243 c 2
 419 243 l 2
 410 243 406 247 406 256 c 2
 406 261 l 2
 406 301 376 320 322 320 c 2
 245 320 l 1
 245 146 l 2
 245 92 266 62 305 62 c 2
 363 62 l 2
 492 62 541 96 590 194 c 2
 593 200 l 2
 596 206 604 209 611 205 c 2
 639 189 l 2x3940
328.900390625 -49.1796875 m 0xb880
 348.270507812 -49.1796875 364.000976562 -56.439453125 383.37109375 -75.8095703125 c 0
 402.741210938 -95.1796875 410.000976562 -109.69921875 410.000976562 -129.079101562 c 0
 410.000976562 -148.439453125 401.53125 -164.1796875 383.37109375 -182.33984375 c 0
 364.000976562 -201.709960938 348.270507812 -208.969726562 328.900390625 -208.969726562 c 0
 310.73046875 -208.969726562 296.209960938 -201.709960938 275.629882812 -182.33984375 c 0
 256.259765625 -164.1796875 249 -148.439453125 249 -129.079101562 c 0
 249 -109.69921875 256.259765625 -95.1796875 275.629882812 -75.8095703125 c 0
 295 -56.439453125 310.73046875 -49.1796875 328.900390625 -49.1796875 c 0xb880
321.010742188 812 m 1
 295.010742188 763 251.010742188 708 194.010742188 708 c 0
 164.010742188 708 150.010742188 737 150.010742188 770 c 0
 150.010742188 785 151.010742188 798 162.010742188 803 c 0
 220.010742188 825 250.010742188 840 321.010742188 897 c 1
 392.010742188 840 422.010742188 825 480.010742188 803 c 0
 491.010742188 798 492.010742188 785 492.010742188 770 c 0
 492.010742188 737 478.010742188 708 448.010742188 708 c 0
 391.010742188 708 347.010742188 763 321.010742188 812 c 1
EndSplineSet
Substitution2: "'c2sc' Capitals to Small Capitals in Latin lookup 11 subtable" uni1EC6.sc
AlternateSubs2: "'aalt' Access All Alternates in Latin lookup 0 subtable" uni1EC6.sc
Position2: "'cpsp' Capital Spacing in Latin lookup 0 subtable" dx=5 dy=0 dh=10 dv=0
EndChar

StartChar: uni1EC0
Encoding: 7872 7872 57
Width: 664
GlyphClass: 2
Flags: MW
HStem: 0 53<35.5 41 40 41 41 62.5 40 521> 0 62<305 363 363 427.5> 320 71<245 322 245 322> 598 62<245 387 245 245> 606 54<40 62> 651 20G<508.5 512>
VStem: 105 140<136 146 146 320 391 523 523 550.5> 406 52<256 261 261 281 450 456>
AnchorPoint: "Anchor-7" 153 1051 basechar 0
AnchorPoint: "Anchor-6" 521 0 basechar 0
AnchorPoint: "Anchor-5" 321 867 basechar 0
AnchorPoint: "Anchor-4" 329 0 basechar 0
LayerCount: 2
Fore
SplineSet
639 189 m 2x73
 648 184 648 179 644 170 c 2
 561 -4 l 2
 558 -10 555 -12 551 -12 c 0
 548 -12 545 -12 543 -9 c 2
 539 -4 l 2
 536 0 532 0 521 0 c 2
 40 0 l 2
 31 0 26 4 26 13 c 2x73
 26 40 l 2
 26 48 32 53 40 53 c 2
 41 53 l 2
 84 53 105 80 105 136 c 2
 105 523 l 2
 105 578 84 606 40 606 c 0
 32 606 26 612 26 620 c 2xab
 26 646 l 2
 26 655 31 660 40 660 c 2
 480 660 l 2x73
 489 660 493 660 497 664 c 2
 502 669 l 2
 504 671 507 671 510 671 c 0
 514 671 518 669 521 664 c 2x67
 590 545 l 2
 592 542 593 539 593 537 c 0
 593 532 590 528 586 526 c 2
 551 507 l 2
 546 504 544 503 541 503 c 0
 537 503 534 506 531 511 c 2
 528 516 l 2
 492 576 455 598 387 598 c 2
 245 598 l 1
 245 391 l 1
 322 391 l 2
 375 391 406 411 406 450 c 2
 406 456 l 2
 406 465 410 469 419 469 c 2
 445 469 l 2
 454 469 458 465 458 456 c 2
 458 256 l 2
 458 247 454 243 445 243 c 2
 419 243 l 2
 410 243 406 247 406 256 c 2
 406 261 l 2
 406 301 376 320 322 320 c 2
 245 320 l 1
 245 146 l 2
 245 92 266 62 305 62 c 2
 363 62 l 2
 492 62 541 96 590 194 c 2
 593 200 l 2
 596 206 604 209 611 205 c 2
 639 189 l 2x73
321 812 m 1
 295 763 251 708 194 708 c 0
 164 708 150 737 150 770 c 0
 150 785 151 798 162 803 c 0
 220 825 250 840 321 897 c 1
 392 840 422 825 480 803 c 0
 491 798 492 785 492 770 c 0
 492 737 478 708 448 708 c 0
 391 708 347 763 321 812 c 1
214 865 m 2
 210.759765625 863.4296875 207.990234375 862.379882812 204.91015625 862.379882812 c 0
 200 862.379882812 195 865 190 867 c 0
 135 891 59 940 59 1006 c 0
 59 1037 87 1051 120 1051 c 0
 132 1051 148 1050 153 1039 c 0
 176 982 191 952 247 881 c 1
 214 865 l 2
EndSplineSet
Substitution2: "'c2sc' Capitals to Small Capitals in Latin lookup 11 subtable" uni1EC0.sc
AlternateSubs2: "'aalt' Access All Alternates in Latin lookup 0 subtable" uni1EC0.sc
Position2: "'cpsp' Capital Spacing in Latin lookup 0 subtable" dx=5 dy=0 dh=10 dv=0
EndChar

StartChar: uni1EC2
Encoding: 7874 7874 58
Width: 664
GlyphClass: 2
Flags: MW
HStem: 0 53<35.5 41 40 41 41 62.5 40 521> 0 62<305 363 363 427.5> 320 71<245 322 245 322> 598 62<245 387 245 245> 606 54<40 62> 651 20G<508.5 512> 861 207 971 97 988.05 79.95
VStem: 105 140<136 146 146 320 391 523 523 550.5> 406 52<256 261 261 281 450 456> 443 72
AnchorPoint: "Anchor-7" 437 1098 basechar 0
AnchorPoint: "Anchor-6" 521 0 basechar 0
AnchorPoint: "Anchor-5" 321 867 basechar 0
AnchorPoint: "Anchor-4" 329 0 basechar 0
LayerCount: 2
Fore
SplineSet
639 189 m 2x7060
 648 184 648 179 644 170 c 2
 561 -4 l 2
 558 -10 555 -12 551 -12 c 0
 548 -12 545 -12 543 -9 c 2
 539 -4 l 2
 536 0 532 0 521 0 c 2
 40 0 l 2
 31 0 26 4 26 13 c 2x7060
 26 40 l 2
 26 48 32 53 40 53 c 2
 41 53 l 2
 84 53 105 80 105 136 c 2
 105 523 l 2
 105 578 84 606 40 606 c 0
 32 606 26 612 26 620 c 2xa860
 26 646 l 2
 26 655 31 660 40 660 c 2
 480 660 l 2x7060
 489 660 493 660 497 664 c 2
 502 669 l 2
 504 671 507 671 510 671 c 0
 514 671 518 669 521 664 c 2x6460
 590 545 l 2
 592 542 593 539 593 537 c 0
 593 532 590 528 586 526 c 2
 551 507 l 2
 546 504 544 503 541 503 c 0
 537 503 534 506 531 511 c 2
 528 516 l 2
 492 576 455 598 387 598 c 2
 245 598 l 1
 245 391 l 1
 322 391 l 2
 375 391 406 411 406 450 c 2
 406 456 l 2
 406 465 410 469 419 469 c 2
 445 469 l 2
 454 469 458 465 458 456 c 2
 458 256 l 2
 458 247 454 243 445 243 c 2
 419 243 l 2
 410 243 406 247 406 256 c 2
 406 261 l 2
 406 301 376 320 322 320 c 2
 245 320 l 1
 245 146 l 2
 245 92 266 62 305 62 c 2
 363 62 l 2
 492 62 541 96 590 194 c 2
 593 200 l 2
 596 206 604 209 611 205 c 2
 639 189 l 2x7060
321 812 m 1
 295 763 251 708 194 708 c 0
 164 708 150 737 150 770 c 0
 150 785 151 798 162 803 c 0
 220 825 250 840 321 897 c 1
 392 840 422 825 480 803 c 0
 491 798 492 785 492 770 c 0
 492 737 478 708 448 708 c 0
 391 708 347 763 321 812 c 1
476 866 m 1x7250
 475.959960938 866.05078125 l 1
 462.959960938 849.05078125 409.299804688 876.350585938 421.299804688 892.350585938 c 0x7250
 434.299804688 909.350585938 442.959960938 923.041015625 442.959960938 947.30078125 c 0
 442.959960938 982.810546875 425.860351562 988.060546875 412.700195312 988.060546875 c 0
 389.030273438 988.060546875 371.16015625 961.520507812 362.719726562 974.91015625 c 0x70d0
 351.939453125 992.009765625 346.83984375 1005.75976562 345.83984375 1024.75976562 c 0
 345.049804688 1039.76953125 395 1068 431 1068 c 0
 494 1068 515 1018 515 974 c 0x7150
 515 937 501 898 476 866 c 1x7250
EndSplineSet
Substitution2: "'c2sc' Capitals to Small Capitals in Latin lookup 11 subtable" uni1EC2.sc
AlternateSubs2: "'aalt' Access All Alternates in Latin lookup 0 subtable" uni1EC2.sc
Position2: "'cpsp' Capital Spacing in Latin lookup 0 subtable" dx=5 dy=0 dh=10 dv=0
EndChar

StartChar: uni1EC4
Encoding: 7876 7876 59
Width: 664
GlyphClass: 2
Flags: MW
HStem: 0 53<35.5 41 40 41 41 62.5 40 521> 0 62<305 363 363 427.5> 320 71<245 322 245 322> 598 62<245 387 245 245> 606 54<40 62> 651 20G<508.5 512> 919 76<374 385 374 411> 925 20G 1003 75<258 269>
VStem: 105 140<136 146 146 320 391 523 523 550.5> 167 80<976 986.5 976 1014> 395 80<1010 1021> 406 52<256 261 261 281 450 456>
AnchorPoint: "Anchor-7" 321 812 basechar 0
AnchorPoint: "Anchor-6" 521 0 basechar 0
AnchorPoint: "Anchor-5" 321 1052 basechar 0
AnchorPoint: "Anchor-4" 329 0 basechar 0
LayerCount: 2
Fore
SplineSet
639 189 m 2x7148
 648 184 648 179 644 170 c 2
 561 -4 l 2
 558 -10 555 -12 551 -12 c 0
 548 -12 545 -12 543 -9 c 2
 539 -4 l 2
 536 0 532 0 521 0 c 2
 40 0 l 2
 31 0 26 4 26 13 c 2x7148
 26 40 l 2
 26 48 32 53 40 53 c 2
 41 53 l 2
 84 53 105 80 105 136 c 2
 105 523 l 2
 105 578 84 606 40 606 c 0
 32 606 26 612 26 620 c 2xa948
 26 646 l 2
 26 655 31 660 40 660 c 2
 480 660 l 2x7148
 489 660 493 660 497 664 c 2
 502 669 l 2
 504 671 507 671 510 671 c 0
 514 671 518 669 521 664 c 2x6548
 590 545 l 2
 592 542 593 539 593 537 c 0
 593 532 590 528 586 526 c 2
 551 507 l 2
 546 504 544 503 541 503 c 0
 537 503 534 506 531 511 c 2
 528 516 l 2
 492 576 455 598 387 598 c 2
 245 598 l 1
 245 391 l 1
 322 391 l 2
 375 391 406 411 406 450 c 2
 406 456 l 2
 406 465 410 469 419 469 c 2
 445 469 l 2
 454 469 458 465 458 456 c 2
 458 256 l 2
 458 247 454 243 445 243 c 2
 419 243 l 2
 410 243 406 247 406 256 c 2
 406 261 l 2
 406 301 376 320 322 320 c 2
 245 320 l 1
 245 146 l 2
 245 92 266 62 305 62 c 2
 363 62 l 2
 492 62 541 96 590 194 c 2
 593 200 l 2
 596 206 604 209 611 205 c 2
 639 189 l 2x7148
321 812 m 1
 295 763 251 708 194 708 c 0
 164 708 150 737 150 770 c 0
 150 785 151 798 162 803 c 0
 220 825 250 840 321 897 c 1
 392 840 422 825 480 803 c 0
 491 798 492 785 492 770 c 0
 492 737 478 708 448 708 c 0
 391 708 347 763 321 812 c 1
350 1019 m 0x71a8
 361 1002 369 995 379 995 c 0
 391 995 395 1005 395 1015 c 0
 395 1027 392 1039 382 1052 c 1
 392 1063 412 1079 431 1079 c 0
 446 1079 475 1047 475 1011 c 0
 475 954 433 919 389 919 c 0x7250
 328 919 306 954 292 978 c 0
 282 996 274 1003 264 1003 c 0
 252 1003 247 991 247 982 c 0
 247 970 251 958 261 945 c 1
 251 934 231 918 211 918 c 0
 196 918 167 951 167 985 c 0
 167 1043 210 1078 254 1078 c 0
 314 1078 337 1041 350 1019 c 0x71a8
EndSplineSet
Substitution2: "'c2sc' Capitals to Small Capitals in Latin lookup 11 subtable" uni1EC4.sc
AlternateSubs2: "'aalt' Access All Alternates in Latin lookup 0 subtable" uni1EC4.sc
Position2: "'cpsp' Capital Spacing in Latin lookup 0 subtable" dx=5 dy=0 dh=10 dv=0
EndChar

StartChar: uni0204
Encoding: 516 516 60
Width: 664
GlyphClass: 2
Flags: MW
HStem: 0 53<35.5 41 40 41 41 62.5 40 521> 0 62<305 363 363 427.5> 320 71<245 322 245 322> 598 62<245 387 245 245> 606 54<40 62> 651 20G<508.5 512>
VStem: 105 140<136 146 146 320 391 523 523 550.5> 406 52<256 261 261 281 450 456>
AnchorPoint: "Anchor-6" 521 0 basechar 0
AnchorPoint: "Anchor-5" 321 899 basechar 0
AnchorPoint: "Anchor-4" 329 0 basechar 0
LayerCount: 2
Fore
SplineSet
639 189 m 2x73
 648 184 648 179 644 170 c 2
 561 -4 l 2
 558 -10 555 -12 551 -12 c 0
 548 -12 545 -12 543 -9 c 2
 539 -4 l 2
 536 0 532 0 521 0 c 2
 40 0 l 2
 31 0 26 4 26 13 c 2x73
 26 40 l 2
 26 48 32 53 40 53 c 2
 41 53 l 2
 84 53 105 80 105 136 c 2
 105 523 l 2
 105 578 84 606 40 606 c 0
 32 606 26 612 26 620 c 2xab
 26 646 l 2
 26 655 31 660 40 660 c 2
 480 660 l 2x73
 489 660 493 660 497 664 c 2
 502 669 l 2
 504 671 507 671 510 671 c 0
 514 671 518 669 521 664 c 2x67
 590 545 l 2
 592 542 593 539 593 537 c 0
 593 532 590 528 586 526 c 2
 551 507 l 2
 546 504 544 503 541 503 c 0
 537 503 534 506 531 511 c 2
 528 516 l 2
 492 576 455 598 387 598 c 2
 245 598 l 1
 245 391 l 1
 322 391 l 2
 375 391 406 411 406 450 c 2
 406 456 l 2
 406 465 410 469 419 469 c 2
 445 469 l 2
 454 469 458 465 458 456 c 2
 458 256 l 2
 458 247 454 243 445 243 c 2
 419 243 l 2
 410 243 406 247 406 256 c 2
 406 261 l 2
 406 301 376 320 322 320 c 2
 245 320 l 1
 245 146 l 2
 245 92 266 62 305 62 c 2
 363 62 l 2
 492 62 541 96 590 194 c 2
 593 200 l 2
 596 206 604 209 611 205 c 2
 639 189 l 2x73
468.349609375 713 m 2
 465.119140625 711.4296875 462.33984375 710.379882812 459.26953125 710.379882812 c 0
 454.349609375 710.379882812 449.349609375 713 444.349609375 715 c 0
 389.349609375 739 313.349609375 788 313.349609375 854 c 0
 313.349609375 885 341.349609375 899 374.349609375 899 c 0
 386.349609375 899 402.349609375 898 407.349609375 887 c 0
 430.349609375 830 445.349609375 800 501.349609375 729 c 1
 468.349609375 713 l 2
295.709960938 713 m 2
 292.479492188 711.4296875 289.700195312 710.379882812 286.629882812 710.379882812 c 0
 281.709960938 710.379882812 276.709960938 713 271.709960938 715 c 0
 216.709960938 739 140.709960938 788 140.709960938 854 c 0
 140.709960938 885 168.709960938 899 201.709960938 899 c 0
 213.709960938 899 229.709960938 898 234.709960938 887 c 0
 257.709960938 830 272.709960938 800 328.709960938 729 c 1
 295.709960938 713 l 2
EndSplineSet
Substitution2: "'c2sc' Capitals to Small Capitals in Latin lookup 11 subtable" uni0204.sc
AlternateSubs2: "'aalt' Access All Alternates in Latin lookup 0 subtable" uni0204.sc
Position2: "'cpsp' Capital Spacing in Latin lookup 0 subtable" dx=5 dy=0 dh=10 dv=0
EndChar

StartChar: Edieresis
Encoding: 203 203 61
Width: 664
GlyphClass: 2
Flags: MW
HStem: 0 53<35.5 41 40 41 41 62.5 40 521> 0 62<305 363 363 427.5> 320 71<245 322 245 322> 598 62<245 387 245 245> 606 54<40 62> 651 20G<508.5 512> 705.08 159.84
VStem: 105 140<136 146 146 320 391 523 523 550.5> 138.38 161.04 343.38 161.04 406 52<256 261 261 281 450 456>
AnchorPoint: "Anchor-6" 521 0 basechar 0
AnchorPoint: "Anchor-5" 321 845 basechar 0
AnchorPoint: "Anchor-4" 329 0 basechar 0
LayerCount: 2
Fore
SplineSet
639 189 m 2x7120
 648 184 648 179 644 170 c 2
 561 -4 l 2
 558 -10 555 -12 551 -12 c 0
 548 -12 545 -12 543 -9 c 2
 539 -4 l 2
 536 0 532 0 521 0 c 2
 40 0 l 2
 31 0 26 4 26 13 c 2x7120
 26 40 l 2
 26 48 32 53 40 53 c 2
 41 53 l 2
 84 53 105 80 105 136 c 2
 105 523 l 2
 105 578 84 606 40 606 c 0
 32 606 26 612 26 620 c 2xa920
 26 646 l 2
 26 655 31 660 40 660 c 2
 480 660 l 2x7120
 489 660 493 660 497 664 c 2
 502 669 l 2
 504 671 507 671 510 671 c 0
 514 671 518 669 521 664 c 2x6520
 590 545 l 2
 592 542 593 539 593 537 c 0
 593 532 590 528 586 526 c 2
 551 507 l 2
 546 504 544 503 541 503 c 0
 537 503 534 506 531 511 c 2
 528 516 l 2
 492 576 455 598 387 598 c 2
 245 598 l 1
 245 391 l 1
 322 391 l 2
 375 391 406 411 406 450 c 2
 406 456 l 2
 406 465 410 469 419 469 c 2
 445 469 l 2
 454 469 458 465 458 456 c 2
 458 256 l 2
 458 247 454 243 445 243 c 2
 419 243 l 2
 410 243 406 247 406 256 c 2
 406 261 l 2
 406 301 376 320 322 320 c 2
 245 320 l 1
 245 146 l 2
 245 92 266 62 305 62 c 2
 363 62 l 2
 492 62 541 96 590 194 c 2
 593 200 l 2
 596 206 604 209 611 205 c 2
 639 189 l 2x7120
218.299804688 864.91015625 m 0x72c0
 237.669921875 864.91015625 253.400390625 857.650390625 272.770507812 838.280273438 c 0
 292.140625 818.91015625 299.400390625 804.379882812 299.400390625 785.01953125 c 0
 299.400390625 765.649414062 290.940429688 749.909179688 272.770507812 731.749023438 c 0
 253.400390625 712.37890625 237.669921875 705.119140625 218.299804688 705.119140625 c 0
 200.139648438 705.119140625 185.609375 712.37890625 165.0390625 731.749023438 c 0
 145.659179688 749.909179688 138.409179688 765.649414062 138.409179688 785.01953125 c 0
 138.409179688 804.379882812 145.659179688 818.91015625 165.0390625 838.280273438 c 0
 184.399414062 857.650390625 200.139648438 864.91015625 218.299804688 864.91015625 c 0x72c0
423.299804688 864.91015625 m 0
 442.669921875 864.91015625 458.400390625 857.650390625 477.770507812 838.280273438 c 0
 497.140625 818.91015625 504.400390625 804.379882812 504.400390625 785.01953125 c 0
 504.400390625 765.649414062 495.940429688 749.909179688 477.770507812 731.749023438 c 0
 458.400390625 712.37890625 442.669921875 705.119140625 423.299804688 705.119140625 c 0
 405.139648438 705.119140625 390.609375 712.37890625 370.0390625 731.749023438 c 0
 350.659179688 749.909179688 343.409179688 765.649414062 343.409179688 785.01953125 c 0
 343.409179688 804.379882812 350.659179688 818.91015625 370.0390625 838.280273438 c 0
 389.399414062 857.650390625 405.139648438 864.91015625 423.299804688 864.91015625 c 0
EndSplineSet
Substitution2: "'c2sc' Capitals to Small Capitals in Latin lookup 11 subtable" Edieresis.sc
AlternateSubs2: "'aalt' Access All Alternates in Latin lookup 0 subtable" Edieresis.sc
Position2: "'cpsp' Capital Spacing in Latin lookup 0 subtable" dx=5 dy=0 dh=10 dv=0
EndChar

StartChar: Edotaccent
Encoding: 278 278 62
Width: 664
GlyphClass: 2
Flags: MW
HStem: 0 53<35.5 41 40 41 41 62.5 40 521> 0 62<305 363 363 427.5> 320 71<245 322 245 322> 598 62<245 387 245 245> 606 54<40 62> 651 20G<508.5 512> 705.08 159.84
VStem: 105 140<136 146 146 320 391 523 523 550.5> 240.98 161.04 406 52
AnchorPoint: "Anchor-6" 521 0 basechar 0
AnchorPoint: "Anchor-5" 321 845 basechar 0
AnchorPoint: "Anchor-4" 329 0 basechar 0
LayerCount: 2
Fore
SplineSet
639 189 m 2x7140
 648 184 648 179 644 170 c 2
 561 -4 l 2
 558 -10 555 -12 551 -12 c 0
 548 -12 545 -12 543 -9 c 2
 539 -4 l 2
 536 0 532 0 521 0 c 2
 40 0 l 2
 31 0 26 4 26 13 c 2x7140
 26 40 l 2
 26 48 32 53 40 53 c 2
 41 53 l 2
 84 53 105 80 105 136 c 2
 105 523 l 2
 105 578 84 606 40 606 c 0
 32 606 26 612 26 620 c 2xa940
 26 646 l 2
 26 655 31 660 40 660 c 2
 480 660 l 2x7140
 489 660 493 660 497 664 c 2
 502 669 l 2
 504 671 507 671 510 671 c 0
 514 671 518 669 521 664 c 2x6540
 590 545 l 2
 592 542 593 539 593 537 c 0
 593 532 590 528 586 526 c 2
 551 507 l 2
 546 504 544 503 541 503 c 0
 537 503 534 506 531 511 c 2
 528 516 l 2
 492 576 455 598 387 598 c 2
 245 598 l 1
 245 391 l 1
 322 391 l 2
 375 391 406 411 406 450 c 2
 406 456 l 2
 406 465 410 469 419 469 c 2
 445 469 l 2
 454 469 458 465 458 456 c 2
 458 256 l 2
 458 247 454 243 445 243 c 2
 419 243 l 2
 410 243 406 247 406 256 c 2
 406 261 l 2
 406 301 376 320 322 320 c 2
 245 320 l 1
 245 146 l 2
 245 92 266 62 305 62 c 2
 363 62 l 2
 492 62 541 96 590 194 c 2
 593 200 l 2
 596 206 604 209 611 205 c 2
 639 189 l 2x7140
320.889648438 864.91015625 m 0x7280
 340.26953125 864.91015625 355.999023438 857.650390625 375.369140625 838.280273438 c 0
 394.739257812 818.91015625 401.999023438 804.379882812 401.999023438 785.01953125 c 0
 401.999023438 765.649414062 393.529296875 749.909179688 375.369140625 731.749023438 c 0
 355.999023438 712.37890625 340.268554688 705.119140625 320.888671875 705.119140625 c 0
 302.728515625 705.119140625 288.208984375 712.37890625 267.62890625 731.749023438 c 0
 248.258789062 749.909179688 240.999023438 765.649414062 240.999023438 785.01953125 c 0
 240.999023438 804.379882812 248.258789062 818.91015625 267.62890625 838.280273438 c 0
 286.999023438 857.650390625 302.729492188 864.91015625 320.889648438 864.91015625 c 0x7280
EndSplineSet
Substitution2: "'c2sc' Capitals to Small Capitals in Latin lookup 11 subtable" Edotaccent.sc
AlternateSubs2: "'aalt' Access All Alternates in Latin lookup 0 subtable" Edotaccent.sc
Position2: "'cpsp' Capital Spacing in Latin lookup 0 subtable" dx=5 dy=0 dh=10 dv=0
EndChar

StartChar: uni1EB8
Encoding: 7864 7864 63
Width: 664
GlyphClass: 2
Flags: MW
HStem: -209.01 159.83 0 53<35.5 41 40 41 41 62.5 40 521> 0 62<305 363 363 427.5> 320 71<245 322 245 322> 598 62<245 387 245 245> 606 54<40 62> 651 20G<508.5 512>
VStem: 105 140<136 146 146 320 391 523 523 550.5> 248.98 161.04 406 52
AnchorPoint: "Anchor-6" 521 0 basechar 0
AnchorPoint: "Anchor-5" 321 660 basechar 0
AnchorPoint: "Anchor-4" 329 0 basechar 0
LayerCount: 2
Fore
SplineSet
639 189 m 2x3940
 648 184 648 179 644 170 c 2
 561 -4 l 2
 558 -10 555 -12 551 -12 c 0
 548 -12 545 -12 543 -9 c 2
 539 -4 l 2
 536 0 532 0 521 0 c 2
 40 0 l 2
 31 0 26 4 26 13 c 2x3940
 26 40 l 2
 26 48 32 53 40 53 c 2
 41 53 l 2
 84 53 105 80 105 136 c 2
 105 523 l 2
 105 578 84 606 40 606 c 0
 32 606 26 612 26 620 c 2x5540
 26 646 l 2
 26 655 31 660 40 660 c 2
 480 660 l 2x3940
 489 660 493 660 497 664 c 2
 502 669 l 2
 504 671 507 671 510 671 c 0
 514 671 518 669 521 664 c 2x3340
 590 545 l 2
 592 542 593 539 593 537 c 0
 593 532 590 528 586 526 c 2
 551 507 l 2
 546 504 544 503 541 503 c 0
 537 503 534 506 531 511 c 2
 528 516 l 2
 492 576 455 598 387 598 c 2
 245 598 l 1
 245 391 l 1
 322 391 l 2
 375 391 406 411 406 450 c 2
 406 456 l 2
 406 465 410 469 419 469 c 2
 445 469 l 2
 454 469 458 465 458 456 c 2
 458 256 l 2
 458 247 454 243 445 243 c 2
 419 243 l 2
 410 243 406 247 406 256 c 2
 406 261 l 2
 406 301 376 320 322 320 c 2
 245 320 l 1
 245 146 l 2
 245 92 266 62 305 62 c 2
 363 62 l 2
 492 62 541 96 590 194 c 2
 593 200 l 2
 596 206 604 209 611 205 c 2
 639 189 l 2x3940
328.900390625 -49.1796875 m 0xb880
 348.270507812 -49.1796875 364.000976562 -56.439453125 383.37109375 -75.8095703125 c 0
 402.741210938 -95.1796875 410.000976562 -109.69921875 410.000976562 -129.079101562 c 0
 410.000976562 -148.439453125 401.53125 -164.1796875 383.37109375 -182.33984375 c 0
 364.000976562 -201.709960938 348.270507812 -208.969726562 328.900390625 -208.969726562 c 0
 310.73046875 -208.969726562 296.209960938 -201.709960938 275.629882812 -182.33984375 c 0
 256.259765625 -164.1796875 249 -148.439453125 249 -129.079101562 c 0
 249 -109.69921875 256.259765625 -95.1796875 275.629882812 -75.8095703125 c 0
 295 -56.439453125 310.73046875 -49.1796875 328.900390625 -49.1796875 c 0xb880
EndSplineSet
Substitution2: "'c2sc' Capitals to Small Capitals in Latin lookup 11 subtable" uni1EB8.sc
AlternateSubs2: "'aalt' Access All Alternates in Latin lookup 0 subtable" uni1EB8.sc
Position2: "'cpsp' Capital Spacing in Latin lookup 0 subtable" dx=5 dy=0 dh=10 dv=0
EndChar

StartChar: Egrave
Encoding: 200 200 64
Width: 664
GlyphClass: 2
Flags: MW
HStem: 0 53<35.5 41 40 41 41 62.5 40 521> 0 62<305 363 363 427.5> 320 71<245 322 245 322> 598 62<245 387 245 245> 606 54<40 62> 651 20G<508.5 512>
VStem: 105 140<136 146 146 320 391 523 523 550.5> 406 52<256 261 261 281 450 456>
AnchorPoint: "Anchor-6" 521 0 basechar 0
AnchorPoint: "Anchor-5" 296 899 basechar 0
AnchorPoint: "Anchor-4" 329 0 basechar 0
LayerCount: 2
Fore
SplineSet
639 189 m 2x73
 648 184 648 179 644 170 c 2
 561 -4 l 2
 558 -10 555 -12 551 -12 c 0
 548 -12 545 -12 543 -9 c 2
 539 -4 l 2
 536 0 532 0 521 0 c 2
 40 0 l 2
 31 0 26 4 26 13 c 2x73
 26 40 l 2
 26 48 32 53 40 53 c 2
 41 53 l 2
 84 53 105 80 105 136 c 2
 105 523 l 2
 105 578 84 606 40 606 c 0
 32 606 26 612 26 620 c 2xab
 26 646 l 2
 26 655 31 660 40 660 c 2
 480 660 l 2x73
 489 660 493 660 497 664 c 2
 502 669 l 2
 504 671 507 671 510 671 c 0
 514 671 518 669 521 664 c 2x67
 590 545 l 2
 592 542 593 539 593 537 c 0
 593 532 590 528 586 526 c 2
 551 507 l 2
 546 504 544 503 541 503 c 0
 537 503 534 506 531 511 c 2
 528 516 l 2
 492 576 455 598 387 598 c 2
 245 598 l 1
 245 391 l 1
 322 391 l 2
 375 391 406 411 406 450 c 2
 406 456 l 2
 406 465 410 469 419 469 c 2
 445 469 l 2
 454 469 458 465 458 456 c 2
 458 256 l 2
 458 247 454 243 445 243 c 2
 419 243 l 2
 410 243 406 247 406 256 c 2
 406 261 l 2
 406 301 376 320 322 320 c 2
 245 320 l 1
 245 146 l 2
 245 92 266 62 305 62 c 2
 363 62 l 2
 492 62 541 96 590 194 c 2
 593 200 l 2
 596 206 604 209 611 205 c 2
 639 189 l 2x73
357 713 m 2
 353.759765625 711.4296875 350.990234375 710.379882812 347.91015625 710.379882812 c 0
 343 710.379882812 338 713 333 715 c 0
 278 739 202 788 202 854 c 0
 202 885 230 899 263 899 c 0
 275 899 291 898 296 887 c 0
 319 830 334 800 390 729 c 1
 357 713 l 2
EndSplineSet
Substitution2: "'c2sc' Capitals to Small Capitals in Latin lookup 11 subtable" Egrave.sc
AlternateSubs2: "'aalt' Access All Alternates in Latin lookup 0 subtable" Egrave.sc
Position2: "'cpsp' Capital Spacing in Latin lookup 0 subtable" dx=5 dy=0 dh=10 dv=0
EndChar

StartChar: uni1EBA
Encoding: 7866 7866 65
Width: 664
GlyphClass: 2
Flags: MW
HStem: 0 53<35.5 41 40 41 41 62.5 40 521> 0 62<305 363 363 427.5> 320 71<245 322 245 322> 598 62<245 387 245 245> 606 54<40 62> 651 20G<508.5 512> 709 207 819 97 836.05 79.95
VStem: 105 140<136 146 146 320 391 523 523 550.5> 327 72 406 52<256 261 261 281 450 456>
AnchorPoint: "Anchor-6" 521 0 basechar 0
AnchorPoint: "Anchor-5" 321 946 basechar 0
AnchorPoint: "Anchor-4" 329 0 basechar 0
LayerCount: 2
Fore
SplineSet
639 189 m 2x7050
 648 184 648 179 644 170 c 2
 561 -4 l 2
 558 -10 555 -12 551 -12 c 0
 548 -12 545 -12 543 -9 c 2
 539 -4 l 2
 536 0 532 0 521 0 c 2
 40 0 l 2
 31 0 26 4 26 13 c 2x7050
 26 40 l 2
 26 48 32 53 40 53 c 2
 41 53 l 2
 84 53 105 80 105 136 c 2
 105 523 l 2
 105 578 84 606 40 606 c 0
 32 606 26 612 26 620 c 2xa850
 26 646 l 2
 26 655 31 660 40 660 c 2
 480 660 l 2x7050
 489 660 493 660 497 664 c 2
 502 669 l 2
 504 671 507 671 510 671 c 0
 514 671 518 669 521 664 c 2x6450
 590 545 l 2
 592 542 593 539 593 537 c 0
 593 532 590 528 586 526 c 2
 551 507 l 2
 546 504 544 503 541 503 c 0
 537 503 534 506 531 511 c 2
 528 516 l 2
 492 576 455 598 387 598 c 2
 245 598 l 1
 245 391 l 1
 322 391 l 2
 375 391 406 411 406 450 c 2
 406 456 l 2
 406 465 410 469 419 469 c 2
 445 469 l 2
 454 469 458 465 458 456 c 2
 458 256 l 2
 458 247 454 243 445 243 c 2
 419 243 l 2
 410 243 406 247 406 256 c 2
 406 261 l 2
 406 301 376 320 322 320 c 2
 245 320 l 1
 245 146 l 2
 245 92 266 62 305 62 c 2
 363 62 l 2
 492 62 541 96 590 194 c 2
 593 200 l 2
 596 206 604 209 611 205 c 2
 639 189 l 2x7050
360 714 m 1x7260
 359.959960938 714.05078125 l 1
 346.959960938 697.05078125 293.299804688 724.350585938 305.299804688 740.350585938 c 0x7260
 318.299804688 757.350585938 326.959960938 771.041015625 326.959960938 795.30078125 c 0
 326.959960938 830.810546875 309.860351562 836.060546875 296.700195312 836.060546875 c 0
 273.030273438 836.060546875 255.16015625 809.520507812 246.719726562 822.91015625 c 0x70e0
 235.939453125 840.009765625 230.83984375 853.759765625 229.83984375 872.759765625 c 0
 229.049804688 887.76953125 279 916 315 916 c 0
 378 916 399 866 399 822 c 0x7160
 399 785 385 746 360 714 c 1x7260
EndSplineSet
Substitution2: "'c2sc' Capitals to Small Capitals in Latin lookup 11 subtable" uni1EBA.sc
AlternateSubs2: "'aalt' Access All Alternates in Latin lookup 0 subtable" uni1EBA.sc
Position2: "'cpsp' Capital Spacing in Latin lookup 0 subtable" dx=5 dy=0 dh=10 dv=0
EndChar

StartChar: uni0206
Encoding: 518 518 66
Width: 664
GlyphClass: 2
Flags: MW
HStem: 0 53<35.5 41 40 41 41 62.5 40 521> 0 62<305 363 363 427.5> 320 71<245 322 245 322> 598 62<245 387 245 245> 606 54<40 62> 651 20G<508.5 512> 801 72<304 342.5>
VStem: 105 140<136 146 146 320 391 523 523 550.5> 406 52<256 261 261 281 450 456>
AnchorPoint: "Anchor-6" 521 0 basechar 0
AnchorPoint: "Anchor-5" 321 899 basechar 0
AnchorPoint: "Anchor-4" 329 0 basechar 0
LayerCount: 2
Fore
SplineSet
639 189 m 2x7380
 648 184 648 179 644 170 c 2
 561 -4 l 2
 558 -10 555 -12 551 -12 c 0
 548 -12 545 -12 543 -9 c 2
 539 -4 l 2
 536 0 532 0 521 0 c 2
 40 0 l 2
 31 0 26 4 26 13 c 2x7380
 26 40 l 2
 26 48 32 53 40 53 c 2
 41 53 l 2
 84 53 105 80 105 136 c 2
 105 523 l 2
 105 578 84 606 40 606 c 0
 32 606 26 612 26 620 c 2xab80
 26 646 l 2
 26 655 31 660 40 660 c 2
 480 660 l 2x7380
 489 660 493 660 497 664 c 2
 502 669 l 2
 504 671 507 671 510 671 c 0
 514 671 518 669 521 664 c 2x6780
 590 545 l 2
 592 542 593 539 593 537 c 0
 593 532 590 528 586 526 c 2
 551 507 l 2
 546 504 544 503 541 503 c 0
 537 503 534 506 531 511 c 2
 528 516 l 2
 492 576 455 598 387 598 c 2
 245 598 l 1
 245 391 l 1
 322 391 l 2
 375 391 406 411 406 450 c 2
 406 456 l 2
 406 465 410 469 419 469 c 2
 445 469 l 2
 454 469 458 465 458 456 c 2
 458 256 l 2
 458 247 454 243 445 243 c 2
 419 243 l 2
 410 243 406 247 406 256 c 2
 406 261 l 2
 406 301 376 320 322 320 c 2
 245 320 l 1
 245 146 l 2
 245 92 266 62 305 62 c 2
 363 62 l 2
 492 62 541 96 590 194 c 2
 593 200 l 2
 596 206 604 209 611 205 c 2
 639 189 l 2x7380
323 873 m 0
 414 873 469 797 469 752 c 0
 469 742 462 738 454 737 c 0
 437 735 409 731 400 731 c 0
 392 731 387 735 386 744 c 0
 378 781 362 801 323 801 c 0
 285 801 269 781 261 744 c 0
 259 735 255 731 247 731 c 0
 237 731 210 735 192 737 c 0
 184 738 177 742 177 752 c 0
 177 797 233 873 323 873 c 0
EndSplineSet
Substitution2: "'c2sc' Capitals to Small Capitals in Latin lookup 11 subtable" uni0206.sc
AlternateSubs2: "'aalt' Access All Alternates in Latin lookup 0 subtable" uni0206.sc
Position2: "'cpsp' Capital Spacing in Latin lookup 0 subtable" dx=5 dy=0 dh=10 dv=0
EndChar

StartChar: Emacron
Encoding: 274 274 67
Width: 664
GlyphClass: 2
Flags: MW
HStem: 0 53<35.5 41 40 41 41 62.5 40 521> 0 62<305 363 363 427.5> 320 71<245 322 245 322> 598 62<245 387 245 245> 606 54<40 62> 651 20G<508.5 512> 721 79<198.5 439 203 439>
VStem: 105 140<136 146 146 320 391 523 523 550.5> 406 52<256 261 261 281 450 456>
AnchorPoint: "Anchor-6" 521 0 basechar 0
AnchorPoint: "Anchor-5" 321 792 basechar 0
AnchorPoint: "Anchor-4" 329 0 basechar 0
LayerCount: 2
Fore
SplineSet
639 189 m 2x7380
 648 184 648 179 644 170 c 2
 561 -4 l 2
 558 -10 555 -12 551 -12 c 0
 548 -12 545 -12 543 -9 c 2
 539 -4 l 2
 536 0 532 0 521 0 c 2
 40 0 l 2
 31 0 26 4 26 13 c 2x7380
 26 40 l 2
 26 48 32 53 40 53 c 2
 41 53 l 2
 84 53 105 80 105 136 c 2
 105 523 l 2
 105 578 84 606 40 606 c 0
 32 606 26 612 26 620 c 2xab80
 26 646 l 2
 26 655 31 660 40 660 c 2
 480 660 l 2x7380
 489 660 493 660 497 664 c 2
 502 669 l 2
 504 671 507 671 510 671 c 0
 514 671 518 669 521 664 c 2x6780
 590 545 l 2
 592 542 593 539 593 537 c 0
 593 532 590 528 586 526 c 2
 551 507 l 2
 546 504 544 503 541 503 c 0
 537 503 534 506 531 511 c 2
 528 516 l 2
 492 576 455 598 387 598 c 2
 245 598 l 1
 245 391 l 1
 322 391 l 2
 375 391 406 411 406 450 c 2
 406 456 l 2
 406 465 410 469 419 469 c 2
 445 469 l 2
 454 469 458 465 458 456 c 2
 458 256 l 2
 458 247 454 243 445 243 c 2
 419 243 l 2
 410 243 406 247 406 256 c 2
 406 261 l 2
 406 301 376 320 322 320 c 2
 245 320 l 1
 245 146 l 2
 245 92 266 62 305 62 c 2
 363 62 l 2
 492 62 541 96 590 194 c 2
 593 200 l 2
 596 206 604 209 611 205 c 2
 639 189 l 2x7380
452 734 m 2
 452 726 448 721 439 721 c 2
 203 721 l 2
 194 721 190 726 190 734 c 2
 190 787 l 2
 190 796 194 800 203 800 c 2
 439 800 l 2
 448 800 452 796 452 787 c 2
 452 734 l 2
EndSplineSet
Substitution2: "'c2sc' Capitals to Small Capitals in Latin lookup 11 subtable" Emacron.sc
AlternateSubs2: "'aalt' Access All Alternates in Latin lookup 0 subtable" Emacron.sc
Position2: "'cpsp' Capital Spacing in Latin lookup 0 subtable" dx=5 dy=0 dh=10 dv=0
EndChar

StartChar: uni1E16
Encoding: 7702 7702 68
Width: 664
GlyphClass: 2
Flags: MW
HStem: 0 53<35.5 41 40 41 41 62.5 40 521> 0 62<305 363 363 427.5> 320 71<245 322 245 322> 598 62<245 387 245 245> 606 54<40 62> 651 20G<508.5 512> 721 79<198.5 439 203 439>
VStem: 105 140<136 146 146 320 391 523 523 550.5> 406 52<256 261 261 281 450 456>
AnchorPoint: "Anchor-6" 521 0 basechar 0
AnchorPoint: "Anchor-5" 353 1031 basechar 0
AnchorPoint: "Anchor-4" 329 0 basechar 0
LayerCount: 2
Fore
SplineSet
639 189 m 2x7380
 648 184 648 179 644 170 c 2
 561 -4 l 2
 558 -10 555 -12 551 -12 c 0
 548 -12 545 -12 543 -9 c 2
 539 -4 l 2
 536 0 532 0 521 0 c 2
 40 0 l 2
 31 0 26 4 26 13 c 2x7380
 26 40 l 2
 26 48 32 53 40 53 c 2
 41 53 l 2
 84 53 105 80 105 136 c 2
 105 523 l 2
 105 578 84 606 40 606 c 0
 32 606 26 612 26 620 c 2xab80
 26 646 l 2
 26 655 31 660 40 660 c 2
 480 660 l 2x7380
 489 660 493 660 497 664 c 2
 502 669 l 2
 504 671 507 671 510 671 c 0
 514 671 518 669 521 664 c 2x6780
 590 545 l 2
 592 542 593 539 593 537 c 0
 593 532 590 528 586 526 c 2
 551 507 l 2
 546 504 544 503 541 503 c 0
 537 503 534 506 531 511 c 2
 528 516 l 2
 492 576 455 598 387 598 c 2
 245 598 l 1
 245 391 l 1
 322 391 l 2
 375 391 406 411 406 450 c 2
 406 456 l 2
 406 465 410 469 419 469 c 2
 445 469 l 2
 454 469 458 465 458 456 c 2
 458 256 l 2
 458 247 454 243 445 243 c 2
 419 243 l 2
 410 243 406 247 406 256 c 2
 406 261 l 2
 406 301 376 320 322 320 c 2
 245 320 l 1
 245 146 l 2
 245 92 266 62 305 62 c 2
 363 62 l 2
 492 62 541 96 590 194 c 2
 593 200 l 2
 596 206 604 209 611 205 c 2
 639 189 l 2x7380
452 734 m 2
 452 726 448 721 439 721 c 2
 203 721 l 2
 194 721 190 726 190 734 c 2
 190 787 l 2
 190 796 194 800 203 800 c 2
 439 800 l 2
 448 800 452 796 452 787 c 2
 452 734 l 2
259 860.620117188 m 1
 315 931.620117188 329.98046875 961.629882812 352.98046875 1018.62988281 c 0
 357.98046875 1029.62988281 373.98046875 1030.62988281 385.98046875 1030.62988281 c 0
 418.98046875 1030.62988281 446.98046875 1016.62988281 446.98046875 985.629882812 c 0
 446.98046875 919.629882812 370.98046875 870.629882812 315.98046875 846.629882812 c 0
 310.98046875 844.629882812 305.98046875 842.009765625 301.060546875 842.009765625 c 0
 297.990234375 842.009765625 295.23046875 843.040039062 292 844.620117188 c 2
 259 860.620117188 l 1
EndSplineSet
Substitution2: "'c2sc' Capitals to Small Capitals in Latin lookup 11 subtable" uni1E16.sc
AlternateSubs2: "'aalt' Access All Alternates in Latin lookup 0 subtable" uni1E16.sc
Position2: "'cpsp' Capital Spacing in Latin lookup 0 subtable" dx=5 dy=0 dh=10 dv=0
EndChar

StartChar: uni1E14
Encoding: 7700 7700 69
Width: 664
GlyphClass: 2
Flags: MW
HStem: 0 53<35.5 41 40 41 41 62.5 40 521> 0 62<305 363 363 427.5> 320 71<245 322 245 322> 598 62<245 387 245 245> 606 54<40 62> 651 20G<508.5 512> 721 79<198.5 439 203 439>
VStem: 105 140<136 146 146 320 391 523 523 550.5> 406 52<256 261 261 281 450 456>
AnchorPoint: "Anchor-6" 521 0 basechar 0
AnchorPoint: "Anchor-5" 296 1031 basechar 0
AnchorPoint: "Anchor-4" 329 0 basechar 0
LayerCount: 2
Fore
SplineSet
639 189 m 2x7380
 648 184 648 179 644 170 c 2
 561 -4 l 2
 558 -10 555 -12 551 -12 c 0
 548 -12 545 -12 543 -9 c 2
 539 -4 l 2
 536 0 532 0 521 0 c 2
 40 0 l 2
 31 0 26 4 26 13 c 2x7380
 26 40 l 2
 26 48 32 53 40 53 c 2
 41 53 l 2
 84 53 105 80 105 136 c 2
 105 523 l 2
 105 578 84 606 40 606 c 0
 32 606 26 612 26 620 c 2xab80
 26 646 l 2
 26 655 31 660 40 660 c 2
 480 660 l 2x7380
 489 660 493 660 497 664 c 2
 502 669 l 2
 504 671 507 671 510 671 c 0
 514 671 518 669 521 664 c 2x6780
 590 545 l 2
 592 542 593 539 593 537 c 0
 593 532 590 528 586 526 c 2
 551 507 l 2
 546 504 544 503 541 503 c 0
 537 503 534 506 531 511 c 2
 528 516 l 2
 492 576 455 598 387 598 c 2
 245 598 l 1
 245 391 l 1
 322 391 l 2
 375 391 406 411 406 450 c 2
 406 456 l 2
 406 465 410 469 419 469 c 2
 445 469 l 2
 454 469 458 465 458 456 c 2
 458 256 l 2
 458 247 454 243 445 243 c 2
 419 243 l 2
 410 243 406 247 406 256 c 2
 406 261 l 2
 406 301 376 320 322 320 c 2
 245 320 l 1
 245 146 l 2
 245 92 266 62 305 62 c 2
 363 62 l 2
 492 62 541 96 590 194 c 2
 593 200 l 2
 596 206 604 209 611 205 c 2
 639 189 l 2x7380
452 734 m 2
 452 726 448 721 439 721 c 2
 203 721 l 2
 194 721 190 726 190 734 c 2
 190 787 l 2
 190 796 194 800 203 800 c 2
 439 800 l 2
 448 800 452 796 452 787 c 2
 452 734 l 2
357 844.620117188 m 2
 353.759765625 843.040039062 350.990234375 842 347.91015625 842 c 0
 343 842 338 844.620117188 333 846.620117188 c 0
 278 870.620117188 202 919.620117188 202 985.620117188 c 0
 202 1016.62011719 230 1030.62011719 263 1030.62011719 c 0
 275 1030.62011719 291 1029.62011719 296 1018.62011719 c 0
 319 961.620117188 334 931.620117188 390 860.620117188 c 1
 357 844.620117188 l 2
EndSplineSet
Substitution2: "'c2sc' Capitals to Small Capitals in Latin lookup 11 subtable" uni1E14.sc
AlternateSubs2: "'aalt' Access All Alternates in Latin lookup 0 subtable" uni1E14.sc
Position2: "'cpsp' Capital Spacing in Latin lookup 0 subtable" dx=5 dy=0 dh=10 dv=0
EndChar

StartChar: Eogonek
Encoding: 280 280 70
Width: 664
GlyphClass: 2
Flags: MW
HStem: -12 21G<549.5 553>
AnchorPoint: "Anchor-6" 521 0 basechar 0
AnchorPoint: "Anchor-5" 321 660 basechar 0
AnchorPoint: "Anchor-4" 329 0 basechar 0
LayerCount: 2
Fore
SplineSet
639 189 m 2
 648 184 648 179 644 170 c 2
 561 -4 l 2
 558 -10 555 -12 551 -12 c 0
 548 -12 545 -12 543 -9 c 2
 539 -4 l 2
 536 0 532 0 521 0 c 0
 510 0 436 -18 436 -83 c 0
 436 -124 461 -155 506 -155 c 0
 538 -155 574 -132 583 -132 c 0
 587 -132 591 -136 591 -143 c 2
 591 -178 l 2
 591 -184 589 -189 584 -192 c 0
 551 -212 518 -223 488 -223 c 0
 392 -223 349 -146 349 -92 c 0
 349 -50.599609375 367.41015625 -20.8798828125 391.490234375 0 c 1
 40 0 l 2
 31 0 26 4 26 13 c 2
 26 40 l 2
 26 48 32 53 40 53 c 2
 41 53 l 2
 84 53 105 80 105 136 c 2
 105 523 l 2
 105 578 84 606 40 606 c 0
 32 606 26 612 26 620 c 2
 26 646 l 2
 26 655 31 660 40 660 c 2
 480 660 l 2
 489 660 493 660 497 664 c 2
 502 669 l 2
 504 671 507 671 510 671 c 0
 514 671 518 669 521 664 c 2
 590 545 l 2
 592 542 593 539 593 537 c 0
 593 532 590 528 586 526 c 2
 551 507 l 2
 546 504 544 503 541 503 c 0
 537 503 534 506 531 511 c 2
 528 516 l 2
 492 576 455 598 387 598 c 2
 245 598 l 1
 245 391 l 1
 322 391 l 2
 375 391 406 411 406 450 c 2
 406 456 l 2
 406 465 410 469 419 469 c 2
 445 469 l 2
 454 469 458 465 458 456 c 2
 458 256 l 2
 458 247 454 243 445 243 c 2
 419 243 l 2
 410 243 406 247 406 256 c 2
 406 261 l 2
 406 301 376 320 322 320 c 2
 245 320 l 1
 245 146 l 2
 245 92 266 62 305 62 c 2
 363 62 l 2
 492 62 541 96 590 194 c 2
 593 200 l 2
 596 206 604 209 611 205 c 2
 639 189 l 2
EndSplineSet
Substitution2: "'c2sc' Capitals to Small Capitals in Latin lookup 11 subtable" Eogonek.sc
AlternateSubs2: "'aalt' Access All Alternates in Latin lookup 0 subtable" Eogonek.sc
Position2: "'cpsp' Capital Spacing in Latin lookup 0 subtable" dx=5 dy=0 dh=10 dv=0
EndChar

StartChar: uni1EBC
Encoding: 7868 7868 71
Width: 664
GlyphClass: 2
Flags: MW
HStem: 0 53<35.5 41 40 41 41 62.5 40 521> 0 62<305 363 363 427.5> 320 71<245 322 245 322> 598 62<245 387 245 245> 606 54<40 62> 651 20G<508.5 512> 712 76<374 385 374 411> 796 75<258 269>
VStem: 105 140<136 146 146 320 391 523 523 550.5> 167 80<769 779.5 769 807> 395 80<803 814> 406 52<256 261 261 281 450 456>
AnchorPoint: "Anchor-6" 521 0 basechar 0
AnchorPoint: "Anchor-5" 321 845 basechar 0
AnchorPoint: "Anchor-4" 329 0 basechar 0
LayerCount: 2
Fore
SplineSet
639 189 m 2x7090
 648 184 648 179 644 170 c 2
 561 -4 l 2
 558 -10 555 -12 551 -12 c 0
 548 -12 545 -12 543 -9 c 2
 539 -4 l 2
 536 0 532 0 521 0 c 2
 40 0 l 2
 31 0 26 4 26 13 c 2x7090
 26 40 l 2
 26 48 32 53 40 53 c 2
 41 53 l 2
 84 53 105 80 105 136 c 2
 105 523 l 2
 105 578 84 606 40 606 c 0
 32 606 26 612 26 620 c 2xa890
 26 646 l 2
 26 655 31 660 40 660 c 2
 480 660 l 2x7090
 489 660 493 660 497 664 c 2
 502 669 l 2
 504 671 507 671 510 671 c 0
 514 671 518 669 521 664 c 2x6490
 590 545 l 2
 592 542 593 539 593 537 c 0
 593 532 590 528 586 526 c 2
 551 507 l 2
 546 504 544 503 541 503 c 0
 537 503 534 506 531 511 c 2
 528 516 l 2
 492 576 455 598 387 598 c 2
 245 598 l 1
 245 391 l 1
 322 391 l 2
 375 391 406 411 406 450 c 2
 406 456 l 2
 406 465 410 469 419 469 c 2
 445 469 l 2
 454 469 458 465 458 456 c 2
 458 256 l 2
 458 247 454 243 445 243 c 2
 419 243 l 2
 410 243 406 247 406 256 c 2
 406 261 l 2
 406 301 376 320 322 320 c 2
 245 320 l 1
 245 146 l 2
 245 92 266 62 305 62 c 2
 363 62 l 2
 492 62 541 96 590 194 c 2
 593 200 l 2
 596 206 604 209 611 205 c 2
 639 189 l 2x7090
350 812 m 0x7150
 361 795 369 788 379 788 c 0
 391 788 395 798 395 808 c 0
 395 820 392 832 382 845 c 1
 392 856 412 872 431 872 c 0
 446 872 475 840 475 804 c 0
 475 747 433 712 389 712 c 0x72a0
 328 712 306 747 292 771 c 0
 282 789 274 796 264 796 c 0
 252 796 247 784 247 775 c 0
 247 763 251 751 261 738 c 1
 251 727 231 711 211 711 c 0
 196 711 167 744 167 778 c 0
 167 836 210 871 254 871 c 0
 314 871 337 834 350 812 c 0x7150
EndSplineSet
Substitution2: "'c2sc' Capitals to Small Capitals in Latin lookup 11 subtable" uni1EBC.sc
AlternateSubs2: "'aalt' Access All Alternates in Latin lookup 0 subtable" uni1EBC.sc
Position2: "'cpsp' Capital Spacing in Latin lookup 0 subtable" dx=5 dy=0 dh=10 dv=0
EndChar

StartChar: uni018F
Encoding: 399 399 72
Width: 686
GlyphClass: 1
Flags: MW
HStem: -11 72 422 20G 588 83
VStem: 53 155 504 151
LayerCount: 2
Fore
SplineSet
330 -11 m 0
 111 -11 52.970703125 161.009765625 52.970703125 235.009765625 c 0
 52.970703125 244.009765625 54.970703125 250.009765625 65.970703125 255.009765625 c 2
 486.970703125 442.009765625 l 1
 459.970703125 532.009765625 403.970703125 588.009765625 312.970703125 588.009765625 c 0
 182.970703125 588.009765625 127.970703125 508.009765625 99.970703125 444.009765625 c 0
 94.7802734375 432.139648438 86.3603515625 430.01953125 73.990234375 436.009765625 c 2
 42.990234375 451.009765625 l 2
 31.9306640625 456.349609375 29.1103515625 457.33984375 33 469 c 0
 70 561 158 671 327 671 c 0
 539 671 655 528 655 339 c 0
 655 192 583 -11 330 -11 c 0
336.970703125 61.009765625 m 0
 462.970703125 61.009765625 503.970703125 202.009765625 503.970703125 300.009765625 c 0
 503.970703125 320.009765625 502.970703125 340.009765625 501.970703125 359.009765625 c 1
 207.970703125 213.009765625 l 1
 207.970703125 202.009765625 l 2
 207.970703125 140.009765625 236.970703125 61.009765625 336.970703125 61.009765625 c 0
EndSplineSet
Substitution2: "'c2sc' Capitals to Small Capitals in Latin lookup 11 subtable" uni018F.sc
AlternateSubs2: "'aalt' Access All Alternates in Latin lookup 0 subtable" uni018F.sc
Position2: "'cpsp' Capital Spacing in Latin lookup 0 subtable" dx=5 dy=0 dh=10 dv=0
EndChar

StartChar: F
Encoding: 70 70 73
Width: 611
GlyphClass: 1
Flags: MW
HStem: 0 53<35.5 41 40 41 41 62.5 304 311> 312 70<245 322 245 322> 598 62<245 370 245 245> 606 54<40 62> 651 20G<508.5 512>
VStem: 105 140<136 312 382 523 523 550.5> 406 52<247 253 253 272.5 441 447>
LayerCount: 2
Fore
SplineSet
245 136 m 2xe6
 245 84 265 53 304 53 c 2
 311 53 l 2
 319 53 324 48 324 40 c 2
 324 13 l 2
 324 5 319 0 311 0 c 2
 40 0 l 2
 31 0 26 4 26 13 c 2
 26 40 l 2
 26 48 32 53 40 53 c 2
 41 53 l 2
 84 53 105 80 105 136 c 2
 105 523 l 2
 105 578 84 606 40 606 c 0
 32 606 26 612 26 620 c 2xd6
 26 646 l 2
 26 655 31 660 40 660 c 2
 480 660 l 2xe6
 489 660 493 661 497 664 c 2
 502 669 l 2
 504 671 507 671 510 671 c 0
 514 671 518 669 521 664 c 2xce
 590 545 l 2
 592 542 593 539 593 537 c 0
 593 532 590 529 586 526 c 2
 551 507 l 2
 546 504 544 503 541 503 c 0
 537 503 533 506 531 511 c 2
 528 516 l 2
 492 576 437 598 370 598 c 2
 245 598 l 1
 245 382 l 1
 322 382 l 2
 375 382 406 402 406 441 c 2
 406 447 l 2
 406 456 410 460 419 460 c 2
 445 460 l 2
 454 460 458 456 458 447 c 2
 458 247 l 2
 458 238 454 234 445 234 c 2
 419 234 l 2
 410 234 406 238 406 247 c 2
 406 253 l 2
 406 292 376 312 322 312 c 2
 245 312 l 1
 245 136 l 2xe6
EndSplineSet
Substitution2: "'ss04' Style Set 4 in Latin lookup 33 subtable" u1F155
Substitution2: "'ss03' Style Set 3 in Latin lookup 31 subtable" uni24BB
Substitution2: "'c2sc' Capitals to Small Capitals in Latin lookup 11 subtable" F.sc
AlternateSubs2: "'aalt' Access All Alternates in Latin lookup 0 subtable" F.sc uni24BB u1F155
Position2: "'cpsp' Capital Spacing in Latin lookup 0 subtable" dx=5 dy=0 dh=10 dv=0
EndChar

StartChar: G
Encoding: 71 71 74
Width: 679
GlyphClass: 2
Flags: MW
HStem: -11 85<303 390.5 303 416> 275 52<367 649 371 378 633.5 642 642 649> 601 70<297.5 391.5>
VStem: 31 150<296.5 397> 472 147<150 173 173 223> 478 147<475 498.5 475 499.5>
AnchorPoint: "Anchor-5" 340 660 basechar 0
AnchorPoint: "Anchor-4" 348 0 basechar 0
LayerCount: 2
Fore
SplineSet
181 362 m 0xf8
 181 231 235 74 371 74 c 0
 410 74 472 86 472 128 c 2
 472 173 l 2
 472 273 423 275 378 275 c 2
 371 275 l 2
 363 275 358 279 358 288 c 2
 358 314 l 2
 358 323 363 327 371 327 c 2
 649 327 l 2
 657 327 662 322 662 314 c 2
 662 288 l 2
 662 279 657 275 649 275 c 2
 642 275 l 2
 625 275 619 266 619 246 c 2
 619 150 l 1xf8
 578 56 483 -11 349 -11 c 0
 152 -11 31 135 31 323 c 0
 31 471 103 671 356 671 c 0
 568 671 625 517 625 480 c 0
 625 470 620 466 610 463 c 2
 502 425 l 2
 497 423 492 422 487 422 c 0
 481 422 476 422 476 430 c 0
 476 436 478 444 478 459 c 0xf4
 478 540 435 601 348 601 c 0
 247 601 181 503 181 362 c 0xf8
EndSplineSet
Substitution2: "'ss04' Style Set 4 in Latin lookup 33 subtable" u1F156
Substitution2: "'ss03' Style Set 3 in Latin lookup 31 subtable" uni24BC
Substitution2: "'c2sc' Capitals to Small Capitals in Latin lookup 11 subtable" G.sc
AlternateSubs2: "'aalt' Access All Alternates in Latin lookup 0 subtable" G.sc uni24BC u1F156
Position2: "'cpsp' Capital Spacing in Latin lookup 0 subtable" dx=5 dy=0 dh=10 dv=0
EndChar

StartChar: Gbreve
Encoding: 286 286 75
Width: 679
GlyphClass: 2
Flags: MW
HStem: -11 85<303 390.5 303 416> 275 52<367 649 371 378 633.5 642 642 649> 601 70<297.5 391.5> 711 72<321 359.5 321 385.5>
VStem: 31 150<296.5 397> 472 147<150 173 173 223> 478 147<475 498.5 475 499.5>
AnchorPoint: "Anchor-5" 340 837 basechar 0
AnchorPoint: "Anchor-4" 348 0 basechar 0
LayerCount: 2
Fore
SplineSet
181 362 m 0xfc
 181 231 235 74 371 74 c 0
 410 74 472 86 472 128 c 2
 472 173 l 2
 472 273 423 275 378 275 c 2
 371 275 l 2
 363 275 358 279 358 288 c 2
 358 314 l 2
 358 323 363 327 371 327 c 2
 649 327 l 2
 657 327 662 322 662 314 c 2
 662 288 l 2
 662 279 657 275 649 275 c 2
 642 275 l 2
 625 275 619 266 619 246 c 2
 619 150 l 1xfc
 578 56 483 -11 349 -11 c 0
 152 -11 31 135 31 323 c 0
 31 471 103 671 356 671 c 0
 568 671 625 517 625 480 c 0
 625 470 620 466 610 463 c 2
 502 425 l 2
 497 423 492 422 487 422 c 0
 481 422 476 422 476 430 c 0
 476 436 478 444 478 459 c 0xfa
 478 540 435 601 348 601 c 0
 247 601 181 503 181 362 c 0xfc
340 711 m 0
 250 711 194 787 194 832 c 0
 194 842 201 846 209 847 c 0
 227 849 254 853 264 853 c 0
 272 853 276 849 278 840 c 0
 286 803 302 783 340 783 c 0
 379 783 395 803 403 840 c 0
 404 849 409 853 417 853 c 0
 426 853 454 849 471 847 c 0
 479 846 486 842 486 832 c 0
 486 787 431 711 340 711 c 0
EndSplineSet
Substitution2: "'c2sc' Capitals to Small Capitals in Latin lookup 11 subtable" Gbreve.sc
AlternateSubs2: "'aalt' Access All Alternates in Latin lookup 0 subtable" Gbreve.sc
Position2: "'cpsp' Capital Spacing in Latin lookup 0 subtable" dx=5 dy=0 dh=10 dv=0
EndChar

StartChar: Gcaron
Encoding: 486 486 76
Width: 679
GlyphClass: 2
Flags: MW
HStem: -11 85<303 390.5 303 416> 275 52<367 649 371 378 633.5 642 642 649> 601 70<297.5 391.5>
VStem: 31 150<296.5 397> 472 147<150 173 173 223> 478 147<475 498.5 475 499.5>
AnchorPoint: "Anchor-5" 340 845 basechar 0
AnchorPoint: "Anchor-4" 348 0 basechar 0
LayerCount: 2
Fore
SplineSet
181 362 m 0xf8
 181 231 235 74 371 74 c 0
 410 74 472 86 472 128 c 2
 472 173 l 2
 472 273 423 275 378 275 c 2
 371 275 l 2
 363 275 358 279 358 288 c 2
 358 314 l 2
 358 323 363 327 371 327 c 2
 649 327 l 2
 657 327 662 322 662 314 c 2
 662 288 l 2
 662 279 657 275 649 275 c 2
 642 275 l 2
 625 275 619 266 619 246 c 2
 619 150 l 1xf8
 578 56 483 -11 349 -11 c 0
 152 -11 31 135 31 323 c 0
 31 471 103 671 356 671 c 0
 568 671 625 517 625 480 c 0
 625 470 620 466 610 463 c 2
 502 425 l 2
 497 423 492 422 487 422 c 0
 481 422 476 422 476 430 c 0
 476 436 478 444 478 459 c 0xf4
 478 540 435 601 348 601 c 0
 247 601 181 503 181 362 c 0xf8
340 793 m 1
 366 842 410 897 467 897 c 0
 497 897 511 868 511 835 c 0
 511 820 510 807 499 802 c 0
 441 780 411 765 340 708 c 1
 269 765 239 780 181 802 c 0
 170 807 169 820 169 835 c 0
 169 868 183 897 213 897 c 0
 270 897 314 842 340 793 c 1
EndSplineSet
Substitution2: "'c2sc' Capitals to Small Capitals in Latin lookup 11 subtable" Gcaron.sc
AlternateSubs2: "'aalt' Access All Alternates in Latin lookup 0 subtable" Gcaron.sc
Position2: "'cpsp' Capital Spacing in Latin lookup 0 subtable" dx=5 dy=0 dh=10 dv=0
EndChar

StartChar: Gcircumflex
Encoding: 284 284 77
Width: 679
GlyphClass: 2
Flags: MW
HStem: -11 85<303 390.5 303 416> 275 52<367 649 371 378 633.5 642 642 649> 601 70<297.5 391.5>
VStem: 31 150<296.5 397> 472 147<150 173 173 223> 478 147<475 498.5 475 499.5>
AnchorPoint: "Anchor-7" 340 812 basechar 0
AnchorPoint: "Anchor-5" 340 867 basechar 0
AnchorPoint: "Anchor-4" 348 0 basechar 0
LayerCount: 2
Fore
SplineSet
181 362 m 0xf8
 181 231 235 74 371 74 c 0
 410 74 472 86 472 128 c 2
 472 173 l 2
 472 273 423 275 378 275 c 2
 371 275 l 2
 363 275 358 279 358 288 c 2
 358 314 l 2
 358 323 363 327 371 327 c 2
 649 327 l 2
 657 327 662 322 662 314 c 2
 662 288 l 2
 662 279 657 275 649 275 c 2
 642 275 l 2
 625 275 619 266 619 246 c 2
 619 150 l 1xf8
 578 56 483 -11 349 -11 c 0
 152 -11 31 135 31 323 c 0
 31 471 103 671 356 671 c 0
 568 671 625 517 625 480 c 0
 625 470 620 466 610 463 c 2
 502 425 l 2
 497 423 492 422 487 422 c 0
 481 422 476 422 476 430 c 0
 476 436 478 444 478 459 c 0xf4
 478 540 435 601 348 601 c 0
 247 601 181 503 181 362 c 0xf8
340 812 m 1
 314 763 270 708 213 708 c 0
 183 708 169 737 169 770 c 0
 169 785 170 798 181 803 c 0
 239 825 269 840 340 897 c 1
 411 840 441 825 499 803 c 0
 510 798 511 785 511 770 c 0
 511 737 497 708 467 708 c 0
 410 708 366 763 340 812 c 1
EndSplineSet
Substitution2: "'c2sc' Capitals to Small Capitals in Latin lookup 11 subtable" Gcircumflex.sc
AlternateSubs2: "'aalt' Access All Alternates in Latin lookup 0 subtable" Gcircumflex.sc
Position2: "'cpsp' Capital Spacing in Latin lookup 0 subtable" dx=5 dy=0 dh=10 dv=0
EndChar

StartChar: uni0122
Encoding: 290 290 78
Width: 679
GlyphClass: 2
Flags: MW
HStem: -11 85<303 390.5 303 416> 275 52<367 649 371 378 633.5 642 642 649> 601 70<297.5 391.5>
VStem: 31 150<296.5 397> 472 147<150 173 173 223> 478 147<475 498.5 475 499.5>
AnchorPoint: "Anchor-5" 340 660 basechar 0
AnchorPoint: "Anchor-4" 348 0 basechar 0
LayerCount: 2
Fore
SplineSet
181 362 m 0xf8
 181 231 235 74 371 74 c 0
 410 74 472 86 472 128 c 2
 472 173 l 2
 472 273 423 275 378 275 c 2
 371 275 l 2
 363 275 358 279 358 288 c 2
 358 314 l 2
 358 323 363 327 371 327 c 2
 649 327 l 2
 657 327 662 322 662 314 c 2
 662 288 l 2
 662 279 657 275 649 275 c 2
 642 275 l 2
 625 275 619 266 619 246 c 2
 619 150 l 1xf8
 578 56 483 -11 349 -11 c 0
 152 -11 31 135 31 323 c 0
 31 471 103 671 356 671 c 0
 568 671 625 517 625 480 c 0
 625 470 620 466 610 463 c 2
 502 425 l 2
 497 423 492 422 487 422 c 0
 481 422 476 422 476 430 c 0
 476 436 478 444 478 459 c 0xf4
 478 540 435 601 348 601 c 0
 247 601 181 503 181 362 c 0xf8
397 -85 m 2
 405 -93 410 -104 410 -120 c 0
 410 -126 409 -132 408 -139 c 0
 398 -189 318 -258 303 -258 c 0
 299 -258 296 -256 278 -248 c 1
 309 -224 328 -193 328 -173 c 0
 328 -168 326 -163 322 -159 c 2
 297 -134 l 2
 290 -126 286 -118 286 -110 c 0
 286 -102 290 -93 297 -85 c 2
 322 -60 l 2
 331 -52 339 -48 347 -48 c 0
 355 -48 363 -52 372 -60 c 2
 397 -85 l 2
EndSplineSet
Substitution2: "'c2sc' Capitals to Small Capitals in Latin lookup 11 subtable" uni0122.sc
AlternateSubs2: "'aalt' Access All Alternates in Latin lookup 0 subtable" uni0122.sc
Position2: "'cpsp' Capital Spacing in Latin lookup 0 subtable" dx=5 dy=0 dh=10 dv=0
EndChar

StartChar: Gdotaccent
Encoding: 288 288 79
Width: 679
GlyphClass: 2
Flags: MW
HStem: -11 85<303 390.5 303 416> 275 52<367 649 371 378 633.5 642 642 649> 601 70<297.5 391.5> 705.08 159.84
VStem: 31 150<296.5 397> 259.98 161.04 472 147 478 147
AnchorPoint: "Anchor-5" 340 845 basechar 0
AnchorPoint: "Anchor-4" 348 0 basechar 0
LayerCount: 2
Fore
SplineSet
181 362 m 0xea
 181 231 235 74 371 74 c 0
 410 74 472 86 472 128 c 2
 472 173 l 2
 472 273 423 275 378 275 c 2
 371 275 l 2
 363 275 358 279 358 288 c 2
 358 314 l 2
 358 323 363 327 371 327 c 2
 649 327 l 2
 657 327 662 322 662 314 c 2
 662 288 l 2
 662 279 657 275 649 275 c 2
 642 275 l 2
 625 275 619 266 619 246 c 2
 619 150 l 1xea
 578 56 483 -11 349 -11 c 0
 152 -11 31 135 31 323 c 0
 31 471 103 671 356 671 c 0
 568 671 625 517 625 480 c 0
 625 470 620 466 610 463 c 2
 502 425 l 2
 497 423 492 422 487 422 c 0
 481 422 476 422 476 430 c 0
 476 436 478 444 478 459 c 0xe9
 478 540 435 601 348 601 c 0
 247 601 181 503 181 362 c 0xea
339.889648438 864.91015625 m 0xfe
 359.259765625 864.91015625 374.98828125 857.650390625 394.358398438 838.280273438 c 0
 413.728515625 818.91015625 420.98828125 804.379882812 420.98828125 785.01953125 c 0
 420.98828125 765.649414062 412.518554688 749.909179688 394.358398438 731.749023438 c 0
 374.98828125 712.37890625 359.258789062 705.119140625 339.888671875 705.119140625 c 0
 321.71875 705.119140625 307.19921875 712.37890625 286.619140625 731.749023438 c 0
 267.249023438 749.909179688 259.989257812 765.649414062 259.989257812 785.01953125 c 0
 259.989257812 804.379882812 267.249023438 818.91015625 286.619140625 838.280273438 c 0
 305.989257812 857.650390625 321.719726562 864.91015625 339.889648438 864.91015625 c 0xfe
EndSplineSet
Substitution2: "'c2sc' Capitals to Small Capitals in Latin lookup 11 subtable" Gdotaccent.sc
AlternateSubs2: "'aalt' Access All Alternates in Latin lookup 0 subtable" Gdotaccent.sc
Position2: "'cpsp' Capital Spacing in Latin lookup 0 subtable" dx=5 dy=0 dh=10 dv=0
EndChar

StartChar: uni1E20
Encoding: 7712 7712 80
Width: 679
GlyphClass: 2
Flags: MW
HStem: -11 85<303 390.5 303 416> 275 52<367 649 371 378 633.5 642 642 649> 601 70<297.5 391.5> 721 79<217.5 458 222 458>
VStem: 31 150<296.5 397> 472 147<150 173 173 223> 478 147<475 498.5 475 499.5>
AnchorPoint: "Anchor-5" 340 792 basechar 0
AnchorPoint: "Anchor-4" 348 0 basechar 0
LayerCount: 2
Fore
SplineSet
181 362 m 0xfc
 181 231 235 74 371 74 c 0
 410 74 472 86 472 128 c 2
 472 173 l 2
 472 273 423 275 378 275 c 2
 371 275 l 2
 363 275 358 279 358 288 c 2
 358 314 l 2
 358 323 363 327 371 327 c 2
 649 327 l 2
 657 327 662 322 662 314 c 2
 662 288 l 2
 662 279 657 275 649 275 c 2
 642 275 l 2
 625 275 619 266 619 246 c 2
 619 150 l 1xfc
 578 56 483 -11 349 -11 c 0
 152 -11 31 135 31 323 c 0
 31 471 103 671 356 671 c 0
 568 671 625 517 625 480 c 0
 625 470 620 466 610 463 c 2
 502 425 l 2
 497 423 492 422 487 422 c 0
 481 422 476 422 476 430 c 0
 476 436 478 444 478 459 c 0xfa
 478 540 435 601 348 601 c 0
 247 601 181 503 181 362 c 0xfc
471 734 m 2
 471 726 467 721 458 721 c 2
 222 721 l 2
 213 721 209 726 209 734 c 2
 209 787 l 2
 209 796 213 800 222 800 c 2
 458 800 l 2
 467 800 471 796 471 787 c 2
 471 734 l 2
EndSplineSet
Substitution2: "'c2sc' Capitals to Small Capitals in Latin lookup 11 subtable" uni1E20.sc
AlternateSubs2: "'aalt' Access All Alternates in Latin lookup 0 subtable" uni1E20.sc
Position2: "'cpsp' Capital Spacing in Latin lookup 0 subtable" dx=5 dy=0 dh=10 dv=0
EndChar

StartChar: H
Encoding: 72 72 81
Width: 790
GlyphClass: 2
Flags: MW
HStem: 0 53<35.5 45 40 45 45 67.5 304 310 480 486 486 508.5 745 751> 304 69<245 546 245 546> 607 53<35.5 310 40 45 282 304 304 310 480 486 722.5 745 745 751>
VStem: 104 141<136 304 373 524> 546 140<136 304 304 304 373 524>
AnchorPoint: "Anchor-5" 395 660 basechar 0
AnchorPoint: "Anchor-4" 395 0 basechar 0
LayerCount: 2
Fore
SplineSet
686 136 m 2
 686 90 700 53 745 53 c 2
 751 53 l 2
 759 53 764 48 764 40 c 2
 764 13 l 2
 764 4 759 0 751 0 c 2
 480 0 l 2
 472 0 467 4 467 13 c 2
 467 40 l 2
 467 48 472 53 480 53 c 2
 486 53 l 2
 531 53 546 90 546 136 c 2
 546 304 l 1
 245 304 l 1
 245 136 l 2
 245 90 260 53 304 53 c 2
 310 53 l 2
 319 53 323 48 323 40 c 2
 323 13 l 2
 323 4 319 0 310 0 c 2
 40 0 l 2
 31 0 26 4 26 13 c 2
 26 40 l 2
 26 48 31 53 40 53 c 2
 45 53 l 2
 90 53 104 90 104 136 c 2
 104 524 l 2
 104 570 90 607 45 607 c 2
 40 607 l 2
 31 607 26 612 26 620 c 2
 26 647 l 2
 26 656 31 660 40 660 c 2
 310 660 l 2
 319 660 323 656 323 647 c 2
 323 620 l 2
 323 612 319 607 310 607 c 2
 304 607 l 2
 260 607 245 570 245 524 c 2
 245 373 l 1
 546 373 l 1
 546 524 l 2
 546 570 531 607 486 607 c 2
 480 607 l 2
 472 607 467 612 467 620 c 2
 467 647 l 2
 467 656 472 660 480 660 c 2
 751 660 l 2
 759 660 764 656 764 647 c 2
 764 620 l 2
 764 612 759 607 751 607 c 2
 745 607 l 2
 700 607 686 570 686 524 c 2
 686 136 l 2
EndSplineSet
Substitution2: "'ss04' Style Set 4 in Latin lookup 33 subtable" u1F157
Substitution2: "'ss03' Style Set 3 in Latin lookup 31 subtable" uni24BD
Substitution2: "'c2sc' Capitals to Small Capitals in Latin lookup 11 subtable" H.sc
AlternateSubs2: "'aalt' Access All Alternates in Latin lookup 0 subtable" H.sc uni24BD u1F157
Position2: "'cpsp' Capital Spacing in Latin lookup 0 subtable" dx=5 dy=0 dh=10 dv=0
EndChar

StartChar: Hbar
Encoding: 294 294 82
Width: 790
GlyphClass: 2
Flags: MW
HStem: 0 53<35.5 45 40 45 45 67.5 304 310 480 486 486 508.5 745 751> 304 69<245 546 245 546> 440 70<30 104 34 104 245 546 686 756> 607 53<35.5 310 40 45 282 304 304 310 480 486 722.5 745 745 751>
VStem: 104 141<136 304 373 440 510 524> 546 140<136 304 304 304 373 440 510 524>
AnchorPoint: "Anchor-5" 395 660 basechar 0
AnchorPoint: "Anchor-4" 395 0 basechar 0
LayerCount: 2
Fore
SplineSet
686 136 m 2
 686 90 700 53 745 53 c 2
 751 53 l 2
 759 53 764 48 764 40 c 2
 764 13 l 2
 764 4 759 0 751 0 c 2
 480 0 l 2
 472 0 467 4 467 13 c 2
 467 40 l 2
 467 48 472 53 480 53 c 2
 486 53 l 2
 531 53 546 90 546 136 c 2
 546 304 l 1
 245 304 l 1
 245 136 l 2
 245 90 260 53 304 53 c 2
 310 53 l 2
 319 53 323 48 323 40 c 2
 323 13 l 2
 323 4 319 0 310 0 c 2
 40 0 l 2
 31 0 26 4 26 13 c 2
 26 40 l 2
 26 48 31 53 40 53 c 2
 45 53 l 2
 90 53 104 90 104 136 c 2
 104 440 l 1
 34 440 l 2
 26 440 21 444 21 453 c 2
 21 497 l 2
 21 506 26 510 34 510 c 2
 104 510 l 1
 104 524 l 2
 104 570 90 607 45 607 c 2
 40 607 l 2
 31 607 26 612 26 620 c 2
 26 647 l 2
 26 656 31 660 40 660 c 2
 310 660 l 2
 319 660 323 656 323 647 c 2
 323 620 l 2
 323 612 319 607 310 607 c 2
 304 607 l 2
 260 607 245 570 245 524 c 2
 245 510 l 1
 546 510 l 1
 546 524 l 2
 546 570 531 607 486 607 c 2
 480 607 l 2
 472 607 467 612 467 620 c 2
 467 647 l 2
 467 656 472 660 480 660 c 2
 751 660 l 2
 759 660 764 656 764 647 c 2
 764 620 l 2
 764 612 759 607 751 607 c 2
 745 607 l 2
 700 607 686 570 686 524 c 2
 686 510 l 1
 756 510 l 2
 765 510 769 506 769 497 c 2
 769 453 l 2
 769 444 765 440 756 440 c 2
 686 440 l 1
 686 136 l 2
245 373 m 1
 546 373 l 1
 546 440 l 1
 245 440 l 1
 245 373 l 1
EndSplineSet
Substitution2: "'c2sc' Capitals to Small Capitals in Latin lookup 11 subtable" Hbar.sc
AlternateSubs2: "'aalt' Access All Alternates in Latin lookup 0 subtable" Hbar.sc
Position2: "'cpsp' Capital Spacing in Latin lookup 0 subtable" dx=5 dy=0 dh=10 dv=0
EndChar

StartChar: uni1E2A
Encoding: 7722 7722 83
Width: 790
GlyphClass: 2
Flags: MW
HStem: -206.19 72 0 53<35.5 45 40 45 45 67.5 304 310 480 486 486 508.5 745 751> 304 69<245 546 245 546> 607 53<35.5 310 40 45 282 304 304 310 480 486 722.5 745 745 751>
VStem: 104 141<136 304 373 524> 546 140<136 304 304 304 373 524>
AnchorPoint: "Anchor-5" 395 660 basechar 0
AnchorPoint: "Anchor-4" 395 0 basechar 0
LayerCount: 2
Fore
SplineSet
686 136 m 2
 686 90 700 53 745 53 c 2
 751 53 l 2
 759 53 764 48 764 40 c 2
 764 13 l 2
 764 4 759 0 751 0 c 2
 480 0 l 2
 472 0 467 4 467 13 c 2
 467 40 l 2
 467 48 472 53 480 53 c 2
 486 53 l 2
 531 53 546 90 546 136 c 2
 546 304 l 1
 245 304 l 1
 245 136 l 2
 245 90 260 53 304 53 c 2
 310 53 l 2
 319 53 323 48 323 40 c 2
 323 13 l 2
 323 4 319 0 310 0 c 2
 40 0 l 2
 31 0 26 4 26 13 c 2
 26 40 l 2
 26 48 31 53 40 53 c 2
 45 53 l 2
 90 53 104 90 104 136 c 2
 104 524 l 2
 104 570 90 607 45 607 c 2
 40 607 l 2
 31 607 26 612 26 620 c 2
 26 647 l 2
 26 656 31 660 40 660 c 2
 310 660 l 2
 319 660 323 656 323 647 c 2
 323 620 l 2
 323 612 319 607 310 607 c 2
 304 607 l 2
 260 607 245 570 245 524 c 2
 245 373 l 1
 546 373 l 1
 546 524 l 2
 546 570 531 607 486 607 c 2
 480 607 l 2
 472 607 467 612 467 620 c 2
 467 647 l 2
 467 656 472 660 480 660 c 2
 751 660 l 2
 759 660 764 656 764 647 c 2
 764 620 l 2
 764 612 759 607 751 607 c 2
 745 607 l 2
 700 607 686 570 686 524 c 2
 686 136 l 2
395 -206.190429688 m 0
 305 -206.190429688 249 -130.190429688 249 -85.1904296875 c 0
 249 -75.1904296875 256 -71.1904296875 264 -70.1904296875 c 0
 282 -68.1904296875 309 -64.1904296875 319 -64.1904296875 c 0
 327 -64.1904296875 331 -68.1904296875 333 -77.1904296875 c 0
 341 -114.190429688 357 -134.190429688 395 -134.190429688 c 0
 434 -134.190429688 450 -114.190429688 458 -77.1904296875 c 0
 459 -68.1904296875 464 -64.1904296875 472 -64.1904296875 c 0
 481 -64.1904296875 509 -68.1904296875 526 -70.1904296875 c 0
 534 -71.1904296875 541 -75.1904296875 541 -85.1904296875 c 0
 541 -130.190429688 486 -206.190429688 395 -206.190429688 c 0
EndSplineSet
Substitution2: "'c2sc' Capitals to Small Capitals in Latin lookup 11 subtable" uni1E2A.sc
AlternateSubs2: "'aalt' Access All Alternates in Latin lookup 0 subtable" uni1E2A.sc
Position2: "'cpsp' Capital Spacing in Latin lookup 0 subtable" dx=5 dy=0 dh=10 dv=0
EndChar

StartChar: Hcircumflex
Encoding: 292 292 84
Width: 790
GlyphClass: 2
Flags: MW
HStem: 0 53<35.5 45 40 45 45 67.5 304 310 480 486 486 508.5 745 751> 304 69<245 546 245 546> 607 53<35.5 310 40 45 282 304 304 310 480 486 722.5 745 745 751>
VStem: 104 141<136 304 373 524> 546 140<136 304 304 304 373 524>
AnchorPoint: "Anchor-7" 395 812 basechar 0
AnchorPoint: "Anchor-5" 395 867 basechar 0
AnchorPoint: "Anchor-4" 395 0 basechar 0
LayerCount: 2
Fore
SplineSet
686 136 m 2
 686 90 700 53 745 53 c 2
 751 53 l 2
 759 53 764 48 764 40 c 2
 764 13 l 2
 764 4 759 0 751 0 c 2
 480 0 l 2
 472 0 467 4 467 13 c 2
 467 40 l 2
 467 48 472 53 480 53 c 2
 486 53 l 2
 531 53 546 90 546 136 c 2
 546 304 l 1
 245 304 l 1
 245 136 l 2
 245 90 260 53 304 53 c 2
 310 53 l 2
 319 53 323 48 323 40 c 2
 323 13 l 2
 323 4 319 0 310 0 c 2
 40 0 l 2
 31 0 26 4 26 13 c 2
 26 40 l 2
 26 48 31 53 40 53 c 2
 45 53 l 2
 90 53 104 90 104 136 c 2
 104 524 l 2
 104 570 90 607 45 607 c 2
 40 607 l 2
 31 607 26 612 26 620 c 2
 26 647 l 2
 26 656 31 660 40 660 c 2
 310 660 l 2
 319 660 323 656 323 647 c 2
 323 620 l 2
 323 612 319 607 310 607 c 2
 304 607 l 2
 260 607 245 570 245 524 c 2
 245 373 l 1
 546 373 l 1
 546 524 l 2
 546 570 531 607 486 607 c 2
 480 607 l 2
 472 607 467 612 467 620 c 2
 467 647 l 2
 467 656 472 660 480 660 c 2
 751 660 l 2
 759 660 764 656 764 647 c 2
 764 620 l 2
 764 612 759 607 751 607 c 2
 745 607 l 2
 700 607 686 570 686 524 c 2
 686 136 l 2
395 812 m 1
 369 763 325 708 268 708 c 0
 238 708 224 737 224 770 c 0
 224 785 225 798 236 803 c 0
 294 825 324 840 395 897 c 1
 466 840 496 825 554 803 c 0
 565 798 566 785 566 770 c 0
 566 737 552 708 522 708 c 0
 465 708 421 763 395 812 c 1
EndSplineSet
Substitution2: "'c2sc' Capitals to Small Capitals in Latin lookup 11 subtable" Hcircumflex.sc
AlternateSubs2: "'aalt' Access All Alternates in Latin lookup 0 subtable" Hcircumflex.sc
Position2: "'cpsp' Capital Spacing in Latin lookup 0 subtable" dx=5 dy=0 dh=10 dv=0
EndChar

StartChar: uni1E24
Encoding: 7716 7716 85
Width: 790
GlyphClass: 2
Flags: MW
HStem: -209.01 159.83 0 53<35.5 45 40 45 45 67.5 304 310 480 486 486 508.5 745 751> 304 69<245 546 245 546> 607 53<35.5 310 40 45 282 304 304 310 480 486 722.5 745 745 751>
VStem: 104 141<136 304 373 524> 314.98 161.04 546 140
AnchorPoint: "Anchor-5" 395 660 basechar 0
AnchorPoint: "Anchor-4" 395 0 basechar 0
LayerCount: 2
Fore
SplineSet
686 136 m 2
 686 90 700 53 745 53 c 2
 751 53 l 2
 759 53 764 48 764 40 c 2
 764 13 l 2
 764 4 759 0 751 0 c 2
 480 0 l 2
 472 0 467 4 467 13 c 2
 467 40 l 2
 467 48 472 53 480 53 c 2
 486 53 l 2
 531 53 546 90 546 136 c 2
 546 304 l 1
 245 304 l 1
 245 136 l 2
 245 90 260 53 304 53 c 2
 310 53 l 2
 319 53 323 48 323 40 c 2
 323 13 l 2
 323 4 319 0 310 0 c 2
 40 0 l 2
 31 0 26 4 26 13 c 2
 26 40 l 2
 26 48 31 53 40 53 c 2
 45 53 l 2
 90 53 104 90 104 136 c 2
 104 524 l 2
 104 570 90 607 45 607 c 2
 40 607 l 2
 31 607 26 612 26 620 c 2
 26 647 l 2
 26 656 31 660 40 660 c 2
 310 660 l 2
 319 660 323 656 323 647 c 2
 323 620 l 2
 323 612 319 607 310 607 c 2
 304 607 l 2
 260 607 245 570 245 524 c 2
 245 373 l 1
 546 373 l 1
 546 524 l 2
 546 570 531 607 486 607 c 2
 480 607 l 2
 472 607 467 612 467 620 c 2
 467 647 l 2
 467 656 472 660 480 660 c 2
 751 660 l 2
 759 660 764 656 764 647 c 2
 764 620 l 2
 764 612 759 607 751 607 c 2
 745 607 l 2
 700 607 686 570 686 524 c 2
 686 136 l 2
394.900390625 -49.1796875 m 0
 414.270507812 -49.1796875 430.000976562 -56.439453125 449.37109375 -75.8095703125 c 0
 468.741210938 -95.1796875 476.000976562 -109.69921875 476.000976562 -129.079101562 c 0
 476.000976562 -148.439453125 467.53125 -164.1796875 449.37109375 -182.33984375 c 0
 430.000976562 -201.709960938 414.270507812 -208.969726562 394.900390625 -208.969726562 c 0
 376.73046875 -208.969726562 362.209960938 -201.709960938 341.629882812 -182.33984375 c 0
 322.259765625 -164.1796875 315 -148.439453125 315 -129.079101562 c 0
 315 -109.69921875 322.259765625 -95.1796875 341.629882812 -75.8095703125 c 0
 361 -56.439453125 376.73046875 -49.1796875 394.900390625 -49.1796875 c 0
EndSplineSet
Substitution2: "'c2sc' Capitals to Small Capitals in Latin lookup 11 subtable" uni1E24.sc
AlternateSubs2: "'aalt' Access All Alternates in Latin lookup 0 subtable" uni1E24.sc
Position2: "'cpsp' Capital Spacing in Latin lookup 0 subtable" dx=5 dy=0 dh=10 dv=0
EndChar

StartChar: I
Encoding: 73 73 86
Width: 358
GlyphClass: 2
Flags: MW
HStem: 0 53<39.5 50 44 50 50 72.5 309 314> 607 53<39.5 314 44 50 287 309 309 314>
VStem: 109 141<136 524>
AnchorPoint: "Anchor-6" 314 0 basechar 0
AnchorPoint: "Anchor-5" 180 660 basechar 0
AnchorPoint: "Anchor-4" 180 0 basechar 0
LayerCount: 2
Fore
SplineSet
250 136 m 2
 250 90 265 53 309 53 c 2
 314 53 l 2
 323 53 327 48 327 40 c 2
 327 13 l 2
 327 4 323 0 314 0 c 2
 44 0 l 2
 35 0 31 4 31 13 c 2
 31 40 l 2
 31 48 35 53 44 53 c 2
 50 53 l 2
 95 53 109 90 109 136 c 2
 109 524 l 2
 109 570 95 607 50 607 c 2
 44 607 l 2
 35 607 31 612 31 620 c 2
 31 647 l 2
 31 656 35 660 44 660 c 2
 314 660 l 2
 323 660 327 656 327 647 c 2
 327 620 l 2
 327 612 323 607 314 607 c 2
 309 607 l 2
 265 607 250 570 250 524 c 2
 250 136 l 2
EndSplineSet
Substitution2: "'ss04' Style Set 4 in Latin lookup 33 subtable" u1F158
Substitution2: "'ss03' Style Set 3 in Latin lookup 31 subtable" uni24BE
Substitution2: "'c2sc' Capitals to Small Capitals in Latin lookup 11 subtable" I.sc
AlternateSubs2: "'aalt' Access All Alternates in Latin lookup 0 subtable" I.sc uni24BE u1F158
Position2: "'cpsp' Capital Spacing in Latin lookup 0 subtable" dx=5 dy=0 dh=10 dv=0
EndChar

StartChar: IJ
Encoding: 306 306 87
Width: 776
GlyphClass: 2
Flags: MW
HStem: -11 59<460.5 499.5 460.5 557.5> 0 53<39.5 50 44 50 50 72.5 309 314> 607 53<39.5 314 44 50 287 309 309 314 470 476 713.5 736 736 741>
VStem: 109 141<136 524> 318 115<95.5 138.5> 536 140<141.5 192 192 524>
AnchorPoint: "Anchor-6" 314 0 basechar 0
AnchorPoint: "Anchor-5" 605 660 basechar 0
AnchorPoint: "Anchor-4" 180 0 basechar 0
LayerCount: 2
Fore
SplineSet
250 136 m 2x74
 250 90 265 53 309 53 c 2
 314 53 l 2
 323 53 327 48 327 40 c 2
 327 13 l 2
 327 4 323 0 314 0 c 2
 44 0 l 2
 35 0 31 4 31 13 c 2
 31 40 l 2
 31 48 35 53 44 53 c 2
 50 53 l 2
 95 53 109 90 109 136 c 2
 109 524 l 2
 109 570 95 607 50 607 c 2
 44 607 l 2
 35 607 31 612 31 620 c 2
 31 647 l 2
 31 656 35 660 44 660 c 2
 314 660 l 2
 323 660 327 656 327 647 c 2
 327 620 l 2
 327 612 323 607 314 607 c 2
 309 607 l 2
 265 607 250 570 250 524 c 2
 250 136 l 2x74
741 660 m 2
 750 660 754 656 754 647 c 2
 754 620 l 2
 754 612 750 607 741 607 c 2
 736 607 l 2
 691 607 676 569 676 524 c 2
 676 192 l 2
 676 91 633 -11 482 -11 c 0
 361 -11 318 83 318 108 c 0
 318 117 323 124 332 129 c 2
 414 173 l 2
 420 177 423 178 427 178 c 0
 432 178 435 174 435 166 c 0
 435 157 433 149 433 128 c 0
 433 97 439 48 482 48 c 0
 517 48 536 76 536 113 c 2xbc
 536 524 l 2
 536 570 521 607 476 607 c 2
 470 607 l 2
 462 607 457 612 457 620 c 2
 457 647 l 2
 457 656 462 660 470 660 c 2
 741 660 l 2
EndSplineSet
Substitution2: "'c2sc' Capitals to Small Capitals in Latin lookup 11 subtable" IJ.sc
AlternateSubs2: "'aalt' Access All Alternates in Latin lookup 0 subtable" IJ.sc
Position2: "'cpsp' Capital Spacing in Latin lookup 0 subtable" dx=5 dy=0 dh=10 dv=0
EndChar

StartChar: Iacute
Encoding: 205 205 88
Width: 358
GlyphClass: 2
Flags: MW
HStem: 0 53<39.5 50 44 50 50 72.5 309 314> 607 53<39.5 314 44 50 287 309 309 314>
VStem: 109 141<136 524>
AnchorPoint: "Anchor-6" 314 0 basechar 0
AnchorPoint: "Anchor-5" 212 899 basechar 0
AnchorPoint: "Anchor-4" 180 0 basechar 0
LayerCount: 2
Fore
SplineSet
250 136 m 2
 250 90 265 53 309 53 c 2
 314 53 l 2
 323 53 327 48 327 40 c 2
 327 13 l 2
 327 4 323 0 314 0 c 2
 44 0 l 2
 35 0 31 4 31 13 c 2
 31 40 l 2
 31 48 35 53 44 53 c 2
 50 53 l 2
 95 53 109 90 109 136 c 2
 109 524 l 2
 109 570 95 607 50 607 c 2
 44 607 l 2
 35 607 31 612 31 620 c 2
 31 647 l 2
 31 656 35 660 44 660 c 2
 314 660 l 2
 323 660 327 656 327 647 c 2
 327 620 l 2
 327 612 323 607 314 607 c 2
 309 607 l 2
 265 607 250 570 250 524 c 2
 250 136 l 2
118 729 m 1
 174 800 188.98046875 830 211.98046875 887 c 0
 216.98046875 898 232.98046875 899 244.98046875 899 c 0
 277.98046875 899 305.98046875 885 305.98046875 854 c 0
 305.98046875 788 229.98046875 739 174.98046875 715 c 0
 169.98046875 713 164.98046875 710.379882812 160.060546875 710.379882812 c 0
 156.990234375 710.379882812 154.23046875 711.4296875 151 713 c 2
 118 729 l 1
EndSplineSet
Substitution2: "'c2sc' Capitals to Small Capitals in Latin lookup 11 subtable" Iacute.sc
AlternateSubs2: "'aalt' Access All Alternates in Latin lookup 0 subtable" Iacute.sc
Position2: "'cpsp' Capital Spacing in Latin lookup 0 subtable" dx=5 dy=0 dh=10 dv=0
EndChar

StartChar: Ibreve
Encoding: 300 300 89
Width: 358
GlyphClass: 2
Flags: MW
HStem: 0 53<39.5 50 44 50 50 72.5 309 314> 607 53<39.5 314 44 50 287 309 309 314> 711 72<161 199.5 161 225.5>
VStem: 109 141<136 524>
AnchorPoint: "Anchor-6" 314 0 basechar 0
AnchorPoint: "Anchor-5" 180 837 basechar 0
AnchorPoint: "Anchor-4" 180 0 basechar 0
LayerCount: 2
Fore
SplineSet
250 136 m 2
 250 90 265 53 309 53 c 2
 314 53 l 2
 323 53 327 48 327 40 c 2
 327 13 l 2
 327 4 323 0 314 0 c 2
 44 0 l 2
 35 0 31 4 31 13 c 2
 31 40 l 2
 31 48 35 53 44 53 c 2
 50 53 l 2
 95 53 109 90 109 136 c 2
 109 524 l 2
 109 570 95 607 50 607 c 2
 44 607 l 2
 35 607 31 612 31 620 c 2
 31 647 l 2
 31 656 35 660 44 660 c 2
 314 660 l 2
 323 660 327 656 327 647 c 2
 327 620 l 2
 327 612 323 607 314 607 c 2
 309 607 l 2
 265 607 250 570 250 524 c 2
 250 136 l 2
180 711 m 0
 90 711 34 787 34 832 c 0
 34 842 41 846 49 847 c 0
 67 849 94 853 104 853 c 0
 112 853 116 849 118 840 c 0
 126 803 142 783 180 783 c 0
 219 783 235 803 243 840 c 0
 244 849 249 853 257 853 c 0
 266 853 294 849 311 847 c 0
 319 846 326 842 326 832 c 0
 326 787 271 711 180 711 c 0
EndSplineSet
Substitution2: "'c2sc' Capitals to Small Capitals in Latin lookup 11 subtable" Ibreve.sc
AlternateSubs2: "'aalt' Access All Alternates in Latin lookup 0 subtable" Ibreve.sc
Position2: "'cpsp' Capital Spacing in Latin lookup 0 subtable" dx=5 dy=0 dh=10 dv=0
EndChar

StartChar: uni01CF
Encoding: 463 463 90
Width: 358
GlyphClass: 2
Flags: MW
HStem: 0 53<39.5 50 44 50 50 72.5 309 314> 607 53<39.5 314 44 50 287 309 309 314>
VStem: 109 141<136 524>
AnchorPoint: "Anchor-6" 314 0 basechar 0
AnchorPoint: "Anchor-5" 180 845 basechar 0
AnchorPoint: "Anchor-4" 180 0 basechar 0
LayerCount: 2
Fore
SplineSet
250 136 m 2
 250 90 265 53 309 53 c 2
 314 53 l 2
 323 53 327 48 327 40 c 2
 327 13 l 2
 327 4 323 0 314 0 c 2
 44 0 l 2
 35 0 31 4 31 13 c 2
 31 40 l 2
 31 48 35 53 44 53 c 2
 50 53 l 2
 95 53 109 90 109 136 c 2
 109 524 l 2
 109 570 95 607 50 607 c 2
 44 607 l 2
 35 607 31 612 31 620 c 2
 31 647 l 2
 31 656 35 660 44 660 c 2
 314 660 l 2
 323 660 327 656 327 647 c 2
 327 620 l 2
 327 612 323 607 314 607 c 2
 309 607 l 2
 265 607 250 570 250 524 c 2
 250 136 l 2
180 793 m 1
 206 842 250 897 307 897 c 0
 337 897 351 868 351 835 c 0
 351 820 350 807 339 802 c 0
 281 780 251 765 180 708 c 1
 109 765 79 780 21 802 c 0
 10 807 9 820 9 835 c 0
 9 868 23 897 53 897 c 0
 110 897 154 842 180 793 c 1
EndSplineSet
Substitution2: "'c2sc' Capitals to Small Capitals in Latin lookup 11 subtable" uni01CF.sc
AlternateSubs2: "'aalt' Access All Alternates in Latin lookup 0 subtable" uni01CF.sc
Position2: "'cpsp' Capital Spacing in Latin lookup 0 subtable" dx=5 dy=0 dh=10 dv=0
EndChar

StartChar: Icircumflex
Encoding: 206 206 91
Width: 358
GlyphClass: 2
Flags: MW
HStem: 0 53<39.5 50 44 50 50 72.5 309 314> 607 53<39.5 314 44 50 287 309 309 314>
VStem: 109 141<136 524>
AnchorPoint: "Anchor-7" 180 812 basechar 0
AnchorPoint: "Anchor-6" 314 0 basechar 0
AnchorPoint: "Anchor-5" 180 867 basechar 0
AnchorPoint: "Anchor-4" 180 0 basechar 0
LayerCount: 2
Fore
SplineSet
250 136 m 2
 250 90 265 53 309 53 c 2
 314 53 l 2
 323 53 327 48 327 40 c 2
 327 13 l 2
 327 4 323 0 314 0 c 2
 44 0 l 2
 35 0 31 4 31 13 c 2
 31 40 l 2
 31 48 35 53 44 53 c 2
 50 53 l 2
 95 53 109 90 109 136 c 2
 109 524 l 2
 109 570 95 607 50 607 c 2
 44 607 l 2
 35 607 31 612 31 620 c 2
 31 647 l 2
 31 656 35 660 44 660 c 2
 314 660 l 2
 323 660 327 656 327 647 c 2
 327 620 l 2
 327 612 323 607 314 607 c 2
 309 607 l 2
 265 607 250 570 250 524 c 2
 250 136 l 2
180 812 m 1
 154 763 110 708 53 708 c 0
 23 708 9 737 9 770 c 0
 9 785 10 798 21 803 c 0
 79 825 109 840 180 897 c 1
 251 840 281 825 339 803 c 0
 350 798 351 785 351 770 c 0
 351 737 337 708 307 708 c 0
 250 708 206 763 180 812 c 1
EndSplineSet
Substitution2: "'c2sc' Capitals to Small Capitals in Latin lookup 11 subtable" Icircumflex.sc
AlternateSubs2: "'aalt' Access All Alternates in Latin lookup 0 subtable" Icircumflex.sc
Position2: "'cpsp' Capital Spacing in Latin lookup 0 subtable" dx=5 dy=0 dh=10 dv=0
EndChar

StartChar: uni0208
Encoding: 520 520 92
Width: 358
GlyphClass: 2
Flags: MW
HStem: 0 53<39.5 50 44 50 50 72.5 309 314> 607 53<39.5 314 44 50 287 309 309 314>
VStem: 109 141<136 524>
AnchorPoint: "Anchor-6" 314 0 basechar 0
AnchorPoint: "Anchor-5" 180 899 basechar 0
AnchorPoint: "Anchor-4" 180 0 basechar 0
LayerCount: 2
Fore
SplineSet
250 136 m 2
 250 90 265 53 309 53 c 2
 314 53 l 2
 323 53 327 48 327 40 c 2
 327 13 l 2
 327 4 323 0 314 0 c 2
 44 0 l 2
 35 0 31 4 31 13 c 2
 31 40 l 2
 31 48 35 53 44 53 c 2
 50 53 l 2
 95 53 109 90 109 136 c 2
 109 524 l 2
 109 570 95 607 50 607 c 2
 44 607 l 2
 35 607 31 612 31 620 c 2
 31 647 l 2
 31 656 35 660 44 660 c 2
 314 660 l 2
 323 660 327 656 327 647 c 2
 327 620 l 2
 327 612 323 607 314 607 c 2
 309 607 l 2
 265 607 250 570 250 524 c 2
 250 136 l 2
327.33984375 713 m 2
 324.109375 711.4296875 321.330078125 710.379882812 318.259765625 710.379882812 c 0
 313.33984375 710.379882812 308.33984375 713 303.33984375 715 c 0
 248.33984375 739 172.33984375 788 172.33984375 854 c 0
 172.33984375 885 200.33984375 899 233.33984375 899 c 0
 245.33984375 899 261.33984375 898 266.33984375 887 c 0
 289.33984375 830 304.33984375 800 360.33984375 729 c 1
 327.33984375 713 l 2
154.700195312 713 m 2
 151.469726562 711.4296875 148.690429688 710.379882812 145.620117188 710.379882812 c 0
 140.700195312 710.379882812 135.700195312 713 130.700195312 715 c 0
 75.7001953125 739 -0.2900390625 788 -0.2900390625 854 c 0
 -0.2900390625 885 27.7001953125 899 60.7001953125 899 c 0
 72.7001953125 899 88.7001953125 898 93.7001953125 887 c 0
 116.700195312 830 131.700195312 800 187.700195312 729 c 1
 154.700195312 713 l 2
EndSplineSet
Substitution2: "'c2sc' Capitals to Small Capitals in Latin lookup 11 subtable" uni0208.sc
AlternateSubs2: "'aalt' Access All Alternates in Latin lookup 0 subtable" uni0208.sc
Position2: "'cpsp' Capital Spacing in Latin lookup 0 subtable" dx=5 dy=0 dh=10 dv=0
EndChar

StartChar: Idieresis
Encoding: 207 207 93
Width: 358
GlyphClass: 2
Flags: MW
HStem: 0 53<39.5 50 44 50 50 72.5 309 314> 607 53<39.5 314 44 50 287 309 309 314> 705.08 159.84
VStem: -2.61 161.04 109 141<136 524> 202.38 161.04
AnchorPoint: "Anchor-6" 314 0 basechar 0
AnchorPoint: "Anchor-5" 180 845 basechar 0
AnchorPoint: "Anchor-4" 180 0 basechar 0
LayerCount: 2
Fore
SplineSet
250 136 m 2xc8
 250 90 265 53 309 53 c 2
 314 53 l 2
 323 53 327 48 327 40 c 2
 327 13 l 2
 327 4 323 0 314 0 c 2
 44 0 l 2
 35 0 31 4 31 13 c 2
 31 40 l 2
 31 48 35 53 44 53 c 2
 50 53 l 2
 95 53 109 90 109 136 c 2
 109 524 l 2
 109 570 95 607 50 607 c 2
 44 607 l 2
 35 607 31 612 31 620 c 2
 31 647 l 2
 31 656 35 660 44 660 c 2
 314 660 l 2
 323 660 327 656 327 647 c 2
 327 620 l 2
 327 612 323 607 314 607 c 2
 309 607 l 2
 265 607 250 570 250 524 c 2
 250 136 l 2xc8
77.2998046875 864.91015625 m 0xf4
 96.669921875 864.91015625 112.400390625 857.650390625 131.770507812 838.280273438 c 0
 151.140625 818.91015625 158.400390625 804.379882812 158.400390625 785.01953125 c 0
 158.400390625 765.649414062 149.940429688 749.909179688 131.770507812 731.749023438 c 0
 112.400390625 712.37890625 96.669921875 705.119140625 77.2998046875 705.119140625 c 0
 59.1396484375 705.119140625 44.609375 712.37890625 24.0390625 731.749023438 c 0
 4.6591796875 749.909179688 -2.5908203125 765.649414062 -2.5908203125 785.01953125 c 0
 -2.5908203125 804.379882812 4.6591796875 818.91015625 24.0390625 838.280273438 c 0
 43.3994140625 857.650390625 59.1396484375 864.91015625 77.2998046875 864.91015625 c 0xf4
282.299804688 864.91015625 m 0
 301.669921875 864.91015625 317.400390625 857.650390625 336.770507812 838.280273438 c 0
 356.140625 818.91015625 363.400390625 804.379882812 363.400390625 785.01953125 c 0
 363.400390625 765.649414062 354.940429688 749.909179688 336.770507812 731.749023438 c 0
 317.400390625 712.37890625 301.669921875 705.119140625 282.299804688 705.119140625 c 0
 264.139648438 705.119140625 249.609375 712.37890625 229.0390625 731.749023438 c 0
 209.659179688 749.909179688 202.409179688 765.649414062 202.409179688 785.01953125 c 0
 202.409179688 804.379882812 209.659179688 818.91015625 229.0390625 838.280273438 c 0
 248.399414062 857.650390625 264.139648438 864.91015625 282.299804688 864.91015625 c 0
EndSplineSet
Substitution2: "'c2sc' Capitals to Small Capitals in Latin lookup 11 subtable" Idieresis.sc
AlternateSubs2: "'aalt' Access All Alternates in Latin lookup 0 subtable" Idieresis.sc
Position2: "'cpsp' Capital Spacing in Latin lookup 0 subtable" dx=5 dy=0 dh=10 dv=0
EndChar

StartChar: uni1E2E
Encoding: 7726 7726 94
Width: 358
GlyphClass: 2
Flags: MW
HStem: 0 53<39.5 50 44 50 50 72.5 309 314> 607 53<39.5 314 44 50 287 309 309 314> 705.08 159.84
VStem: -2.61 161.04 109 141<136 524> 202.38 161.04
AnchorPoint: "Anchor-6" 314 0 basechar 0
AnchorPoint: "Anchor-5" 212 1084 basechar 0
AnchorPoint: "Anchor-4" 180 0 basechar 0
LayerCount: 2
Fore
SplineSet
250 136 m 2xc8
 250 90 265 53 309 53 c 2
 314 53 l 2
 323 53 327 48 327 40 c 2
 327 13 l 2
 327 4 323 0 314 0 c 2
 44 0 l 2
 35 0 31 4 31 13 c 2
 31 40 l 2
 31 48 35 53 44 53 c 2
 50 53 l 2
 95 53 109 90 109 136 c 2
 109 524 l 2
 109 570 95 607 50 607 c 2
 44 607 l 2
 35 607 31 612 31 620 c 2
 31 647 l 2
 31 656 35 660 44 660 c 2
 314 660 l 2
 323 660 327 656 327 647 c 2
 327 620 l 2
 327 612 323 607 314 607 c 2
 309 607 l 2
 265 607 250 570 250 524 c 2
 250 136 l 2xc8
77.2998046875 864.91015625 m 0xf4
 96.669921875 864.91015625 112.400390625 857.650390625 131.770507812 838.280273438 c 0
 151.140625 818.91015625 158.400390625 804.379882812 158.400390625 785.01953125 c 0
 158.400390625 765.649414062 149.940429688 749.909179688 131.770507812 731.749023438 c 0
 112.400390625 712.37890625 96.669921875 705.119140625 77.2998046875 705.119140625 c 0
 59.1396484375 705.119140625 44.609375 712.37890625 24.0390625 731.749023438 c 0
 4.6591796875 749.909179688 -2.5908203125 765.649414062 -2.5908203125 785.01953125 c 0
 -2.5908203125 804.379882812 4.6591796875 818.91015625 24.0390625 838.280273438 c 0
 43.3994140625 857.650390625 59.1396484375 864.91015625 77.2998046875 864.91015625 c 0xf4
282.299804688 864.91015625 m 0
 301.669921875 864.91015625 317.400390625 857.650390625 336.770507812 838.280273438 c 0
 356.140625 818.91015625 363.400390625 804.379882812 363.400390625 785.01953125 c 0
 363.400390625 765.649414062 354.940429688 749.909179688 336.770507812 731.749023438 c 0
 317.400390625 712.37890625 301.669921875 705.119140625 282.299804688 705.119140625 c 0
 264.139648438 705.119140625 249.609375 712.37890625 229.0390625 731.749023438 c 0
 209.659179688 749.909179688 202.409179688 765.649414062 202.409179688 785.01953125 c 0
 202.409179688 804.379882812 209.659179688 818.91015625 229.0390625 838.280273438 c 0
 248.399414062 857.650390625 264.139648438 864.91015625 282.299804688 864.91015625 c 0
118.009765625 913.990234375 m 1
 174.009765625 984.990234375 188.990234375 1014.99023438 211.990234375 1071.99023438 c 0
 216.990234375 1082.99023438 232.990234375 1083.99023438 244.990234375 1083.99023438 c 0
 277.990234375 1083.99023438 305.990234375 1069.99023438 305.990234375 1038.99023438 c 0
 305.990234375 972.990234375 229.990234375 923.990234375 174.990234375 899.990234375 c 0
 169.990234375 897.990234375 164.990234375 895.370117188 160.0703125 895.370117188 c 0
 157 895.370117188 154.240234375 896.419921875 151.009765625 897.990234375 c 2
 118.009765625 913.990234375 l 1
EndSplineSet
Substitution2: "'c2sc' Capitals to Small Capitals in Latin lookup 11 subtable" uni1E2E.sc
AlternateSubs2: "'aalt' Access All Alternates in Latin lookup 0 subtable" uni1E2E.sc
Position2: "'cpsp' Capital Spacing in Latin lookup 0 subtable" dx=5 dy=0 dh=10 dv=0
EndChar

StartChar: Idotaccent
Encoding: 304 304 95
Width: 358
GlyphClass: 2
Flags: MW
HStem: 0 53<39.5 50 44 50 50 72.5 309 314> 607 53<39.5 314 44 50 287 309 309 314> 705.08 159.84
VStem: 99.98 161.04 109 141
AnchorPoint: "Anchor-6" 314 0 basechar 0
AnchorPoint: "Anchor-5" 180 845 basechar 0
AnchorPoint: "Anchor-4" 180 0 basechar 0
LayerCount: 2
Fore
SplineSet
250 136 m 2xc8
 250 90 265 53 309 53 c 2
 314 53 l 2
 323 53 327 48 327 40 c 2
 327 13 l 2
 327 4 323 0 314 0 c 2
 44 0 l 2
 35 0 31 4 31 13 c 2
 31 40 l 2
 31 48 35 53 44 53 c 2
 50 53 l 2
 95 53 109 90 109 136 c 2
 109 524 l 2
 109 570 95 607 50 607 c 2
 44 607 l 2
 35 607 31 612 31 620 c 2
 31 647 l 2
 31 656 35 660 44 660 c 2
 314 660 l 2
 323 660 327 656 327 647 c 2
 327 620 l 2
 327 612 323 607 314 607 c 2
 309 607 l 2
 265 607 250 570 250 524 c 2
 250 136 l 2xc8
179.900390625 864.91015625 m 0xf0
 199.270507812 864.91015625 215 857.650390625 234.370117188 838.280273438 c 0
 253.740234375 818.91015625 261 804.379882812 261 785.01953125 c 0
 261 765.649414062 252.530273438 749.909179688 234.370117188 731.749023438 c 0
 215 712.37890625 199.26953125 705.119140625 179.899414062 705.119140625 c 0
 161.729492188 705.119140625 147.209960938 712.37890625 126.629882812 731.749023438 c 0
 107.259765625 749.909179688 100 765.649414062 100 785.01953125 c 0
 100 804.379882812 107.259765625 818.91015625 126.629882812 838.280273438 c 0
 146 857.650390625 161.73046875 864.91015625 179.900390625 864.91015625 c 0xf0
EndSplineSet
Substitution2: "'c2sc' Capitals to Small Capitals in Latin lookup 11 subtable" Idotaccent.sc
AlternateSubs2: "'aalt' Access All Alternates in Latin lookup 0 subtable" Idotaccent.sc
Position2: "'cpsp' Capital Spacing in Latin lookup 0 subtable" dx=5 dy=0 dh=10 dv=0
EndChar

StartChar: uni1ECA
Encoding: 7882 7882 96
Width: 358
GlyphClass: 2
Flags: MW
HStem: -209.01 159.83 0 53<39.5 50 44 50 50 72.5 309 314> 607 53<39.5 314 44 50 287 309 309 314>
VStem: 99.98 161.04 109 141
AnchorPoint: "Anchor-6" 314 0 basechar 0
AnchorPoint: "Anchor-5" 180 660 basechar 0
AnchorPoint: "Anchor-4" 180 0 basechar 0
LayerCount: 2
Fore
SplineSet
250 136 m 2x68
 250 90 265 53 309 53 c 2
 314 53 l 2
 323 53 327 48 327 40 c 2
 327 13 l 2
 327 4 323 0 314 0 c 2
 44 0 l 2
 35 0 31 4 31 13 c 2
 31 40 l 2
 31 48 35 53 44 53 c 2
 50 53 l 2
 95 53 109 90 109 136 c 2
 109 524 l 2
 109 570 95 607 50 607 c 2
 44 607 l 2
 35 607 31 612 31 620 c 2
 31 647 l 2
 31 656 35 660 44 660 c 2
 314 660 l 2
 323 660 327 656 327 647 c 2
 327 620 l 2
 327 612 323 607 314 607 c 2
 309 607 l 2
 265 607 250 570 250 524 c 2
 250 136 l 2x68
179.900390625 -49.1796875 m 0xf0
 199.270507812 -49.1796875 215 -56.439453125 234.370117188 -75.8095703125 c 0
 253.740234375 -95.1796875 261 -109.69921875 261 -129.079101562 c 0
 261 -148.439453125 252.530273438 -164.1796875 234.370117188 -182.33984375 c 0
 215 -201.709960938 199.26953125 -208.969726562 179.899414062 -208.969726562 c 0
 161.729492188 -208.969726562 147.209960938 -201.709960938 126.629882812 -182.33984375 c 0
 107.259765625 -164.1796875 100 -148.439453125 100 -129.079101562 c 0
 100 -109.69921875 107.259765625 -95.1796875 126.629882812 -75.8095703125 c 0
 146 -56.439453125 161.73046875 -49.1796875 179.900390625 -49.1796875 c 0xf0
EndSplineSet
Substitution2: "'c2sc' Capitals to Small Capitals in Latin lookup 11 subtable" uni1ECA.sc
AlternateSubs2: "'aalt' Access All Alternates in Latin lookup 0 subtable" uni1ECA.sc
Position2: "'cpsp' Capital Spacing in Latin lookup 0 subtable" dx=5 dy=0 dh=10 dv=0
EndChar

StartChar: Igrave
Encoding: 204 204 97
Width: 358
GlyphClass: 2
Flags: MW
HStem: 0 53<39.5 50 44 50 50 72.5 309 314> 607 53<39.5 314 44 50 287 309 309 314>
VStem: 109 141<136 524>
AnchorPoint: "Anchor-6" 314 0 basechar 0
AnchorPoint: "Anchor-5" 155 899 basechar 0
AnchorPoint: "Anchor-4" 180 0 basechar 0
LayerCount: 2
Fore
SplineSet
250 136 m 2
 250 90 265 53 309 53 c 2
 314 53 l 2
 323 53 327 48 327 40 c 2
 327 13 l 2
 327 4 323 0 314 0 c 2
 44 0 l 2
 35 0 31 4 31 13 c 2
 31 40 l 2
 31 48 35 53 44 53 c 2
 50 53 l 2
 95 53 109 90 109 136 c 2
 109 524 l 2
 109 570 95 607 50 607 c 2
 44 607 l 2
 35 607 31 612 31 620 c 2
 31 647 l 2
 31 656 35 660 44 660 c 2
 314 660 l 2
 323 660 327 656 327 647 c 2
 327 620 l 2
 327 612 323 607 314 607 c 2
 309 607 l 2
 265 607 250 570 250 524 c 2
 250 136 l 2
216 713 m 2
 212.759765625 711.4296875 209.990234375 710.379882812 206.91015625 710.379882812 c 0
 202 710.379882812 197 713 192 715 c 0
 137 739 61 788 61 854 c 0
 61 885 89 899 122 899 c 0
 134 899 150 898 155 887 c 0
 178 830 193 800 249 729 c 1
 216 713 l 2
EndSplineSet
Substitution2: "'c2sc' Capitals to Small Capitals in Latin lookup 11 subtable" Igrave.sc
AlternateSubs2: "'aalt' Access All Alternates in Latin lookup 0 subtable" Igrave.sc
Position2: "'cpsp' Capital Spacing in Latin lookup 0 subtable" dx=5 dy=0 dh=10 dv=0
EndChar

StartChar: uni1EC8
Encoding: 7880 7880 98
Width: 358
GlyphClass: 2
Flags: MW
HStem: 0 53<39.5 50 44 50 50 72.5 309 314> 607 53<39.5 314 44 50 287 309 309 314> 709 207 819 97 836.05 79.95
VStem: 109 141<136 524> 186 72
AnchorPoint: "Anchor-6" 314 0 basechar 0
AnchorPoint: "Anchor-5" 180 946 basechar 0
AnchorPoint: "Anchor-4" 180 0 basechar 0
LayerCount: 2
Fore
SplineSet
250 136 m 2xc4
 250 90 265 53 309 53 c 2
 314 53 l 2
 323 53 327 48 327 40 c 2
 327 13 l 2
 327 4 323 0 314 0 c 2
 44 0 l 2
 35 0 31 4 31 13 c 2
 31 40 l 2
 31 48 35 53 44 53 c 2
 50 53 l 2
 95 53 109 90 109 136 c 2
 109 524 l 2
 109 570 95 607 50 607 c 2
 44 607 l 2
 35 607 31 612 31 620 c 2
 31 647 l 2
 31 656 35 660 44 660 c 2
 314 660 l 2
 323 660 327 656 327 647 c 2
 327 620 l 2
 327 612 323 607 314 607 c 2
 309 607 l 2
 265 607 250 570 250 524 c 2
 250 136 l 2xc4
219 714 m 1xe2
 218.959960938 714.05078125 l 1
 205.959960938 697.05078125 152.299804688 724.350585938 164.299804688 740.350585938 c 0xe2
 177.299804688 757.350585938 185.959960938 771.041015625 185.959960938 795.30078125 c 0
 185.959960938 830.810546875 168.860351562 836.060546875 155.700195312 836.060546875 c 0
 132.030273438 836.060546875 114.16015625 809.520507812 105.719726562 822.91015625 c 0xca
 94.939453125 840.009765625 89.83984375 853.759765625 88.83984375 872.759765625 c 0
 88.0498046875 887.76953125 138 916 174 916 c 0
 237 916 258 866 258 822 c 0xd2
 258 785 244 746 219 714 c 1xe2
EndSplineSet
Substitution2: "'c2sc' Capitals to Small Capitals in Latin lookup 11 subtable" uni1EC8.sc
AlternateSubs2: "'aalt' Access All Alternates in Latin lookup 0 subtable" uni1EC8.sc
Position2: "'cpsp' Capital Spacing in Latin lookup 0 subtable" dx=5 dy=0 dh=10 dv=0
EndChar

StartChar: uni020A
Encoding: 522 522 99
Width: 358
GlyphClass: 2
Flags: MW
HStem: 0 53<39.5 50 44 50 50 72.5 309 314> 607 53<39.5 314 44 50 287 309 309 314> 801 72<163 201.5>
VStem: 109 141<136 524>
AnchorPoint: "Anchor-6" 314 0 basechar 0
AnchorPoint: "Anchor-5" 180 899 basechar 0
AnchorPoint: "Anchor-4" 180 0 basechar 0
LayerCount: 2
Fore
SplineSet
250 136 m 2
 250 90 265 53 309 53 c 2
 314 53 l 2
 323 53 327 48 327 40 c 2
 327 13 l 2
 327 4 323 0 314 0 c 2
 44 0 l 2
 35 0 31 4 31 13 c 2
 31 40 l 2
 31 48 35 53 44 53 c 2
 50 53 l 2
 95 53 109 90 109 136 c 2
 109 524 l 2
 109 570 95 607 50 607 c 2
 44 607 l 2
 35 607 31 612 31 620 c 2
 31 647 l 2
 31 656 35 660 44 660 c 2
 314 660 l 2
 323 660 327 656 327 647 c 2
 327 620 l 2
 327 612 323 607 314 607 c 2
 309 607 l 2
 265 607 250 570 250 524 c 2
 250 136 l 2
182 873 m 0
 273 873 328 797 328 752 c 0
 328 742 321 738 313 737 c 0
 296 735 268 731 259 731 c 0
 251 731 246 735 245 744 c 0
 237 781 221 801 182 801 c 0
 144 801 128 781 120 744 c 0
 118 735 114 731 106 731 c 0
 96 731 69 735 51 737 c 0
 43 738 36 742 36 752 c 0
 36 797 92 873 182 873 c 0
EndSplineSet
Substitution2: "'c2sc' Capitals to Small Capitals in Latin lookup 11 subtable" uni020A.sc
AlternateSubs2: "'aalt' Access All Alternates in Latin lookup 0 subtable" uni020A.sc
Position2: "'cpsp' Capital Spacing in Latin lookup 0 subtable" dx=5 dy=0 dh=10 dv=0
EndChar

StartChar: Imacron
Encoding: 298 298 100
Width: 358
GlyphClass: 2
Flags: MW
HStem: 0 53<39.5 50 44 50 50 72.5 309 314> 607 53<39.5 314 44 50 287 309 309 314> 721 79<57.5 298 62 298>
VStem: 109 141<136 524>
AnchorPoint: "Anchor-6" 314 0 basechar 0
AnchorPoint: "Anchor-5" 180 792 basechar 0
AnchorPoint: "Anchor-4" 180 0 basechar 0
LayerCount: 2
Fore
SplineSet
250 136 m 2
 250 90 265 53 309 53 c 2
 314 53 l 2
 323 53 327 48 327 40 c 2
 327 13 l 2
 327 4 323 0 314 0 c 2
 44 0 l 2
 35 0 31 4 31 13 c 2
 31 40 l 2
 31 48 35 53 44 53 c 2
 50 53 l 2
 95 53 109 90 109 136 c 2
 109 524 l 2
 109 570 95 607 50 607 c 2
 44 607 l 2
 35 607 31 612 31 620 c 2
 31 647 l 2
 31 656 35 660 44 660 c 2
 314 660 l 2
 323 660 327 656 327 647 c 2
 327 620 l 2
 327 612 323 607 314 607 c 2
 309 607 l 2
 265 607 250 570 250 524 c 2
 250 136 l 2
311 734 m 2
 311 726 307 721 298 721 c 2
 62 721 l 2
 53 721 49 726 49 734 c 2
 49 787 l 2
 49 796 53 800 62 800 c 2
 298 800 l 2
 307 800 311 796 311 787 c 2
 311 734 l 2
EndSplineSet
Substitution2: "'c2sc' Capitals to Small Capitals in Latin lookup 11 subtable" Imacron.sc
AlternateSubs2: "'aalt' Access All Alternates in Latin lookup 0 subtable" Imacron.sc
Position2: "'cpsp' Capital Spacing in Latin lookup 0 subtable" dx=5 dy=0 dh=10 dv=0
EndChar

StartChar: Iogonek
Encoding: 302 302 101
Width: 358
GlyphClass: 2
Flags: MW
HStem: -223 68 0 53<39.5 50 44 50 50 72.5 44 184.48> 607 53<39.5 314 44 50 287 309 309 314>
VStem: 109 141<136 524> 142 87<-103.49 -71.2954>
AnchorPoint: "Anchor-6" 314 0 basechar 0
AnchorPoint: "Anchor-5" 180 660 basechar 0
AnchorPoint: "Anchor-4" 180 0 basechar 0
LayerCount: 2
Fore
SplineSet
250 136 m 2xf0
 250 90 264.970703125 52.9697265625 308.970703125 52.9697265625 c 2
 313.970703125 52.9697265625 l 2
 322.970703125 52.9697265625 326.970703125 47.9697265625 326.970703125 39.9697265625 c 2xf0
 326.970703125 12.9697265625 l 2
 326.970703125 8.6796875 326.060546875 5.5400390625 324.140625 3.419921875 c 0
 323.140625 2.0498046875 321.3203125 1.08984375 319.05078125 0.5400390625 c 0
 317.590820312 0.1796875 315.900390625 0.009765625 314 0.009765625 c 0
 303 0.009765625 229 -17.990234375 229 -82.990234375 c 0
 229 -123.990234375 254 -154.990234375 299 -154.990234375 c 0
 331 -154.990234375 367 -131.990234375 376 -131.990234375 c 0
 380 -131.990234375 384 -135.990234375 384 -142.990234375 c 2
 384 -177.990234375 l 2
 384 -183.990234375 382 -188.990234375 377 -191.990234375 c 0
 344 -211.990234375 311 -222.990234375 281 -222.990234375 c 0
 185 -222.990234375 142 -145.990234375 142 -91.990234375 c 0
 142 -50.6005859375 160.400390625 -20.8701171875 184.48046875 0 c 1
 44 0 l 2xe8
 35 0 31 4 31 13 c 2
 31 40 l 2
 31 48 35 53 44 53 c 2
 50 53 l 2
 95 53 109 90 109 136 c 2
 109 524 l 2
 109 570 95 607 50 607 c 2
 44 607 l 2
 35 607 31 612 31 620 c 2
 31 647 l 2
 31 656 35 660 44 660 c 2
 314 660 l 2
 323 660 327 656 327 647 c 2
 327 620 l 2
 327 612 323 607 314 607 c 2
 309 607 l 2
 265 607 250 570 250 524 c 2
 250 136 l 2xf0
EndSplineSet
Substitution2: "'c2sc' Capitals to Small Capitals in Latin lookup 11 subtable" Iogonek.sc
AlternateSubs2: "'aalt' Access All Alternates in Latin lookup 0 subtable" Iogonek.sc
Position2: "'cpsp' Capital Spacing in Latin lookup 0 subtable" dx=5 dy=0 dh=10 dv=0
EndChar

StartChar: Itilde
Encoding: 296 296 102
Width: 358
GlyphClass: 2
Flags: MW
HStem: 0 53<39.5 50 44 50 50 72.5 309 314> 607 53<39.5 314 44 50 287 309 309 314> 712 76<233 244 233 270> 796 75<117 128>
VStem: 26 80<769 779.5 769 807> 109 141<136 524> 254 80<803 814>
AnchorPoint: "Anchor-6" 314 0 basechar 0
AnchorPoint: "Anchor-5" 180 845 basechar 0
AnchorPoint: "Anchor-4" 180 0 basechar 0
LayerCount: 2
Fore
SplineSet
250 136 m 2
 250 90 265 53 309 53 c 2
 314 53 l 2
 323 53 327 48 327 40 c 2
 327 13 l 2
 327 4 323 0 314 0 c 2
 44 0 l 2
 35 0 31 4 31 13 c 2
 31 40 l 2
 31 48 35 53 44 53 c 2
 50 53 l 2
 95 53 109 90 109 136 c 2
 109 524 l 2
 109 570 95 607 50 607 c 2
 44 607 l 2
 35 607 31 612 31 620 c 2
 31 647 l 2
 31 656 35 660 44 660 c 2
 314 660 l 2
 323 660 327 656 327 647 c 2
 327 620 l 2
 327 612 323 607 314 607 c 2
 309 607 l 2
 265 607 250 570 250 524 c 2
 250 136 l 2
209 812 m 0
 220 795 228 788 238 788 c 0
 250 788 254 798 254 808 c 0
 254 820 251 832 241 845 c 1
 251 856 271 872 290 872 c 0
 305 872 334 840 334 804 c 0
 334 747 292 712 248 712 c 0xf2
 187 712 165 747 151 771 c 0
 141 789 133 796 123 796 c 0
 111 796 106 784 106 775 c 0
 106 763 110 751 120 738 c 1
 110 727 90 711 70 711 c 0
 55 711 26 744 26 778 c 0
 26 836 69 871 113 871 c 0xd8
 173 871 196 834 209 812 c 0
EndSplineSet
Substitution2: "'c2sc' Capitals to Small Capitals in Latin lookup 11 subtable" Itilde.sc
AlternateSubs2: "'aalt' Access All Alternates in Latin lookup 0 subtable" Itilde.sc
Position2: "'cpsp' Capital Spacing in Latin lookup 0 subtable" dx=5 dy=0 dh=10 dv=0
EndChar

